solid OpenSCAD_Model
  facet normal -1 0 0
    outer loop
      vertex -10 -3.05 -3.05
      vertex -10 3.05 6.95
      vertex -10 3.05 -3.05
    endloop
  endfacet
  facet normal -1 -0 0
    outer loop
      vertex -10 3.05 6.95
      vertex -10 -3.05 -3.05
      vertex -10 -3.05 6.95
    endloop
  endfacet
  facet normal 0 0 1
    outer loop
      vertex 10 3.05 6.95
      vertex -6.30829 2 6.95
      vertex 10 -3.05 6.95
    endloop
  endfacet
  facet normal -0 0 1
    outer loop
      vertex -10 3.05 6.95
      vertex -6.30829 2 6.95
      vertex 10 3.05 6.95
    endloop
  endfacet
  facet normal 0 0 1
    outer loop
      vertex -7.69579 2 6.95
      vertex -10 3.05 6.95
      vertex -7.69579 -2 6.95
    endloop
  endfacet
  facet normal 0 0 1
    outer loop
      vertex -6.30829 2 6.95
      vertex -10 3.05 6.95
      vertex -7.69579 2 6.95
    endloop
  endfacet
  facet normal -0 0 1
    outer loop
      vertex -6.30829 -2 6.95
      vertex 10 -3.05 6.95
      vertex -6.30829 2 6.95
    endloop
  endfacet
  facet normal 0 0 1
    outer loop
      vertex -10 -3.05 6.95
      vertex -6.30829 -2 6.95
      vertex -7.69579 -2 6.95
    endloop
  endfacet
  facet normal 0 0 1
    outer loop
      vertex -6.30829 -2 6.95
      vertex -10 -3.05 6.95
      vertex 10 -3.05 6.95
    endloop
  endfacet
  facet normal 0 0 1
    outer loop
      vertex -10 -3.05 6.95
      vertex -7.69579 -2 6.95
      vertex -10 3.05 6.95
    endloop
  endfacet
  facet normal 1 -0 0
    outer loop
      vertex 10 -3.05 6.95
      vertex 10 3.05 -3.05
      vertex 10 3.05 6.95
    endloop
  endfacet
  facet normal 1 0 0
    outer loop
      vertex 10 3.05 -3.05
      vertex 10 -3.05 6.95
      vertex 10 -3.05 -3.05
    endloop
  endfacet
  facet normal 0 0 -1
    outer loop
      vertex 10 -3.05 -3.05
      vertex 8.5 -1.65 -3.05
      vertex 10 3.05 -3.05
    endloop
  endfacet
  facet normal 0 0 -1
    outer loop
      vertex 10 -3.05 -3.05
      vertex 7.9 -1.65 -3.05
      vertex 8.5 -1.65 -3.05
    endloop
  endfacet
  facet normal 0 0 -1
    outer loop
      vertex 7.9 -1.65 -3.05
      vertex 0.299999 -1.65 -3.05
      vertex 7.9 1.65 -3.05
    endloop
  endfacet
  facet normal 0 0 -1
    outer loop
      vertex 10 -3.05 -3.05
      vertex 0.299999 -1.65 -3.05
      vertex 7.9 -1.65 -3.05
    endloop
  endfacet
  facet normal 0 0 -1
    outer loop
      vertex 10 -3.05 -3.05
      vertex -0.299999 -1.65 -3.05
      vertex 0.299999 -1.65 -3.05
    endloop
  endfacet
  facet normal 0 0 -1
    outer loop
      vertex -0.299999 -1.65 -3.05
      vertex -7.9 -1.65 -3.05
      vertex -0.299999 1.65 -3.05
    endloop
  endfacet
  facet normal 0 0 -1
    outer loop
      vertex -10 -3.05 -3.05
      vertex -0.299999 -1.65 -3.05
      vertex 10 -3.05 -3.05
    endloop
  endfacet
  facet normal -0 0 -1
    outer loop
      vertex -0.299999 -1.65 -3.05
      vertex -10 -3.05 -3.05
      vertex -7.9 -1.65 -3.05
    endloop
  endfacet
  facet normal -0 0 -1
    outer loop
      vertex -8.5 -1.65 -3.05
      vertex -10 -3.05 -3.05
      vertex -8.5 1.65 -3.05
    endloop
  endfacet
  facet normal -0 0 -1
    outer loop
      vertex -7.9 -1.65 -3.05
      vertex -10 -3.05 -3.05
      vertex -8.5 -1.65 -3.05
    endloop
  endfacet
  facet normal 0 0 -1
    outer loop
      vertex 8.5 1.65 -3.05
      vertex 10 3.05 -3.05
      vertex 8.5 -1.65 -3.05
    endloop
  endfacet
  facet normal 0 0 -1
    outer loop
      vertex 7.9 1.65 -3.05
      vertex 10 3.05 -3.05
      vertex 8.5 1.65 -3.05
    endloop
  endfacet
  facet normal 0 0 -1
    outer loop
      vertex 0.299999 1.65 -3.05
      vertex 7.9 1.65 -3.05
      vertex 0.299999 -1.65 -3.05
    endloop
  endfacet
  facet normal 0 0 -1
    outer loop
      vertex 7.9 1.65 -3.05
      vertex 0.299999 1.65 -3.05
      vertex 10 3.05 -3.05
    endloop
  endfacet
  facet normal 0 0 -1
    outer loop
      vertex -0.299999 1.65 -3.05
      vertex 10 3.05 -3.05
      vertex 0.299999 1.65 -3.05
    endloop
  endfacet
  facet normal 0 0 -1
    outer loop
      vertex -7.9 1.65 -3.05
      vertex -0.299999 1.65 -3.05
      vertex -7.9 -1.65 -3.05
    endloop
  endfacet
  facet normal 0 0 -1
    outer loop
      vertex -10 3.05 -3.05
      vertex -0.299999 1.65 -3.05
      vertex -7.9 1.65 -3.05
    endloop
  endfacet
  facet normal 0 0 -1
    outer loop
      vertex -10 3.05 -3.05
      vertex -7.9 1.65 -3.05
      vertex -8.5 1.65 -3.05
    endloop
  endfacet
  facet normal 0 0 -1
    outer loop
      vertex -0.299999 1.65 -3.05
      vertex -10 3.05 -3.05
      vertex 10 3.05 -3.05
    endloop
  endfacet
  facet normal 0 0 -1
    outer loop
      vertex -10 3.05 -3.05
      vertex -8.5 1.65 -3.05
      vertex -10 -3.05 -3.05
    endloop
  endfacet
  facet normal 0 -1 0
    outer loop
      vertex -10 -3.05 6.95
      vertex -4.02247 -3.05 1.17462
      vertex 10 -3.05 6.95
    endloop
  endfacet
  facet normal 0 -1 0
    outer loop
      vertex 10 -3.05 6.95
      vertex 4.23294 -3.05 1.23101
      vertex 4.45 -3.05 1.25
    endloop
  endfacet
  facet normal 0 -1 0
    outer loop
      vertex 4.02247 -3.05 1.17462
      vertex 10 -3.05 6.95
      vertex -4.02247 -3.05 1.17462
    endloop
  endfacet
  facet normal 0 -1 0
    outer loop
      vertex 10 -3.05 6.95
      vertex 4.02247 -3.05 1.17462
      vertex 4.23294 -3.05 1.23101
    endloop
  endfacet
  facet normal 0 -1 0
    outer loop
      vertex -3.825 -3.05 1.08253
      vertex 4.02247 -3.05 1.17462
      vertex -4.02247 -3.05 1.17462
    endloop
  endfacet
  facet normal 0 -1 0
    outer loop
      vertex -3.825 -3.05 1.08253
      vertex 3.825 -3.05 1.08253
      vertex 4.02247 -3.05 1.17462
    endloop
  endfacet
  facet normal 0 -1 0
    outer loop
      vertex -3.64651 -3.05 0.957556
      vertex 3.825 -3.05 1.08253
      vertex -3.825 -3.05 1.08253
    endloop
  endfacet
  facet normal 0 -1 0
    outer loop
      vertex -3.64651 -3.05 0.957556
      vertex 3.64651 -3.05 0.957556
      vertex 3.825 -3.05 1.08253
    endloop
  endfacet
  facet normal 0 -1 0
    outer loop
      vertex -3.49244 -3.05 0.803485
      vertex 3.64651 -3.05 0.957556
      vertex -3.64651 -3.05 0.957556
    endloop
  endfacet
  facet normal 0 -1 0
    outer loop
      vertex -3.49244 -3.05 0.803485
      vertex 3.49244 -3.05 0.803485
      vertex 3.64651 -3.05 0.957556
    endloop
  endfacet
  facet normal 0 -1 0
    outer loop
      vertex -3.36747 -3.05 0.625
      vertex 3.49244 -3.05 0.803485
      vertex -3.49244 -3.05 0.803485
    endloop
  endfacet
  facet normal 0 -1 0
    outer loop
      vertex -3.36747 -3.05 0.625
      vertex 3.36747 -3.05 0.625
      vertex 3.49244 -3.05 0.803485
    endloop
  endfacet
  facet normal 0 -1 0
    outer loop
      vertex -3.27538 -3.05 0.427526
      vertex 3.36747 -3.05 0.625
      vertex -3.36747 -3.05 0.625
    endloop
  endfacet
  facet normal 0 -1 0
    outer loop
      vertex -3.27538 -3.05 0.427526
      vertex 3.27538 -3.05 0.427526
      vertex 3.36747 -3.05 0.625
    endloop
  endfacet
  facet normal 0 -1 0
    outer loop
      vertex -3.21899 -3.05 0.21706
      vertex 3.27538 -3.05 0.427526
      vertex -3.27538 -3.05 0.427526
    endloop
  endfacet
  facet normal 0 -1 0
    outer loop
      vertex -3.21899 -3.05 0.21706
      vertex 3.21899 -3.05 0.21706
      vertex 3.27538 -3.05 0.427526
    endloop
  endfacet
  facet normal 0 -1 0
    outer loop
      vertex -3.2 -3.05 1.90735e-07
      vertex 3.21899 -3.05 0.21706
      vertex -3.21899 -3.05 0.21706
    endloop
  endfacet
  facet normal 0 -1 0
    outer loop
      vertex -3.2 -3.05 1.90735e-07
      vertex 3.2 -3.05 1.90735e-07
      vertex 3.21899 -3.05 0.21706
    endloop
  endfacet
  facet normal 0 -1 0
    outer loop
      vertex -3.21899 -3.05 -0.21706
      vertex 3.2 -3.05 1.90735e-07
      vertex -3.2 -3.05 1.90735e-07
    endloop
  endfacet
  facet normal 0 -1 0
    outer loop
      vertex -3.21899 -3.05 -0.21706
      vertex 3.21899 -3.05 -0.21706
      vertex 3.2 -3.05 1.90735e-07
    endloop
  endfacet
  facet normal 0 -1 0
    outer loop
      vertex -3.27538 -3.05 -0.427524
      vertex 3.21899 -3.05 -0.21706
      vertex -3.21899 -3.05 -0.21706
    endloop
  endfacet
  facet normal 0 -1 0
    outer loop
      vertex -3.27538 -3.05 -0.427524
      vertex 3.27538 -3.05 -0.427524
      vertex 3.21899 -3.05 -0.21706
    endloop
  endfacet
  facet normal 0 -1 0
    outer loop
      vertex -3.36747 -3.05 -0.625
      vertex 3.27538 -3.05 -0.427524
      vertex -3.27538 -3.05 -0.427524
    endloop
  endfacet
  facet normal 0 -1 0
    outer loop
      vertex -3.36747 -3.05 -0.625
      vertex 3.36747 -3.05 -0.625
      vertex 3.27538 -3.05 -0.427524
    endloop
  endfacet
  facet normal 0 -1 0
    outer loop
      vertex -3.49244 -3.05 -0.803484
      vertex 3.36747 -3.05 -0.625
      vertex -3.36747 -3.05 -0.625
    endloop
  endfacet
  facet normal 0 -1 0
    outer loop
      vertex -3.49244 -3.05 -0.803484
      vertex 3.49244 -3.05 -0.803484
      vertex 3.36747 -3.05 -0.625
    endloop
  endfacet
  facet normal 0 -1 0
    outer loop
      vertex -3.64651 -3.05 -0.957555
      vertex 3.49244 -3.05 -0.803484
      vertex -3.49244 -3.05 -0.803484
    endloop
  endfacet
  facet normal 0 -1 0
    outer loop
      vertex -3.64651 -3.05 -0.957555
      vertex 3.64651 -3.05 -0.957555
      vertex 3.49244 -3.05 -0.803484
    endloop
  endfacet
  facet normal 0 -1 0
    outer loop
      vertex -3.825 -3.05 -1.08253
      vertex 3.64651 -3.05 -0.957555
      vertex -3.64651 -3.05 -0.957555
    endloop
  endfacet
  facet normal 0 -1 0
    outer loop
      vertex -3.825 -3.05 -1.08253
      vertex 3.825 -3.05 -1.08253
      vertex 3.64651 -3.05 -0.957555
    endloop
  endfacet
  facet normal 0 -1 0
    outer loop
      vertex -4.02247 -3.05 -1.17462
      vertex 3.825 -3.05 -1.08253
      vertex -3.825 -3.05 -1.08253
    endloop
  endfacet
  facet normal 0 -1 0
    outer loop
      vertex -4.02247 -3.05 -1.17462
      vertex 4.02247 -3.05 -1.17462
      vertex 3.825 -3.05 -1.08253
    endloop
  endfacet
  facet normal 0 -1 0
    outer loop
      vertex -4.23294 -3.05 -1.23101
      vertex 4.02247 -3.05 -1.17462
      vertex -4.02247 -3.05 -1.17462
    endloop
  endfacet
  facet normal 0 -1 0
    outer loop
      vertex -4.23294 -3.05 -1.23101
      vertex 4.23294 -3.05 -1.23101
      vertex 4.02247 -3.05 -1.17462
    endloop
  endfacet
  facet normal 0 -1 0
    outer loop
      vertex -10 -3.05 -3.05
      vertex -4.23294 -3.05 -1.23101
      vertex -4.45 -3.05 -1.25
    endloop
  endfacet
  facet normal 0 -1 -0
    outer loop
      vertex -4.23294 -3.05 -1.23101
      vertex -10 -3.05 -3.05
      vertex 4.23294 -3.05 -1.23101
    endloop
  endfacet
  facet normal 0 -1 0
    outer loop
      vertex -4.23294 -3.05 1.23101
      vertex -10 -3.05 6.95
      vertex -4.45 -3.05 1.25
    endloop
  endfacet
  facet normal 0 -1 0
    outer loop
      vertex -10 -3.05 6.95
      vertex -4.66706 -3.05 1.23101
      vertex -4.45 -3.05 1.25
    endloop
  endfacet
  facet normal 0 -1 0
    outer loop
      vertex -10 -3.05 6.95
      vertex -4.87752 -3.05 1.17462
      vertex -4.66706 -3.05 1.23101
    endloop
  endfacet
  facet normal 0 -1 0
    outer loop
      vertex -10 -3.05 6.95
      vertex -5.075 -3.05 1.08253
      vertex -4.87752 -3.05 1.17462
    endloop
  endfacet
  facet normal 0 -1 0
    outer loop
      vertex -10 -3.05 6.95
      vertex -5.25348 -3.05 0.957556
      vertex -5.075 -3.05 1.08253
    endloop
  endfacet
  facet normal 0 -1 0
    outer loop
      vertex -10 -3.05 6.95
      vertex -5.40755 -3.05 0.803485
      vertex -5.25348 -3.05 0.957556
    endloop
  endfacet
  facet normal 0 -1 0
    outer loop
      vertex -10 -3.05 6.95
      vertex -5.53253 -3.05 0.625
      vertex -5.40755 -3.05 0.803485
    endloop
  endfacet
  facet normal 0 -1 0
    outer loop
      vertex -10 -3.05 6.95
      vertex -5.62462 -3.05 0.427526
      vertex -5.53253 -3.05 0.625
    endloop
  endfacet
  facet normal 0 -1 0
    outer loop
      vertex -10 -3.05 -3.05
      vertex -5.62462 -3.05 0.427526
      vertex -10 -3.05 6.95
    endloop
  endfacet
  facet normal 0 -1 0
    outer loop
      vertex -5.62462 -3.05 0.427526
      vertex -10 -3.05 -3.05
      vertex -5.68101 -3.05 0.21706
    endloop
  endfacet
  facet normal 0 -1 0
    outer loop
      vertex -5.68101 -3.05 0.21706
      vertex -10 -3.05 -3.05
      vertex -5.7 -3.05 1.90735e-07
    endloop
  endfacet
  facet normal 0 -1 -0
    outer loop
      vertex -5.7 -3.05 1.90735e-07
      vertex -10 -3.05 -3.05
      vertex -5.68101 -3.05 -0.21706
    endloop
  endfacet
  facet normal 0 -1 -0
    outer loop
      vertex -5.68101 -3.05 -0.21706
      vertex -10 -3.05 -3.05
      vertex -5.62462 -3.05 -0.427524
    endloop
  endfacet
  facet normal 0 -1 0
    outer loop
      vertex 10 -3.05 -3.05
      vertex 4.23294 -3.05 -1.23101
      vertex -10 -3.05 -3.05
    endloop
  endfacet
  facet normal 0 -1 -0
    outer loop
      vertex -4.66706 -3.05 -1.23101
      vertex -10 -3.05 -3.05
      vertex -4.45 -3.05 -1.25
    endloop
  endfacet
  facet normal 0 -1 -0
    outer loop
      vertex -4.87752 -3.05 -1.17462
      vertex -10 -3.05 -3.05
      vertex -4.66706 -3.05 -1.23101
    endloop
  endfacet
  facet normal 0 -1 -0
    outer loop
      vertex -5.075 -3.05 -1.08253
      vertex -10 -3.05 -3.05
      vertex -4.87752 -3.05 -1.17462
    endloop
  endfacet
  facet normal 0 -1 -0
    outer loop
      vertex -5.25348 -3.05 -0.957555
      vertex -10 -3.05 -3.05
      vertex -5.075 -3.05 -1.08253
    endloop
  endfacet
  facet normal 0 -1 -0
    outer loop
      vertex -5.40755 -3.05 -0.803484
      vertex -10 -3.05 -3.05
      vertex -5.25348 -3.05 -0.957555
    endloop
  endfacet
  facet normal 0 -1 -0
    outer loop
      vertex -5.53253 -3.05 -0.625
      vertex -10 -3.05 -3.05
      vertex -5.40755 -3.05 -0.803484
    endloop
  endfacet
  facet normal 0 -1 -0
    outer loop
      vertex -5.62462 -3.05 -0.427524
      vertex -10 -3.05 -3.05
      vertex -5.53253 -3.05 -0.625
    endloop
  endfacet
  facet normal 0 -1 0
    outer loop
      vertex -4.02247 -3.05 1.17462
      vertex -10 -3.05 6.95
      vertex -4.23294 -3.05 1.23101
    endloop
  endfacet
  facet normal 0 -1 0
    outer loop
      vertex 4.66706 -3.05 1.23101
      vertex 10 -3.05 6.95
      vertex 4.45 -3.05 1.25
    endloop
  endfacet
  facet normal 0 -1 0
    outer loop
      vertex 4.87752 -3.05 1.17462
      vertex 10 -3.05 6.95
      vertex 4.66706 -3.05 1.23101
    endloop
  endfacet
  facet normal 0 -1 0
    outer loop
      vertex 5.075 -3.05 1.08253
      vertex 10 -3.05 6.95
      vertex 4.87752 -3.05 1.17462
    endloop
  endfacet
  facet normal 0 -1 0
    outer loop
      vertex 5.25348 -3.05 0.957556
      vertex 10 -3.05 6.95
      vertex 5.075 -3.05 1.08253
    endloop
  endfacet
  facet normal 0 -1 0
    outer loop
      vertex 5.40755 -3.05 0.803485
      vertex 10 -3.05 6.95
      vertex 5.25348 -3.05 0.957556
    endloop
  endfacet
  facet normal 0 -1 0
    outer loop
      vertex 5.53253 -3.05 0.625
      vertex 10 -3.05 6.95
      vertex 5.40755 -3.05 0.803485
    endloop
  endfacet
  facet normal 0 -1 0
    outer loop
      vertex 5.62462 -3.05 0.427526
      vertex 10 -3.05 6.95
      vertex 5.53253 -3.05 0.625
    endloop
  endfacet
  facet normal 0 -1 0
    outer loop
      vertex 10 -3.05 -3.05
      vertex 5.62462 -3.05 0.427526
      vertex 5.68101 -3.05 0.21706
    endloop
  endfacet
  facet normal 0 -1 0
    outer loop
      vertex 10 -3.05 -3.05
      vertex 5.68101 -3.05 0.21706
      vertex 5.7 -3.05 1.90735e-07
    endloop
  endfacet
  facet normal 0 -1 0
    outer loop
      vertex 10 -3.05 -3.05
      vertex 5.7 -3.05 1.90735e-07
      vertex 5.68101 -3.05 -0.21706
    endloop
  endfacet
  facet normal 0 -1 0
    outer loop
      vertex 10 -3.05 -3.05
      vertex 5.68101 -3.05 -0.21706
      vertex 5.62462 -3.05 -0.427524
    endloop
  endfacet
  facet normal 0 -1 0
    outer loop
      vertex 10 -3.05 -3.05
      vertex 5.62462 -3.05 -0.427524
      vertex 5.53253 -3.05 -0.625
    endloop
  endfacet
  facet normal 0 -1 0
    outer loop
      vertex 4.23294 -3.05 -1.23101
      vertex 10 -3.05 -3.05
      vertex 4.45 -3.05 -1.25
    endloop
  endfacet
  facet normal 0 -1 0
    outer loop
      vertex 5.62462 -3.05 0.427526
      vertex 10 -3.05 -3.05
      vertex 10 -3.05 6.95
    endloop
  endfacet
  facet normal 0 -1 0
    outer loop
      vertex 5.40755 -3.05 -0.803484
      vertex 10 -3.05 -3.05
      vertex 5.53253 -3.05 -0.625
    endloop
  endfacet
  facet normal 0 -1 0
    outer loop
      vertex 5.25348 -3.05 -0.957555
      vertex 10 -3.05 -3.05
      vertex 5.40755 -3.05 -0.803484
    endloop
  endfacet
  facet normal 0 -1 0
    outer loop
      vertex 5.075 -3.05 -1.08253
      vertex 10 -3.05 -3.05
      vertex 5.25348 -3.05 -0.957555
    endloop
  endfacet
  facet normal 0 -1 0
    outer loop
      vertex 4.87752 -3.05 -1.17462
      vertex 10 -3.05 -3.05
      vertex 5.075 -3.05 -1.08253
    endloop
  endfacet
  facet normal 0 -1 0
    outer loop
      vertex 4.66706 -3.05 -1.23101
      vertex 10 -3.05 -3.05
      vertex 4.87752 -3.05 -1.17462
    endloop
  endfacet
  facet normal 0 -1 0
    outer loop
      vertex 4.45 -3.05 -1.25
      vertex 10 -3.05 -3.05
      vertex 4.66706 -3.05 -1.23101
    endloop
  endfacet
  facet normal 0 1 0
    outer loop
      vertex 10 3.05 6.95
      vertex 4.02247 3.05 1.17462
      vertex -10 3.05 6.95
    endloop
  endfacet
  facet normal 0 1 0
    outer loop
      vertex -10 3.05 6.95
      vertex -4.23294 3.05 1.23101
      vertex -4.45 3.05 1.25
    endloop
  endfacet
  facet normal 0 1 -0
    outer loop
      vertex -4.02247 3.05 1.17462
      vertex -10 3.05 6.95
      vertex 4.02247 3.05 1.17462
    endloop
  endfacet
  facet normal 0 1 0
    outer loop
      vertex -10 3.05 6.95
      vertex -4.02247 3.05 1.17462
      vertex -4.23294 3.05 1.23101
    endloop
  endfacet
  facet normal 0 1 -0
    outer loop
      vertex 3.825 3.05 1.08253
      vertex -4.02247 3.05 1.17462
      vertex 4.02247 3.05 1.17462
    endloop
  endfacet
  facet normal 0 1 0
    outer loop
      vertex 3.825 3.05 1.08253
      vertex -3.825 3.05 1.08253
      vertex -4.02247 3.05 1.17462
    endloop
  endfacet
  facet normal 0 1 -0
    outer loop
      vertex 3.64651 3.05 0.957556
      vertex -3.825 3.05 1.08253
      vertex 3.825 3.05 1.08253
    endloop
  endfacet
  facet normal 0 1 0
    outer loop
      vertex 3.64651 3.05 0.957556
      vertex -3.64651 3.05 0.957556
      vertex -3.825 3.05 1.08253
    endloop
  endfacet
  facet normal 0 1 -0
    outer loop
      vertex 3.49244 3.05 0.803485
      vertex -3.64651 3.05 0.957556
      vertex 3.64651 3.05 0.957556
    endloop
  endfacet
  facet normal 0 1 0
    outer loop
      vertex 3.49244 3.05 0.803485
      vertex -3.49244 3.05 0.803485
      vertex -3.64651 3.05 0.957556
    endloop
  endfacet
  facet normal 0 1 -0
    outer loop
      vertex 3.36747 3.05 0.625
      vertex -3.49244 3.05 0.803485
      vertex 3.49244 3.05 0.803485
    endloop
  endfacet
  facet normal 0 1 0
    outer loop
      vertex 3.36747 3.05 0.625
      vertex -3.36747 3.05 0.625
      vertex -3.49244 3.05 0.803485
    endloop
  endfacet
  facet normal 0 1 -0
    outer loop
      vertex 3.27538 3.05 0.427526
      vertex -3.36747 3.05 0.625
      vertex 3.36747 3.05 0.625
    endloop
  endfacet
  facet normal 0 1 0
    outer loop
      vertex 3.27538 3.05 0.427526
      vertex -3.27538 3.05 0.427526
      vertex -3.36747 3.05 0.625
    endloop
  endfacet
  facet normal 0 1 -0
    outer loop
      vertex 3.21899 3.05 0.21706
      vertex -3.27538 3.05 0.427526
      vertex 3.27538 3.05 0.427526
    endloop
  endfacet
  facet normal 0 1 0
    outer loop
      vertex 3.21899 3.05 0.21706
      vertex -3.21899 3.05 0.21706
      vertex -3.27538 3.05 0.427526
    endloop
  endfacet
  facet normal 0 1 -0
    outer loop
      vertex 3.2 3.05 1.90735e-07
      vertex -3.21899 3.05 0.21706
      vertex 3.21899 3.05 0.21706
    endloop
  endfacet
  facet normal 0 1 0
    outer loop
      vertex 3.2 3.05 1.90735e-07
      vertex -3.2 3.05 1.90735e-07
      vertex -3.21899 3.05 0.21706
    endloop
  endfacet
  facet normal 0 1 0
    outer loop
      vertex 3.21899 3.05 -0.21706
      vertex -3.2 3.05 1.90735e-07
      vertex 3.2 3.05 1.90735e-07
    endloop
  endfacet
  facet normal 0 1 0
    outer loop
      vertex 3.21899 3.05 -0.21706
      vertex -3.21899 3.05 -0.21706
      vertex -3.2 3.05 1.90735e-07
    endloop
  endfacet
  facet normal 0 1 0
    outer loop
      vertex 3.27538 3.05 -0.427524
      vertex -3.21899 3.05 -0.21706
      vertex 3.21899 3.05 -0.21706
    endloop
  endfacet
  facet normal 0 1 0
    outer loop
      vertex 3.27538 3.05 -0.427524
      vertex -3.27538 3.05 -0.427524
      vertex -3.21899 3.05 -0.21706
    endloop
  endfacet
  facet normal 0 1 0
    outer loop
      vertex 3.36747 3.05 -0.625
      vertex -3.27538 3.05 -0.427524
      vertex 3.27538 3.05 -0.427524
    endloop
  endfacet
  facet normal 0 1 0
    outer loop
      vertex 3.36747 3.05 -0.625
      vertex -3.36747 3.05 -0.625
      vertex -3.27538 3.05 -0.427524
    endloop
  endfacet
  facet normal 0 1 0
    outer loop
      vertex 3.49244 3.05 -0.803484
      vertex -3.36747 3.05 -0.625
      vertex 3.36747 3.05 -0.625
    endloop
  endfacet
  facet normal 0 1 0
    outer loop
      vertex 3.49244 3.05 -0.803484
      vertex -3.49244 3.05 -0.803484
      vertex -3.36747 3.05 -0.625
    endloop
  endfacet
  facet normal 0 1 0
    outer loop
      vertex 3.64651 3.05 -0.957555
      vertex -3.49244 3.05 -0.803484
      vertex 3.49244 3.05 -0.803484
    endloop
  endfacet
  facet normal 0 1 0
    outer loop
      vertex 3.64651 3.05 -0.957555
      vertex -3.64651 3.05 -0.957555
      vertex -3.49244 3.05 -0.803484
    endloop
  endfacet
  facet normal 0 1 0
    outer loop
      vertex 3.825 3.05 -1.08253
      vertex -3.64651 3.05 -0.957555
      vertex 3.64651 3.05 -0.957555
    endloop
  endfacet
  facet normal 0 1 0
    outer loop
      vertex 3.825 3.05 -1.08253
      vertex -3.825 3.05 -1.08253
      vertex -3.64651 3.05 -0.957555
    endloop
  endfacet
  facet normal 0 1 0
    outer loop
      vertex 4.02247 3.05 -1.17462
      vertex -3.825 3.05 -1.08253
      vertex 3.825 3.05 -1.08253
    endloop
  endfacet
  facet normal 0 1 0
    outer loop
      vertex 4.02247 3.05 -1.17462
      vertex -4.02247 3.05 -1.17462
      vertex -3.825 3.05 -1.08253
    endloop
  endfacet
  facet normal 0 1 0
    outer loop
      vertex 4.23294 3.05 -1.23101
      vertex -4.02247 3.05 -1.17462
      vertex 4.02247 3.05 -1.17462
    endloop
  endfacet
  facet normal 0 1 0
    outer loop
      vertex 4.23294 3.05 -1.23101
      vertex -4.23294 3.05 -1.23101
      vertex -4.02247 3.05 -1.17462
    endloop
  endfacet
  facet normal 0 1 0
    outer loop
      vertex 10 3.05 -3.05
      vertex 4.23294 3.05 -1.23101
      vertex 4.45 3.05 -1.25
    endloop
  endfacet
  facet normal 0 1 0
    outer loop
      vertex 4.23294 3.05 -1.23101
      vertex 10 3.05 -3.05
      vertex -4.23294 3.05 -1.23101
    endloop
  endfacet
  facet normal 0 1 0
    outer loop
      vertex 4.23294 3.05 1.23101
      vertex 10 3.05 6.95
      vertex 4.45 3.05 1.25
    endloop
  endfacet
  facet normal 0 1 0
    outer loop
      vertex 10 3.05 6.95
      vertex 4.66706 3.05 1.23101
      vertex 4.45 3.05 1.25
    endloop
  endfacet
  facet normal 0 1 0
    outer loop
      vertex 10 3.05 6.95
      vertex 4.87752 3.05 1.17462
      vertex 4.66706 3.05 1.23101
    endloop
  endfacet
  facet normal 0 1 0
    outer loop
      vertex 10 3.05 6.95
      vertex 5.075 3.05 1.08253
      vertex 4.87752 3.05 1.17462
    endloop
  endfacet
  facet normal 0 1 0
    outer loop
      vertex 10 3.05 6.95
      vertex 5.25348 3.05 0.957556
      vertex 5.075 3.05 1.08253
    endloop
  endfacet
  facet normal 0 1 0
    outer loop
      vertex 10 3.05 6.95
      vertex 5.40755 3.05 0.803485
      vertex 5.25348 3.05 0.957556
    endloop
  endfacet
  facet normal 0 1 0
    outer loop
      vertex 10 3.05 6.95
      vertex 5.53253 3.05 0.625
      vertex 5.40755 3.05 0.803485
    endloop
  endfacet
  facet normal 0 1 0
    outer loop
      vertex 10 3.05 6.95
      vertex 5.62462 3.05 0.427526
      vertex 5.53253 3.05 0.625
    endloop
  endfacet
  facet normal 0 1 -0
    outer loop
      vertex 10 3.05 -3.05
      vertex 5.62462 3.05 0.427526
      vertex 10 3.05 6.95
    endloop
  endfacet
  facet normal 0 1 0
    outer loop
      vertex 5.62462 3.05 0.427526
      vertex 10 3.05 -3.05
      vertex 5.68101 3.05 0.21706
    endloop
  endfacet
  facet normal 0 1 0
    outer loop
      vertex 5.68101 3.05 0.21706
      vertex 10 3.05 -3.05
      vertex 5.7 3.05 1.90735e-07
    endloop
  endfacet
  facet normal 0 1 0
    outer loop
      vertex 5.7 3.05 1.90735e-07
      vertex 10 3.05 -3.05
      vertex 5.68101 3.05 -0.21706
    endloop
  endfacet
  facet normal 0 1 0
    outer loop
      vertex 5.68101 3.05 -0.21706
      vertex 10 3.05 -3.05
      vertex 5.62462 3.05 -0.427524
    endloop
  endfacet
  facet normal 0 1 0
    outer loop
      vertex -10 3.05 -3.05
      vertex -4.23294 3.05 -1.23101
      vertex 10 3.05 -3.05
    endloop
  endfacet
  facet normal 0 1 0
    outer loop
      vertex 4.66706 3.05 -1.23101
      vertex 10 3.05 -3.05
      vertex 4.45 3.05 -1.25
    endloop
  endfacet
  facet normal 0 1 0
    outer loop
      vertex 4.87752 3.05 -1.17462
      vertex 10 3.05 -3.05
      vertex 4.66706 3.05 -1.23101
    endloop
  endfacet
  facet normal 0 1 0
    outer loop
      vertex 5.075 3.05 -1.08253
      vertex 10 3.05 -3.05
      vertex 4.87752 3.05 -1.17462
    endloop
  endfacet
  facet normal 0 1 0
    outer loop
      vertex 5.25348 3.05 -0.957555
      vertex 10 3.05 -3.05
      vertex 5.075 3.05 -1.08253
    endloop
  endfacet
  facet normal 0 1 0
    outer loop
      vertex 5.40755 3.05 -0.803484
      vertex 10 3.05 -3.05
      vertex 5.25348 3.05 -0.957555
    endloop
  endfacet
  facet normal 0 1 0
    outer loop
      vertex 5.53253 3.05 -0.625
      vertex 10 3.05 -3.05
      vertex 5.40755 3.05 -0.803484
    endloop
  endfacet
  facet normal 0 1 0
    outer loop
      vertex 5.62462 3.05 -0.427524
      vertex 10 3.05 -3.05
      vertex 5.53253 3.05 -0.625
    endloop
  endfacet
  facet normal 0 1 0
    outer loop
      vertex 4.02247 3.05 1.17462
      vertex 10 3.05 6.95
      vertex 4.23294 3.05 1.23101
    endloop
  endfacet
  facet normal 0 1 -0
    outer loop
      vertex -4.66706 3.05 1.23101
      vertex -10 3.05 6.95
      vertex -4.45 3.05 1.25
    endloop
  endfacet
  facet normal 0 1 -0
    outer loop
      vertex -4.87752 3.05 1.17462
      vertex -10 3.05 6.95
      vertex -4.66706 3.05 1.23101
    endloop
  endfacet
  facet normal 0 1 -0
    outer loop
      vertex -5.075 3.05 1.08253
      vertex -10 3.05 6.95
      vertex -4.87752 3.05 1.17462
    endloop
  endfacet
  facet normal 0 1 -0
    outer loop
      vertex -5.25348 3.05 0.957556
      vertex -10 3.05 6.95
      vertex -5.075 3.05 1.08253
    endloop
  endfacet
  facet normal 0 1 -0
    outer loop
      vertex -5.40755 3.05 0.803485
      vertex -10 3.05 6.95
      vertex -5.25348 3.05 0.957556
    endloop
  endfacet
  facet normal 0 1 -0
    outer loop
      vertex -5.53253 3.05 0.625
      vertex -10 3.05 6.95
      vertex -5.40755 3.05 0.803485
    endloop
  endfacet
  facet normal 0 1 -0
    outer loop
      vertex -5.62462 3.05 0.427526
      vertex -10 3.05 6.95
      vertex -5.53253 3.05 0.625
    endloop
  endfacet
  facet normal 0 1 0
    outer loop
      vertex -10 3.05 -3.05
      vertex -5.62462 3.05 0.427526
      vertex -5.68101 3.05 0.21706
    endloop
  endfacet
  facet normal 0 1 0
    outer loop
      vertex -10 3.05 -3.05
      vertex -5.68101 3.05 0.21706
      vertex -5.7 3.05 1.90735e-07
    endloop
  endfacet
  facet normal 0 1 0
    outer loop
      vertex -10 3.05 -3.05
      vertex -5.7 3.05 1.90735e-07
      vertex -5.68101 3.05 -0.21706
    endloop
  endfacet
  facet normal 0 1 0
    outer loop
      vertex -10 3.05 -3.05
      vertex -5.68101 3.05 -0.21706
      vertex -5.62462 3.05 -0.427524
    endloop
  endfacet
  facet normal 0 1 0
    outer loop
      vertex -10 3.05 -3.05
      vertex -5.62462 3.05 -0.427524
      vertex -5.53253 3.05 -0.625
    endloop
  endfacet
  facet normal 0 1 0
    outer loop
      vertex -4.23294 3.05 -1.23101
      vertex -10 3.05 -3.05
      vertex -4.45 3.05 -1.25
    endloop
  endfacet
  facet normal 0 1 0
    outer loop
      vertex -5.62462 3.05 0.427526
      vertex -10 3.05 -3.05
      vertex -10 3.05 6.95
    endloop
  endfacet
  facet normal 0 1 0
    outer loop
      vertex -5.40755 3.05 -0.803484
      vertex -10 3.05 -3.05
      vertex -5.53253 3.05 -0.625
    endloop
  endfacet
  facet normal 0 1 0
    outer loop
      vertex -5.25348 3.05 -0.957555
      vertex -10 3.05 -3.05
      vertex -5.40755 3.05 -0.803484
    endloop
  endfacet
  facet normal 0 1 0
    outer loop
      vertex -5.075 3.05 -1.08253
      vertex -10 3.05 -3.05
      vertex -5.25348 3.05 -0.957555
    endloop
  endfacet
  facet normal 0 1 0
    outer loop
      vertex -4.87752 3.05 -1.17462
      vertex -10 3.05 -3.05
      vertex -5.075 3.05 -1.08253
    endloop
  endfacet
  facet normal 0 1 0
    outer loop
      vertex -4.66706 3.05 -1.23101
      vertex -10 3.05 -3.05
      vertex -4.87752 3.05 -1.17462
    endloop
  endfacet
  facet normal 0 1 0
    outer loop
      vertex -4.45 3.05 -1.25
      vertex -10 3.05 -3.05
      vertex -4.66706 3.05 -1.23101
    endloop
  endfacet
  facet normal -0.996195 0 -0.0871567
    outer loop
      vertex 5.7 -3.05 1.90735e-07
      vertex 5.68101 3.05 0.21706
      vertex 5.7 3.05 1.90735e-07
    endloop
  endfacet
  facet normal -0.996195 -0 -0.0871567
    outer loop
      vertex 5.68101 3.05 0.21706
      vertex 5.7 -3.05 1.90735e-07
      vertex 5.68101 -3.05 0.21706
    endloop
  endfacet
  facet normal -0.906308 0 -0.422619
    outer loop
      vertex 5.62462 -3.05 0.427526
      vertex 5.53253 3.05 0.625
      vertex 5.62462 3.05 0.427526
    endloop
  endfacet
  facet normal -0.906308 -0 -0.422619
    outer loop
      vertex 5.53253 3.05 0.625
      vertex 5.62462 -3.05 0.427526
      vertex 5.53253 -3.05 0.625
    endloop
  endfacet
  facet normal 0.422619 0 -0.906308
    outer loop
      vertex 3.825 -3.05 1.08253
      vertex 4.02247 3.05 1.17462
      vertex 4.02247 -3.05 1.17462
    endloop
  endfacet
  facet normal 0.422619 0 -0.906308
    outer loop
      vertex 4.02247 3.05 1.17462
      vertex 3.825 -3.05 1.08253
      vertex 3.825 3.05 1.08253
    endloop
  endfacet
  facet normal 0.965925 0 -0.258821
    outer loop
      vertex 3.27538 -3.05 0.427526
      vertex 3.21899 3.05 0.21706
      vertex 3.27538 3.05 0.427526
    endloop
  endfacet
  facet normal 0.965925 0 -0.258821
    outer loop
      vertex 3.21899 3.05 0.21706
      vertex 3.27538 -3.05 0.427526
      vertex 3.21899 -3.05 0.21706
    endloop
  endfacet
  facet normal -0.996195 0 0.0871567
    outer loop
      vertex 5.68101 -3.05 -0.21706
      vertex 5.7 3.05 1.90735e-07
      vertex 5.68101 3.05 -0.21706
    endloop
  endfacet
  facet normal -0.996195 0 0.0871567
    outer loop
      vertex 5.7 3.05 1.90735e-07
      vertex 5.68101 -3.05 -0.21706
      vertex 5.7 -3.05 1.90735e-07
    endloop
  endfacet
  facet normal -0.819151 0 -0.573578
    outer loop
      vertex 5.53253 -3.05 0.625
      vertex 5.40755 3.05 0.803485
      vertex 5.53253 3.05 0.625
    endloop
  endfacet
  facet normal -0.819151 -0 -0.573578
    outer loop
      vertex 5.40755 3.05 0.803485
      vertex 5.53253 -3.05 0.625
      vertex 5.40755 -3.05 0.803485
    endloop
  endfacet
  facet normal 0.0871524 0 -0.996195
    outer loop
      vertex 4.23294 -3.05 1.23101
      vertex 4.45 3.05 1.25
      vertex 4.45 -3.05 1.25
    endloop
  endfacet
  facet normal 0.0871524 0 -0.996195
    outer loop
      vertex 4.45 3.05 1.25
      vertex 4.23294 -3.05 1.23101
      vertex 4.23294 3.05 1.23101
    endloop
  endfacet
  facet normal 0.996195 -0 0.0871524
    outer loop
      vertex 3.2 -3.05 1.90735e-07
      vertex 3.21899 3.05 -0.21706
      vertex 3.2 3.05 1.90735e-07
    endloop
  endfacet
  facet normal 0.996195 0 0.0871524
    outer loop
      vertex 3.21899 3.05 -0.21706
      vertex 3.2 -3.05 1.90735e-07
      vertex 3.21899 -3.05 -0.21706
    endloop
  endfacet
  facet normal 0.707107 0 -0.707107
    outer loop
      vertex 3.64651 -3.05 0.957556
      vertex 3.49244 3.05 0.803485
      vertex 3.64651 3.05 0.957556
    endloop
  endfacet
  facet normal 0.707107 0 -0.707107
    outer loop
      vertex 3.49244 3.05 0.803485
      vertex 3.64651 -3.05 0.957556
      vertex 3.49244 -3.05 0.803485
    endloop
  endfacet
  facet normal 0.0871567 0 0.996195
    outer loop
      vertex 4.23294 3.05 -1.23101
      vertex 4.45 -3.05 -1.25
      vertex 4.45 3.05 -1.25
    endloop
  endfacet
  facet normal 0.0871567 0 0.996195
    outer loop
      vertex 4.45 -3.05 -1.25
      vertex 4.23294 3.05 -1.23101
      vertex 4.23294 -3.05 -1.23101
    endloop
  endfacet
  facet normal -0.965926 0 -0.258817
    outer loop
      vertex 5.68101 -3.05 0.21706
      vertex 5.62462 3.05 0.427526
      vertex 5.68101 3.05 0.21706
    endloop
  endfacet
  facet normal -0.965926 -0 -0.258817
    outer loop
      vertex 5.62462 3.05 0.427526
      vertex 5.68101 -3.05 0.21706
      vertex 5.62462 -3.05 0.427526
    endloop
  endfacet
  facet normal -0.573578 0 -0.819151
    outer loop
      vertex 5.075 -3.05 1.08253
      vertex 5.25348 3.05 0.957556
      vertex 5.25348 -3.05 0.957556
    endloop
  endfacet
  facet normal -0.573578 0 -0.819151
    outer loop
      vertex 5.25348 3.05 0.957556
      vertex 5.075 -3.05 1.08253
      vertex 5.075 3.05 1.08253
    endloop
  endfacet
  facet normal -0.0871524 0 -0.996195
    outer loop
      vertex 4.45 -3.05 1.25
      vertex 4.66706 3.05 1.23101
      vertex 4.66706 -3.05 1.23101
    endloop
  endfacet
  facet normal -0.0871524 0 -0.996195
    outer loop
      vertex 4.66706 3.05 1.23101
      vertex 4.45 -3.05 1.25
      vertex 4.45 3.05 1.25
    endloop
  endfacet
  facet normal -0.422617 0 -0.906308
    outer loop
      vertex 4.87752 -3.05 1.17462
      vertex 5.075 3.05 1.08253
      vertex 5.075 -3.05 1.08253
    endloop
  endfacet
  facet normal -0.422617 0 -0.906308
    outer loop
      vertex 5.075 3.05 1.08253
      vertex 4.87752 -3.05 1.17462
      vertex 4.87752 3.05 1.17462
    endloop
  endfacet
  facet normal -0.258822 0 -0.965925
    outer loop
      vertex 4.66706 -3.05 1.23101
      vertex 4.87752 3.05 1.17462
      vertex 4.87752 -3.05 1.17462
    endloop
  endfacet
  facet normal -0.258822 0 -0.965925
    outer loop
      vertex 4.87752 3.05 1.17462
      vertex 4.66706 -3.05 1.23101
      vertex 4.66706 3.05 1.23101
    endloop
  endfacet
  facet normal 0.996195 0 -0.0871524
    outer loop
      vertex 3.21899 -3.05 0.21706
      vertex 3.2 3.05 1.90735e-07
      vertex 3.21899 3.05 0.21706
    endloop
  endfacet
  facet normal 0.996195 0 -0.0871524
    outer loop
      vertex 3.2 3.05 1.90735e-07
      vertex 3.21899 -3.05 0.21706
      vertex 3.2 -3.05 1.90735e-07
    endloop
  endfacet
  facet normal 0.819153 0 -0.573575
    outer loop
      vertex 3.49244 -3.05 0.803485
      vertex 3.36747 3.05 0.625
      vertex 3.49244 3.05 0.803485
    endloop
  endfacet
  facet normal 0.819153 0 -0.573575
    outer loop
      vertex 3.36747 3.05 0.625
      vertex 3.49244 -3.05 0.803485
      vertex 3.36747 -3.05 0.625
    endloop
  endfacet
  facet normal 0.258821 0 -0.965925
    outer loop
      vertex 4.02247 -3.05 1.17462
      vertex 4.23294 3.05 1.23101
      vertex 4.23294 -3.05 1.23101
    endloop
  endfacet
  facet normal 0.258821 0 -0.965925
    outer loop
      vertex 4.23294 3.05 1.23101
      vertex 4.02247 -3.05 1.17462
      vertex 4.02247 3.05 1.17462
    endloop
  endfacet
  facet normal 0.573576 0 -0.819153
    outer loop
      vertex 3.64651 -3.05 0.957556
      vertex 3.825 3.05 1.08253
      vertex 3.825 -3.05 1.08253
    endloop
  endfacet
  facet normal 0.573576 0 -0.819153
    outer loop
      vertex 3.825 3.05 1.08253
      vertex 3.64651 -3.05 0.957556
      vertex 3.64651 3.05 0.957556
    endloop
  endfacet
  facet normal -0.906308 0 0.422617
    outer loop
      vertex 5.53253 -3.05 -0.625
      vertex 5.62462 3.05 -0.427524
      vertex 5.53253 3.05 -0.625
    endloop
  endfacet
  facet normal -0.906308 0 0.422617
    outer loop
      vertex 5.62462 3.05 -0.427524
      vertex 5.53253 -3.05 -0.625
      vertex 5.62462 -3.05 -0.427524
    endloop
  endfacet
  facet normal 0.965925 -0 0.258822
    outer loop
      vertex 3.21899 -3.05 -0.21706
      vertex 3.27538 3.05 -0.427524
      vertex 3.21899 3.05 -0.21706
    endloop
  endfacet
  facet normal 0.965925 0 0.258822
    outer loop
      vertex 3.27538 3.05 -0.427524
      vertex 3.21899 -3.05 -0.21706
      vertex 3.27538 -3.05 -0.427524
    endloop
  endfacet
  facet normal -0.0871567 0 0.996195
    outer loop
      vertex 4.45 3.05 -1.25
      vertex 4.66706 -3.05 -1.23101
      vertex 4.66706 3.05 -1.23101
    endloop
  endfacet
  facet normal -0.0871567 0 0.996195
    outer loop
      vertex 4.66706 -3.05 -1.23101
      vertex 4.45 3.05 -1.25
      vertex 4.45 -3.05 -1.25
    endloop
  endfacet
  facet normal -0.258818 0 0.965926
    outer loop
      vertex 4.66706 3.05 -1.23101
      vertex 4.87752 -3.05 -1.17462
      vertex 4.87752 3.05 -1.17462
    endloop
  endfacet
  facet normal -0.258818 0 0.965926
    outer loop
      vertex 4.87752 -3.05 -1.17462
      vertex 4.66706 3.05 -1.23101
      vertex 4.66706 -3.05 -1.23101
    endloop
  endfacet
  facet normal -0.422617 0 0.906308
    outer loop
      vertex 4.87752 3.05 -1.17462
      vertex 5.075 -3.05 -1.08253
      vertex 5.075 3.05 -1.08253
    endloop
  endfacet
  facet normal -0.422617 0 0.906308
    outer loop
      vertex 5.075 -3.05 -1.08253
      vertex 4.87752 3.05 -1.17462
      vertex 4.87752 -3.05 -1.17462
    endloop
  endfacet
  facet normal -0.707107 0 -0.707107
    outer loop
      vertex 5.40755 -3.05 0.803485
      vertex 5.25348 3.05 0.957556
      vertex 5.40755 3.05 0.803485
    endloop
  endfacet
  facet normal -0.707107 -0 -0.707107
    outer loop
      vertex 5.25348 3.05 0.957556
      vertex 5.40755 -3.05 0.803485
      vertex 5.25348 -3.05 0.957556
    endloop
  endfacet
  facet normal 0.906308 0 -0.422619
    outer loop
      vertex 3.36747 -3.05 0.625
      vertex 3.27538 3.05 0.427526
      vertex 3.36747 3.05 0.625
    endloop
  endfacet
  facet normal 0.906308 0 -0.422619
    outer loop
      vertex 3.27538 3.05 0.427526
      vertex 3.36747 -3.05 0.625
      vertex 3.27538 -3.05 0.427526
    endloop
  endfacet
  facet normal -0.965926 0 0.258818
    outer loop
      vertex 5.62462 -3.05 -0.427524
      vertex 5.68101 3.05 -0.21706
      vertex 5.62462 3.05 -0.427524
    endloop
  endfacet
  facet normal -0.965926 0 0.258818
    outer loop
      vertex 5.68101 3.05 -0.21706
      vertex 5.62462 -3.05 -0.427524
      vertex 5.68101 -3.05 -0.21706
    endloop
  endfacet
  facet normal 0.258817 0 0.965926
    outer loop
      vertex 4.02247 3.05 -1.17462
      vertex 4.23294 -3.05 -1.23101
      vertex 4.23294 3.05 -1.23101
    endloop
  endfacet
  facet normal 0.258817 0 0.965926
    outer loop
      vertex 4.23294 -3.05 -1.23101
      vertex 4.02247 3.05 -1.17462
      vertex 4.02247 -3.05 -1.17462
    endloop
  endfacet
  facet normal 0.573578 0 0.819151
    outer loop
      vertex 3.64651 3.05 -0.957555
      vertex 3.825 -3.05 -1.08253
      vertex 3.825 3.05 -1.08253
    endloop
  endfacet
  facet normal 0.573578 0 0.819151
    outer loop
      vertex 3.825 -3.05 -1.08253
      vertex 3.64651 3.05 -0.957555
      vertex 3.64651 -3.05 -0.957555
    endloop
  endfacet
  facet normal 0.422619 0 0.906308
    outer loop
      vertex 3.825 3.05 -1.08253
      vertex 4.02247 -3.05 -1.17462
      vertex 4.02247 3.05 -1.17462
    endloop
  endfacet
  facet normal 0.422619 0 0.906308
    outer loop
      vertex 4.02247 -3.05 -1.17462
      vertex 3.825 3.05 -1.08253
      vertex 3.825 -3.05 -1.08253
    endloop
  endfacet
  facet normal 0.906308 -0 0.422617
    outer loop
      vertex 3.27538 -3.05 -0.427524
      vertex 3.36747 3.05 -0.625
      vertex 3.27538 3.05 -0.427524
    endloop
  endfacet
  facet normal 0.906308 0 0.422617
    outer loop
      vertex 3.36747 3.05 -0.625
      vertex 3.27538 -3.05 -0.427524
      vertex 3.36747 -3.05 -0.625
    endloop
  endfacet
  facet normal 0.707107 -0 0.707107
    outer loop
      vertex 3.49244 -3.05 -0.803484
      vertex 3.64651 3.05 -0.957555
      vertex 3.49244 3.05 -0.803484
    endloop
  endfacet
  facet normal 0.707107 0 0.707107
    outer loop
      vertex 3.64651 3.05 -0.957555
      vertex 3.49244 -3.05 -0.803484
      vertex 3.64651 -3.05 -0.957555
    endloop
  endfacet
  facet normal -0.57358 0 0.819149
    outer loop
      vertex 5.075 3.05 -1.08253
      vertex 5.25348 -3.05 -0.957555
      vertex 5.25348 3.05 -0.957555
    endloop
  endfacet
  facet normal -0.57358 0 0.819149
    outer loop
      vertex 5.25348 -3.05 -0.957555
      vertex 5.075 3.05 -1.08253
      vertex 5.075 -3.05 -1.08253
    endloop
  endfacet
  facet normal 0.819151 -0 0.573577
    outer loop
      vertex 3.36747 -3.05 -0.625
      vertex 3.49244 3.05 -0.803484
      vertex 3.36747 3.05 -0.625
    endloop
  endfacet
  facet normal 0.819151 0 0.573577
    outer loop
      vertex 3.49244 3.05 -0.803484
      vertex 3.36747 -3.05 -0.625
      vertex 3.49244 -3.05 -0.803484
    endloop
  endfacet
  facet normal -0.707107 0 0.707107
    outer loop
      vertex 5.25348 -3.05 -0.957555
      vertex 5.40755 3.05 -0.803484
      vertex 5.25348 3.05 -0.957555
    endloop
  endfacet
  facet normal -0.707107 0 0.707107
    outer loop
      vertex 5.40755 3.05 -0.803484
      vertex 5.25348 -3.05 -0.957555
      vertex 5.40755 -3.05 -0.803484
    endloop
  endfacet
  facet normal -0.819149 0 0.57358
    outer loop
      vertex 5.40755 -3.05 -0.803484
      vertex 5.53253 3.05 -0.625
      vertex 5.40755 3.05 -0.803484
    endloop
  endfacet
  facet normal -0.819149 0 0.57358
    outer loop
      vertex 5.53253 3.05 -0.625
      vertex 5.40755 -3.05 -0.803484
      vertex 5.53253 -3.05 -0.625
    endloop
  endfacet
  facet normal -0.996195 0 -0.0871524
    outer loop
      vertex -3.2 -3.05 1.90735e-07
      vertex -3.21899 3.05 0.21706
      vertex -3.2 3.05 1.90735e-07
    endloop
  endfacet
  facet normal -0.996195 -0 -0.0871524
    outer loop
      vertex -3.21899 3.05 0.21706
      vertex -3.2 -3.05 1.90735e-07
      vertex -3.21899 -3.05 0.21706
    endloop
  endfacet
  facet normal -0.996195 0 0.0871524
    outer loop
      vertex -3.21899 -3.05 -0.21706
      vertex -3.2 3.05 1.90735e-07
      vertex -3.21899 3.05 -0.21706
    endloop
  endfacet
  facet normal -0.996195 0 0.0871524
    outer loop
      vertex -3.2 3.05 1.90735e-07
      vertex -3.21899 -3.05 -0.21706
      vertex -3.2 -3.05 1.90735e-07
    endloop
  endfacet
  facet normal 0.422617 0 0.906308
    outer loop
      vertex -5.075 3.05 -1.08253
      vertex -4.87752 -3.05 -1.17462
      vertex -4.87752 3.05 -1.17462
    endloop
  endfacet
  facet normal 0.422617 0 0.906308
    outer loop
      vertex -4.87752 -3.05 -1.17462
      vertex -5.075 3.05 -1.08253
      vertex -5.075 -3.05 -1.08253
    endloop
  endfacet
  facet normal -0.573576 0 -0.819153
    outer loop
      vertex -3.825 -3.05 1.08253
      vertex -3.64651 3.05 0.957556
      vertex -3.64651 -3.05 0.957556
    endloop
  endfacet
  facet normal -0.573576 0 -0.819153
    outer loop
      vertex -3.64651 3.05 0.957556
      vertex -3.825 -3.05 1.08253
      vertex -3.825 3.05 1.08253
    endloop
  endfacet
  facet normal 0.422617 0 -0.906308
    outer loop
      vertex -5.075 -3.05 1.08253
      vertex -4.87752 3.05 1.17462
      vertex -4.87752 -3.05 1.17462
    endloop
  endfacet
  facet normal 0.422617 0 -0.906308
    outer loop
      vertex -4.87752 3.05 1.17462
      vertex -5.075 -3.05 1.08253
      vertex -5.075 3.05 1.08253
    endloop
  endfacet
  facet normal 0.906308 0 -0.422619
    outer loop
      vertex -5.53253 -3.05 0.625
      vertex -5.62462 3.05 0.427526
      vertex -5.53253 3.05 0.625
    endloop
  endfacet
  facet normal 0.906308 0 -0.422619
    outer loop
      vertex -5.62462 3.05 0.427526
      vertex -5.53253 -3.05 0.625
      vertex -5.62462 -3.05 0.427526
    endloop
  endfacet
  facet normal -0.906308 0 -0.422619
    outer loop
      vertex -3.27538 -3.05 0.427526
      vertex -3.36747 3.05 0.625
      vertex -3.27538 3.05 0.427526
    endloop
  endfacet
  facet normal -0.906308 -0 -0.422619
    outer loop
      vertex -3.36747 3.05 0.625
      vertex -3.27538 -3.05 0.427526
      vertex -3.36747 -3.05 0.625
    endloop
  endfacet
  facet normal -0.707107 0 -0.707107
    outer loop
      vertex -3.49244 -3.05 0.803485
      vertex -3.64651 3.05 0.957556
      vertex -3.49244 3.05 0.803485
    endloop
  endfacet
  facet normal -0.707107 -0 -0.707107
    outer loop
      vertex -3.64651 3.05 0.957556
      vertex -3.49244 -3.05 0.803485
      vertex -3.64651 -3.05 0.957556
    endloop
  endfacet
  facet normal 0.0871524 0 -0.996195
    outer loop
      vertex -4.66706 -3.05 1.23101
      vertex -4.45 3.05 1.25
      vertex -4.45 -3.05 1.25
    endloop
  endfacet
  facet normal 0.0871524 0 -0.996195
    outer loop
      vertex -4.45 3.05 1.25
      vertex -4.66706 -3.05 1.23101
      vertex -4.66706 3.05 1.23101
    endloop
  endfacet
  facet normal 0.996195 0 -0.0871567
    outer loop
      vertex -5.68101 -3.05 0.21706
      vertex -5.7 3.05 1.90735e-07
      vertex -5.68101 3.05 0.21706
    endloop
  endfacet
  facet normal 0.996195 0 -0.0871567
    outer loop
      vertex -5.7 3.05 1.90735e-07
      vertex -5.68101 -3.05 0.21706
      vertex -5.7 -3.05 1.90735e-07
    endloop
  endfacet
  facet normal 0.819151 0 -0.573578
    outer loop
      vertex -5.40755 -3.05 0.803485
      vertex -5.53253 3.05 0.625
      vertex -5.40755 3.05 0.803485
    endloop
  endfacet
  facet normal 0.819151 0 -0.573578
    outer loop
      vertex -5.53253 3.05 0.625
      vertex -5.40755 -3.05 0.803485
      vertex -5.53253 -3.05 0.625
    endloop
  endfacet
  facet normal 0.707107 0 -0.707107
    outer loop
      vertex -5.25348 -3.05 0.957556
      vertex -5.40755 3.05 0.803485
      vertex -5.25348 3.05 0.957556
    endloop
  endfacet
  facet normal 0.707107 0 -0.707107
    outer loop
      vertex -5.40755 3.05 0.803485
      vertex -5.25348 -3.05 0.957556
      vertex -5.40755 -3.05 0.803485
    endloop
  endfacet
  facet normal -0.422619 0 0.906308
    outer loop
      vertex -4.02247 3.05 -1.17462
      vertex -3.825 -3.05 -1.08253
      vertex -3.825 3.05 -1.08253
    endloop
  endfacet
  facet normal -0.422619 0 0.906308
    outer loop
      vertex -3.825 -3.05 -1.08253
      vertex -4.02247 3.05 -1.17462
      vertex -4.02247 -3.05 -1.17462
    endloop
  endfacet
  facet normal 0.258818 0 0.965926
    outer loop
      vertex -4.87752 3.05 -1.17462
      vertex -4.66706 -3.05 -1.23101
      vertex -4.66706 3.05 -1.23101
    endloop
  endfacet
  facet normal 0.258818 0 0.965926
    outer loop
      vertex -4.66706 -3.05 -1.23101
      vertex -4.87752 3.05 -1.17462
      vertex -4.87752 -3.05 -1.17462
    endloop
  endfacet
  facet normal 0.707107 -0 0.707107
    outer loop
      vertex -5.40755 -3.05 -0.803484
      vertex -5.25348 3.05 -0.957555
      vertex -5.40755 3.05 -0.803484
    endloop
  endfacet
  facet normal 0.707107 0 0.707107
    outer loop
      vertex -5.25348 3.05 -0.957555
      vertex -5.40755 -3.05 -0.803484
      vertex -5.25348 -3.05 -0.957555
    endloop
  endfacet
  facet normal -0.965925 0 -0.258821
    outer loop
      vertex -3.21899 -3.05 0.21706
      vertex -3.27538 3.05 0.427526
      vertex -3.21899 3.05 0.21706
    endloop
  endfacet
  facet normal -0.965925 -0 -0.258821
    outer loop
      vertex -3.27538 3.05 0.427526
      vertex -3.21899 -3.05 0.21706
      vertex -3.27538 -3.05 0.427526
    endloop
  endfacet
  facet normal -0.819153 0 -0.573575
    outer loop
      vertex -3.36747 -3.05 0.625
      vertex -3.49244 3.05 0.803485
      vertex -3.36747 3.05 0.625
    endloop
  endfacet
  facet normal -0.819153 -0 -0.573575
    outer loop
      vertex -3.49244 3.05 0.803485
      vertex -3.36747 -3.05 0.625
      vertex -3.49244 -3.05 0.803485
    endloop
  endfacet
  facet normal -0.0871524 0 -0.996195
    outer loop
      vertex -4.45 -3.05 1.25
      vertex -4.23294 3.05 1.23101
      vertex -4.23294 -3.05 1.23101
    endloop
  endfacet
  facet normal -0.0871524 0 -0.996195
    outer loop
      vertex -4.23294 3.05 1.23101
      vertex -4.45 -3.05 1.25
      vertex -4.45 3.05 1.25
    endloop
  endfacet
  facet normal 0.965926 0 -0.258817
    outer loop
      vertex -5.62462 -3.05 0.427526
      vertex -5.68101 3.05 0.21706
      vertex -5.62462 3.05 0.427526
    endloop
  endfacet
  facet normal 0.965926 0 -0.258817
    outer loop
      vertex -5.68101 3.05 0.21706
      vertex -5.62462 -3.05 0.427526
      vertex -5.68101 -3.05 0.21706
    endloop
  endfacet
  facet normal 0.258822 0 -0.965925
    outer loop
      vertex -4.87752 -3.05 1.17462
      vertex -4.66706 3.05 1.23101
      vertex -4.66706 -3.05 1.23101
    endloop
  endfacet
  facet normal 0.258822 0 -0.965925
    outer loop
      vertex -4.66706 3.05 1.23101
      vertex -4.87752 -3.05 1.17462
      vertex -4.87752 3.05 1.17462
    endloop
  endfacet
  facet normal 0.573578 0 -0.819151
    outer loop
      vertex -5.25348 -3.05 0.957556
      vertex -5.075 3.05 1.08253
      vertex -5.075 -3.05 1.08253
    endloop
  endfacet
  facet normal 0.573578 0 -0.819151
    outer loop
      vertex -5.075 3.05 1.08253
      vertex -5.25348 -3.05 0.957556
      vertex -5.25348 3.05 0.957556
    endloop
  endfacet
  facet normal -0.0871567 0 0.996195
    outer loop
      vertex -4.45 3.05 -1.25
      vertex -4.23294 -3.05 -1.23101
      vertex -4.23294 3.05 -1.23101
    endloop
  endfacet
  facet normal -0.0871567 0 0.996195
    outer loop
      vertex -4.23294 -3.05 -1.23101
      vertex -4.45 3.05 -1.25
      vertex -4.45 -3.05 -1.25
    endloop
  endfacet
  facet normal -0.965925 0 0.258822
    outer loop
      vertex -3.27538 -3.05 -0.427524
      vertex -3.21899 3.05 -0.21706
      vertex -3.27538 3.05 -0.427524
    endloop
  endfacet
  facet normal -0.965925 0 0.258822
    outer loop
      vertex -3.21899 3.05 -0.21706
      vertex -3.27538 -3.05 -0.427524
      vertex -3.21899 -3.05 -0.21706
    endloop
  endfacet
  facet normal -0.819151 0 0.573577
    outer loop
      vertex -3.49244 -3.05 -0.803484
      vertex -3.36747 3.05 -0.625
      vertex -3.49244 3.05 -0.803484
    endloop
  endfacet
  facet normal -0.819151 0 0.573577
    outer loop
      vertex -3.36747 3.05 -0.625
      vertex -3.49244 -3.05 -0.803484
      vertex -3.36747 -3.05 -0.625
    endloop
  endfacet
  facet normal -0.906308 0 0.422617
    outer loop
      vertex -3.36747 -3.05 -0.625
      vertex -3.27538 3.05 -0.427524
      vertex -3.36747 3.05 -0.625
    endloop
  endfacet
  facet normal -0.906308 0 0.422617
    outer loop
      vertex -3.27538 3.05 -0.427524
      vertex -3.36747 -3.05 -0.625
      vertex -3.27538 -3.05 -0.427524
    endloop
  endfacet
  facet normal -0.258817 0 0.965926
    outer loop
      vertex -4.23294 3.05 -1.23101
      vertex -4.02247 -3.05 -1.17462
      vertex -4.02247 3.05 -1.17462
    endloop
  endfacet
  facet normal -0.258817 0 0.965926
    outer loop
      vertex -4.02247 -3.05 -1.17462
      vertex -4.23294 3.05 -1.23101
      vertex -4.23294 -3.05 -1.23101
    endloop
  endfacet
  facet normal -0.573578 0 0.819151
    outer loop
      vertex -3.825 3.05 -1.08253
      vertex -3.64651 -3.05 -0.957555
      vertex -3.64651 3.05 -0.957555
    endloop
  endfacet
  facet normal -0.573578 0 0.819151
    outer loop
      vertex -3.64651 -3.05 -0.957555
      vertex -3.825 3.05 -1.08253
      vertex -3.825 -3.05 -1.08253
    endloop
  endfacet
  facet normal -0.707107 0 0.707107
    outer loop
      vertex -3.64651 -3.05 -0.957555
      vertex -3.49244 3.05 -0.803484
      vertex -3.64651 3.05 -0.957555
    endloop
  endfacet
  facet normal -0.707107 0 0.707107
    outer loop
      vertex -3.49244 3.05 -0.803484
      vertex -3.64651 -3.05 -0.957555
      vertex -3.49244 -3.05 -0.803484
    endloop
  endfacet
  facet normal 0.0871567 0 0.996195
    outer loop
      vertex -4.66706 3.05 -1.23101
      vertex -4.45 -3.05 -1.25
      vertex -4.45 3.05 -1.25
    endloop
  endfacet
  facet normal 0.0871567 0 0.996195
    outer loop
      vertex -4.45 -3.05 -1.25
      vertex -4.66706 3.05 -1.23101
      vertex -4.66706 -3.05 -1.23101
    endloop
  endfacet
  facet normal 0.57358 0 0.819149
    outer loop
      vertex -5.25348 3.05 -0.957555
      vertex -5.075 -3.05 -1.08253
      vertex -5.075 3.05 -1.08253
    endloop
  endfacet
  facet normal 0.57358 0 0.819149
    outer loop
      vertex -5.075 -3.05 -1.08253
      vertex -5.25348 3.05 -0.957555
      vertex -5.25348 -3.05 -0.957555
    endloop
  endfacet
  facet normal 0.996195 -0 0.0871567
    outer loop
      vertex -5.7 -3.05 1.90735e-07
      vertex -5.68101 3.05 -0.21706
      vertex -5.7 3.05 1.90735e-07
    endloop
  endfacet
  facet normal 0.996195 0 0.0871567
    outer loop
      vertex -5.68101 3.05 -0.21706
      vertex -5.7 -3.05 1.90735e-07
      vertex -5.68101 -3.05 -0.21706
    endloop
  endfacet
  facet normal 0.965926 -0 0.258818
    outer loop
      vertex -5.68101 -3.05 -0.21706
      vertex -5.62462 3.05 -0.427524
      vertex -5.68101 3.05 -0.21706
    endloop
  endfacet
  facet normal 0.965926 0 0.258818
    outer loop
      vertex -5.62462 3.05 -0.427524
      vertex -5.68101 -3.05 -0.21706
      vertex -5.62462 -3.05 -0.427524
    endloop
  endfacet
  facet normal 0.906308 -0 0.422617
    outer loop
      vertex -5.62462 -3.05 -0.427524
      vertex -5.53253 3.05 -0.625
      vertex -5.62462 3.05 -0.427524
    endloop
  endfacet
  facet normal 0.906308 0 0.422617
    outer loop
      vertex -5.53253 3.05 -0.625
      vertex -5.62462 -3.05 -0.427524
      vertex -5.53253 -3.05 -0.625
    endloop
  endfacet
  facet normal 0.819149 -0 0.57358
    outer loop
      vertex -5.53253 -3.05 -0.625
      vertex -5.40755 3.05 -0.803484
      vertex -5.53253 3.05 -0.625
    endloop
  endfacet
  facet normal 0.819149 0 0.57358
    outer loop
      vertex -5.40755 3.05 -0.803484
      vertex -5.53253 -3.05 -0.625
      vertex -5.40755 -3.05 -0.803484
    endloop
  endfacet
  facet normal -0.422619 0 -0.906308
    outer loop
      vertex -4.02247 -3.05 1.17462
      vertex -3.825 3.05 1.08253
      vertex -3.825 -3.05 1.08253
    endloop
  endfacet
  facet normal -0.422619 0 -0.906308
    outer loop
      vertex -3.825 3.05 1.08253
      vertex -4.02247 -3.05 1.17462
      vertex -4.02247 3.05 1.17462
    endloop
  endfacet
  facet normal -0.258821 0 -0.965925
    outer loop
      vertex -4.23294 -3.05 1.23101
      vertex -4.02247 3.05 1.17462
      vertex -4.02247 -3.05 1.17462
    endloop
  endfacet
  facet normal -0.258821 0 -0.965925
    outer loop
      vertex -4.02247 3.05 1.17462
      vertex -4.23294 -3.05 1.23101
      vertex -4.23294 3.05 1.23101
    endloop
  endfacet
  facet normal 0.980933 0 0.194345
    outer loop
      vertex 10.3037 2 12.2744
      vertex 10.3037 -2 12.2744
      vertex 10.3715 -2 11.9324
    endloop
  endfacet
  facet normal 0.932285 -0 0.361724
    outer loop
      vertex 10.1776 -2 12.5994
      vertex 10.3037 2 12.2744
      vertex 10.1776 2 12.5994
    endloop
  endfacet
  facet normal 0.932285 0 0.361724
    outer loop
      vertex 10.3037 2 12.2744
      vertex 10.1776 -2 12.5994
      vertex 10.3037 -2 12.2744
    endloop
  endfacet
  facet normal 0.980933 4.63352e-08 0.194344
    outer loop
      vertex 10.3715 2 11.9324
      vertex 10.3037 2 12.2744
      vertex 10.3715 -2 11.9324
    endloop
  endfacet
  facet normal 5.92344e-08 1 -5.44707e-07
    outer loop
      vertex 9.67606 2 10.8509
      vertex 6.46266 2 11.158
      vertex 10.3788 2 11.5839
    endloop
  endfacet
  facet normal 5.92345e-08 1 -5.44706e-07
    outer loop
      vertex 6.46266 2 11.158
      vertex 9.67606 2 10.8509
      vertex 7.30652 2 10.5932
    endloop
  endfacet
  facet normal 1.48579e-06 1 -1.49948e-06
    outer loop
      vertex 9.99501 2 10.8856
      vertex 9.90489 2 10.8758
      vertex 10.3788 2 11.5839
    endloop
  endfacet
  facet normal -0.194341 0 0.980934
    outer loop
      vertex 7.82499 2 13.6367
      vertex 8.16697 -2 13.7045
      vertex 8.16697 2 13.7045
    endloop
  endfacet
  facet normal -0.194341 0 0.980934
    outer loop
      vertex 8.16697 -2 13.7045
      vertex 7.82499 2 13.6367
      vertex 7.82499 -2 13.6367
    endloop
  endfacet
  facet normal -0.988245 0 0.152877
    outer loop
      vertex 6.38757 2 11.8485
      vertex 6.44086 -2 12.1931
      vertex 6.44086 2 12.1931
    endloop
  endfacet
  facet normal -0.988245 0 0.152877
    outer loop
      vertex 6.44086 -2 12.1931
      vertex 6.38757 2 11.8485
      vertex 6.38757 -2 11.8485
    endloop
  endfacet
  facet normal 5.92307e-08 1 -5.44704e-07
    outer loop
      vertex 9.80049 2 10.8644
      vertex 9.67606 2 10.8509
      vertex 10.3788 2 11.5839
    endloop
  endfacet
  facet normal -2.98596e-06 1 -2.96999e-06
    outer loop
      vertex 6.8358 2 10.542
      vertex 6.46266 2 11.158
      vertex 6.90785 2 10.5499
    endloop
  endfacet
  facet normal 0.855305 1.2353e-07 0.518124
    outer loop
      vertex 9.99697 2 12.8976
      vertex 9.99697 -2 12.8976
      vertex 10.1776 2 12.5994
    endloop
  endfacet
  facet normal 7.94474e-07 -1 1.44552e-06
    outer loop
      vertex 9.49559 -2 13.3783
      vertex 9.19007 -2 13.5462
      vertex 10.3037 -2 12.2744
    endloop
  endfacet
  facet normal -0.779407 0 0.626517
    outer loop
      vertex 6.72109 -2 12.8286
      vertex 6.93951 2 13.1003
      vertex 6.72109 2 12.8286
    endloop
  endfacet
  facet normal -0.779407 0 0.626517
    outer loop
      vertex 6.93951 2 13.1003
      vertex 6.72109 -2 12.8286
      vertex 6.93951 -2 13.1003
    endloop
  endfacet
  facet normal -1.25674e-07 -1 6.34338e-07
    outer loop
      vertex 7.82499 -2 13.6367
      vertex 6.38757 -2 11.8485
      vertex 8.16697 -2 13.7045
    endloop
  endfacet
  facet normal -0.518124 0 0.855306
    outer loop
      vertex 7.2018 2 13.33
      vertex 7.49998 -2 13.5106
      vertex 7.49998 2 13.5106
    endloop
  endfacet
  facet normal -0.518124 0 0.855306
    outer loop
      vertex 7.49998 -2 13.5106
      vertex 7.2018 2 13.33
      vertex 7.2018 -2 13.33
    endloop
  endfacet
  facet normal 5.92391e-08 1 -5.44711e-07
    outer loop
      vertex 9.90489 2 10.8758
      vertex 9.80049 2 10.8644
      vertex 10.3788 2 11.5839
    endloop
  endfacet
  facet normal 3.55456e-06 1 -2.25873e-06
    outer loop
      vertex 10.1468 2 10.9021
      vertex 10.0747 2 10.8943
      vertex 10.3788 2 11.5839
    endloop
  endfacet
  facet normal -1.12876e-06 1 -1.78381e-06
    outer loop
      vertex 6.98757 2 10.5585
      vertex 6.46266 2 11.158
      vertex 7.07769 2 10.5683
    endloop
  endfacet
  facet normal 0.626519 0 0.779406
    outer loop
      vertex 9.49559 2 13.3783
      vertex 9.76731 -2 13.1599
      vertex 9.76731 2 13.1599
    endloop
  endfacet
  facet normal 0.626519 0 0.779406
    outer loop
      vertex 9.76731 -2 13.1599
      vertex 9.49559 2 13.3783
      vertex 9.49559 -2 13.3783
    endloop
  endfacet
  facet normal 1.68743e-06 -1 2.09921e-06
    outer loop
      vertex 9.76731 -2 13.1599
      vertex 9.49559 -2 13.3783
      vertex 10.3037 -2 12.2744
    endloop
  endfacet
  facet normal 0.322162 0 0.946684
    outer loop
      vertex 8.86004 2 13.6585
      vertex 9.19007 -2 13.5462
      vertex 9.19007 2 13.5462
    endloop
  endfacet
  facet normal 0.322162 0 0.946684
    outer loop
      vertex 9.19007 -2 13.5462
      vertex 8.86004 2 13.6585
      vertex 8.86004 -2 13.6585
    endloop
  endfacet
  facet normal -0.0210501 0 0.999778
    outer loop
      vertex 8.16697 2 13.7045
      vertex 8.51551 -2 13.7118
      vertex 8.51551 2 13.7118
    endloop
  endfacet
  facet normal -0.0210501 0 0.999778
    outer loop
      vertex 8.51551 -2 13.7118
      vertex 8.16697 2 13.7045
      vertex 8.16697 -2 13.7045
    endloop
  endfacet
  facet normal 0.481658 0 0.876359
    outer loop
      vertex 9.19007 2 13.5462
      vertex 9.49559 -2 13.3783
      vertex 9.49559 2 13.3783
    endloop
  endfacet
  facet normal 0.481658 0 0.876359
    outer loop
      vertex 9.49559 -2 13.3783
      vertex 9.19007 2 13.5462
      vertex 9.19007 -2 13.5462
    endloop
  endfacet
  facet normal -0.946684 0 0.322164
    outer loop
      vertex 6.44086 -2 12.1931
      vertex 6.55318 2 12.5231
      vertex 6.44086 2 12.1931
    endloop
  endfacet
  facet normal -0.946684 0 0.322164
    outer loop
      vertex 6.55318 2 12.5231
      vertex 6.44086 -2 12.1931
      vertex 6.55318 -2 12.5231
    endloop
  endfacet
  facet normal -1.0866e-06 -1 1.24095e-06
    outer loop
      vertex 6.93951 -2 13.1003
      vertex 6.38757 -2 11.8485
      vertex 7.2018 -2 13.33
    endloop
  endfacet
  facet normal -5.84599e-07 -1 9.65042e-07
    outer loop
      vertex 7.2018 -2 13.33
      vertex 6.38757 -2 11.8485
      vertex 7.49998 -2 13.5106
    endloop
  endfacet
  facet normal -0.87636 0 0.481657
    outer loop
      vertex 6.55318 -2 12.5231
      vertex 6.72109 2 12.8286
      vertex 6.55318 2 12.5231
    endloop
  endfacet
  facet normal -0.87636 0 0.481657
    outer loop
      vertex 6.72109 2 12.8286
      vertex 6.55318 -2 12.5231
      vertex 6.72109 -2 12.8286
    endloop
  endfacet
  facet normal -3.00717e-07 -1 7.75045e-07
    outer loop
      vertex 7.49998 -2 13.5106
      vertex 6.38757 -2 11.8485
      vertex 7.82499 -2 13.6367
    endloop
  endfacet
  facet normal -0.361726 0 0.932284
    outer loop
      vertex 7.49998 2 13.5106
      vertex 7.82499 -2 13.6367
      vertex 7.82499 2 13.6367
    endloop
  endfacet
  facet normal -0.361726 0 0.932284
    outer loop
      vertex 7.82499 -2 13.6367
      vertex 7.49998 2 13.5106
      vertex 7.49998 -2 13.5106
    endloop
  endfacet
  facet normal 1.4913e-05 1 -5.07503e-06
    outer loop
      vertex 10.3255 2 11.2393
      vertex 10.2132 2 10.9093
      vertex 10.3788 2 11.5839
    endloop
  endfacet
  facet normal 0.999778 0 0.02105
    outer loop
      vertex 10.3788 2 11.5839
      vertex 10.3715 2 11.9324
      vertex 10.3788 -2 11.5839
    endloop
  endfacet
  facet normal 7.89852e-08 1 -7.26271e-07
    outer loop
      vertex 6.90785 2 10.5499
      vertex 6.46266 2 11.158
      vertex 6.98757 2 10.5585
    endloop
  endfacet
  facet normal 5.92349e-08 1 -5.44706e-07
    outer loop
      vertex 7.1821 2 10.5797
      vertex 6.46266 2 11.158
      vertex 7.30652 2 10.5932
    endloop
  endfacet
  facet normal -3.25004e-06 1 -3.12995e-06
    outer loop
      vertex 6.76939 2 10.5348
      vertex 6.46266 2 11.158
      vertex 6.8358 2 10.542
    endloop
  endfacet
  facet normal -1.34738e-05 1 -8.16207e-06
    outer loop
      vertex 6.58876 2 10.833
      vertex 6.46266 2 11.158
      vertex 6.76939 2 10.5348
    endloop
  endfacet
  facet normal -0.932285 0 -0.361725
    outer loop
      vertex 6.58876 -2 10.833
      vertex 6.46266 2 11.158
      vertex 6.58876 2 10.833
    endloop
  endfacet
  facet normal -0.932285 -0 -0.361725
    outer loop
      vertex 6.46266 2 11.158
      vertex 6.58876 -2 10.833
      vertex 6.46266 -2 11.158
    endloop
  endfacet
  facet normal 0.855306 0 0.518123
    outer loop
      vertex 10.1776 2 12.5994
      vertex 9.99697 -2 12.8976
      vertex 10.1776 -2 12.5994
    endloop
  endfacet
  facet normal 1.34735e-05 -1 8.16194e-06
    outer loop
      vertex 10.1776 -2 12.5994
      vertex 9.99697 -2 12.8976
      vertex 10.3037 -2 12.2744
    endloop
  endfacet
  facet normal 0.752344 1.57063e-07 0.65877
    outer loop
      vertex 9.99697 2 12.8976
      vertex 9.76731 2 13.1599
      vertex 9.99697 -2 12.8976
    endloop
  endfacet
  facet normal 3.63493e-07 -1 1.06814e-06
    outer loop
      vertex 9.19007 -2 13.5462
      vertex 8.86004 -2 13.6585
      vertex 10.3037 -2 12.2744
    endloop
  endfacet
  facet normal -0.980934 0 -0.194341
    outer loop
      vertex 6.46266 -2 11.158
      vertex 6.39491 2 11.5
      vertex 6.46266 2 11.158
    endloop
  endfacet
  facet normal -0.980934 -0 -0.194341
    outer loop
      vertex 6.39491 2 11.5
      vertex 6.46266 -2 11.158
      vertex 6.39491 -2 11.5
    endloop
  endfacet
  facet normal -1.36124e-08 -1 6.46526e-07
    outer loop
      vertex 8.51551 -2 13.7118
      vertex 8.16697 -2 13.7045
      vertex 10.3037 -2 12.2744
    endloop
  endfacet
  facet normal -0.658769 0 0.752345
    outer loop
      vertex 6.93951 2 13.1003
      vertex 7.2018 -2 13.33
      vertex 7.2018 2 13.33
    endloop
  endfacet
  facet normal -0.658769 0 0.752345
    outer loop
      vertex 7.2018 -2 13.33
      vertex 6.93951 2 13.1003
      vertex 6.93951 -2 13.1003
    endloop
  endfacet
  facet normal 0 1 0
    outer loop
      vertex 8.86004 2 13.6585
      vertex 8.16697 2 13.7045
      vertex 8.51551 2 13.7118
    endloop
  endfacet
  facet normal 0 1 0
    outer loop
      vertex 8.86004 2 13.6585
      vertex 7.82499 2 13.6367
      vertex 8.16697 2 13.7045
    endloop
  endfacet
  facet normal 0 1 0
    outer loop
      vertex 9.19007 2 13.5462
      vertex 7.82499 2 13.6367
      vertex 8.86004 2 13.6585
    endloop
  endfacet
  facet normal 0 1 0
    outer loop
      vertex 9.19007 2 13.5462
      vertex 7.49998 2 13.5106
      vertex 7.82499 2 13.6367
    endloop
  endfacet
  facet normal 0 1 0
    outer loop
      vertex 9.49559 2 13.3783
      vertex 7.49998 2 13.5106
      vertex 9.19007 2 13.5462
    endloop
  endfacet
  facet normal 0 1 0
    outer loop
      vertex 9.49559 2 13.3783
      vertex 7.2018 2 13.33
      vertex 7.49998 2 13.5106
    endloop
  endfacet
  facet normal 0 1 0
    outer loop
      vertex 9.76731 2 13.1599
      vertex 7.2018 2 13.33
      vertex 9.49559 2 13.3783
    endloop
  endfacet
  facet normal 0 1 0
    outer loop
      vertex 9.76731 2 13.1599
      vertex 6.93951 2 13.1003
      vertex 7.2018 2 13.33
    endloop
  endfacet
  facet normal 0 1 0
    outer loop
      vertex 9.99697 2 12.8976
      vertex 6.93951 2 13.1003
      vertex 9.76731 2 13.1599
    endloop
  endfacet
  facet normal 0 1 0
    outer loop
      vertex 9.99697 2 12.8976
      vertex 6.72109 2 12.8286
      vertex 6.93951 2 13.1003
    endloop
  endfacet
  facet normal 0 1 0
    outer loop
      vertex 10.1776 2 12.5994
      vertex 6.72109 2 12.8286
      vertex 9.99697 2 12.8976
    endloop
  endfacet
  facet normal 0 1 0
    outer loop
      vertex 10.1776 2 12.5994
      vertex 6.55318 2 12.5231
      vertex 6.72109 2 12.8286
    endloop
  endfacet
  facet normal 0 1 0
    outer loop
      vertex 10.3037 2 12.2744
      vertex 6.55318 2 12.5231
      vertex 10.1776 2 12.5994
    endloop
  endfacet
  facet normal 0 1 0
    outer loop
      vertex 10.3037 2 12.2744
      vertex 6.44086 2 12.1931
      vertex 6.55318 2 12.5231
    endloop
  endfacet
  facet normal 0 1 0
    outer loop
      vertex 10.3715 2 11.9324
      vertex 6.44086 2 12.1931
      vertex 10.3037 2 12.2744
    endloop
  endfacet
  facet normal 0 1 0
    outer loop
      vertex 10.3715 2 11.9324
      vertex 6.38757 2 11.8485
      vertex 6.44086 2 12.1931
    endloop
  endfacet
  facet normal 0 1 0
    outer loop
      vertex 10.3788 2 11.5839
      vertex 6.38757 2 11.8485
      vertex 10.3715 2 11.9324
    endloop
  endfacet
  facet normal 0 1 0
    outer loop
      vertex 10.3788 2 11.5839
      vertex 6.39491 2 11.5
      vertex 6.38757 2 11.8485
    endloop
  endfacet
  facet normal -0 1 0
    outer loop
      vertex 6.39491 2 11.5
      vertex 10.3788 2 11.5839
      vertex 6.46266 2 11.158
    endloop
  endfacet
  facet normal -4.64898e-06 -1 2.55513e-06
    outer loop
      vertex 6.55318 -2 12.5231
      vertex 6.38757 -2 11.8485
      vertex 6.72109 -2 12.8286
    endloop
  endfacet
  facet normal -6.23826e-08 -1 5.73657e-07
    outer loop
      vertex 8.16697 -2 13.7045
      vertex 6.38757 -2 11.8485
      vertex 10.3037 -2 12.2744
    endloop
  endfacet
  facet normal -2.09922e-06 -1 1.68743e-06
    outer loop
      vertex 6.72109 -2 12.8286
      vertex 6.38757 -2 11.8485
      vertex 6.93951 -2 13.1003
    endloop
  endfacet
  facet normal 0.999778 5.0187e-09 0.02105
    outer loop
      vertex 10.3715 2 11.9324
      vertex 10.3715 -2 11.9324
      vertex 10.3788 -2 11.5839
    endloop
  endfacet
  facet normal 3.84691e-06 1 -2.35822e-06
    outer loop
      vertex 10.2132 2 10.9093
      vertex 10.1468 2 10.9021
      vertex 10.3788 2 11.5839
    endloop
  endfacet
  facet normal 0.946683 0 -0.322166
    outer loop
      vertex 10.3255 -2 11.2393
      vertex 10.2132 2 10.9093
      vertex 10.3255 2 11.2393
    endloop
  endfacet
  facet normal 0.946683 0 -0.322166
    outer loop
      vertex 10.2132 2 10.9093
      vertex 10.3255 -2 11.2393
      vertex 10.2132 -2 10.9093
    endloop
  endfacet
  facet normal 0.988245 0 -0.152876
    outer loop
      vertex 10.3788 -2 11.5839
      vertex 10.3255 2 11.2393
      vertex 10.3788 2 11.5839
    endloop
  endfacet
  facet normal 0.988245 0 -0.152876
    outer loop
      vertex 10.3255 2 11.2393
      vertex 10.3788 -2 11.5839
      vertex 10.3255 -2 11.2393
    endloop
  endfacet
  facet normal 5.92338e-08 1 -5.44707e-07
    outer loop
      vertex 7.07769 2 10.5683
      vertex 6.46266 2 11.158
      vertex 7.1821 2 10.5797
    endloop
  endfacet
  facet normal -0.855307 0 -0.518121
    outer loop
      vertex 6.76939 1.99999 10.5348
      vertex 6.58876 2 10.833
      vertex 6.76939 2 10.5348
    endloop
  endfacet
  facet normal -0.855307 -0 -0.518121
    outer loop
      vertex 6.58876 2 10.833
      vertex 6.76939 1.99999 10.5348
      vertex 6.58876 -2 10.833
    endloop
  endfacet
  facet normal -0.855307 -1.01961e-07 -0.518122
    outer loop
      vertex 6.76939 -2 10.5348
      vertex 6.58876 -2 10.833
      vertex 6.76939 1.99999 10.5348
    endloop
  endfacet
  facet normal 3.99108e-06 -1 3.4947e-06
    outer loop
      vertex 9.99697 -2 12.8976
      vertex 9.76731 -2 13.1599
      vertex 10.3037 -2 12.2744
    endloop
  endfacet
  facet normal 0.752343 0 0.658771
    outer loop
      vertex 9.76731 2 13.1599
      vertex 9.76731 -2 13.1599
      vertex 9.99697 -2 12.8976
    endloop
  endfacet
  facet normal 1.27092e-07 -1 8.21566e-07
    outer loop
      vertex 8.86004 -2 13.6585
      vertex 8.51551 -2 13.7118
      vertex 10.3037 -2 12.2744
    endloop
  endfacet
  facet normal 0.152876 0 0.988245
    outer loop
      vertex 8.51551 2 13.7118
      vertex 8.86004 -2 13.6585
      vertex 8.86004 2 13.6585
    endloop
  endfacet
  facet normal 0.152876 0 0.988245
    outer loop
      vertex 8.86004 -2 13.6585
      vertex 8.51551 2 13.7118
      vertex 8.51551 -2 13.7118
    endloop
  endfacet
  facet normal -1.49133e-05 -1 5.0751e-06
    outer loop
      vertex 6.44086 -2 12.1931
      vertex 6.38757 -2 11.8485
      vertex 6.55318 -2 12.5231
    endloop
  endfacet
  facet normal 0 -1 0
    outer loop
      vertex 6.38757 -2 11.8485
      vertex 10.3715 -2 11.9324
      vertex 10.3037 -2 12.2744
    endloop
  endfacet
  facet normal 0 -1 0
    outer loop
      vertex 6.38757 -2 11.8485
      vertex 10.3788 -2 11.5839
      vertex 10.3715 -2 11.9324
    endloop
  endfacet
  facet normal 0 -1 0
    outer loop
      vertex 6.39491 -2 11.5
      vertex 10.3788 -2 11.5839
      vertex 6.38757 -2 11.8485
    endloop
  endfacet
  facet normal 0 -1 0
    outer loop
      vertex 6.39491 -2 11.5
      vertex 10.3255 -2 11.2393
      vertex 10.3788 -2 11.5839
    endloop
  endfacet
  facet normal 0 -1 0
    outer loop
      vertex 6.46266 -2 11.158
      vertex 10.3255 -2 11.2393
      vertex 6.39491 -2 11.5
    endloop
  endfacet
  facet normal 0 -1 0
    outer loop
      vertex 6.46266 -2 11.158
      vertex 10.2132 -2 10.9093
      vertex 10.3255 -2 11.2393
    endloop
  endfacet
  facet normal -0 -1 0
    outer loop
      vertex 10.2132 -2 10.9093
      vertex 6.46266 -2 11.158
      vertex 6.58876 -2 10.833
    endloop
  endfacet
  facet normal 0 -1 0
    outer loop
      vertex 6.76939 -2 10.5348
      vertex 10.2132 -2 10.9093
      vertex 6.58876 -2 10.833
    endloop
  endfacet
  facet normal 0 -1 0
    outer loop
      vertex 10.2132 -2 10.9093
      vertex 10.712 -2 8.80088
      vertex 10.4796 -2 10.9383
    endloop
  endfacet
  facet normal 0 -1 0
    outer loop
      vertex 6.70301 -2 8.66669
      vertex 10.2132 -2 10.9093
      vertex 6.76939 -2 10.5348
    endloop
  endfacet
  facet normal 0 -1 0
    outer loop
      vertex 6.70301 -2 8.66669
      vertex 6.76939 -2 10.5348
      vertex 6.50301 -2 10.5058
    endloop
  endfacet
  facet normal 0 -1 -0
    outer loop
      vertex 10.2132 -2 10.9093
      vertex 6.70301 -2 8.66669
      vertex 10.712 -2 8.80088
    endloop
  endfacet
  facet normal 0 -1 0
    outer loop
      vertex -6.30829 -2 6.95
      vertex 6.70301 -2 8.66669
      vertex -7.712 -2 7.09912
    endloop
  endfacet
  facet normal 0 -1 0
    outer loop
      vertex -6.30829 -2 6.95
      vertex -7.712 -2 7.09912
      vertex -7.69579 -2 6.95
    endloop
  endfacet
  facet normal 0 -1 -0
    outer loop
      vertex 6.70301 -2 8.66669
      vertex -6.30829 -2 6.95
      vertex 10.712 -2 8.80088
    endloop
  endfacet
  facet normal -0.999778 0 -0.0210528
    outer loop
      vertex 6.39491 -2 11.5
      vertex 6.38757 2 11.8485
      vertex 6.39491 2 11.5
    endloop
  endfacet
  facet normal -0.999778 -0 -0.0210528
    outer loop
      vertex 6.38757 2 11.8485
      vertex 6.39491 -2 11.5
      vertex 6.38757 -2 11.8485
    endloop
  endfacet
  facet normal 7.89759e-08 1 -7.26274e-07
    outer loop
      vertex 10.0747 2 10.8943
      vertex 9.99501 2 10.8856
      vertex 10.3788 2 11.5839
    endloop
  endfacet
  facet normal -0.994139 0 -0.108108
    outer loop
      vertex 6.70301 -2 8.66669
      vertex 6.50301 2 10.5058
      vertex 6.70301 2 8.66669
    endloop
  endfacet
  facet normal -0.994139 -0 -0.108108
    outer loop
      vertex 6.50301 2 10.5058
      vertex 6.70301 -2 8.66669
      vertex 6.50301 -2 10.5058
    endloop
  endfacet
  facet normal -0.108109 0 0.994139
    outer loop
      vertex 10.4796 2 10.9383
      vertex 10.2132 2 10.9093
      vertex 10.4796 -2 10.9383
    endloop
  endfacet
  facet normal -0.106734 0.159006 0.981491
    outer loop
      vertex 10.4796 2 10.9383
      vertex 10.1468 2 10.9021
      vertex 10.2132 2 10.9093
    endloop
  endfacet
  facet normal -0.101535 -0.343385 0.93369
    outer loop
      vertex 10.4796 2 10.9383
      vertex 10.0747 2 10.8943
      vertex 10.1468 2 10.9021
    endloop
  endfacet
  facet normal -0.0234067 -0.976278 0.215251
    outer loop
      vertex 10.4796 2 10.9383
      vertex 9.99501 2 10.8856
      vertex 10.0747 2 10.8943
    endloop
  endfacet
  facet normal -0.0387926 -0.933399 0.356736
    outer loop
      vertex 10.4796 2 10.9383
      vertex 9.90489 2 10.8758
      vertex 9.99501 2 10.8856
    endloop
  endfacet
  facet normal -0.00770833 0.997455 0.070879
    outer loop
      vertex 10.4796 2 10.9383
      vertex 9.80049 2 10.8644
      vertex 9.90489 2 10.8758
    endloop
  endfacet
  facet normal -0.00849788 -0.996905 0.0781491
    outer loop
      vertex 10.4796 2 10.9383
      vertex 9.67606 2 10.8509
      vertex 9.80049 2 10.8644
    endloop
  endfacet
  facet normal -0.0592829 0.836238 0.545152
    outer loop
      vertex 10.4796 2 10.9383
      vertex 7.30652 2 10.5932
      vertex 9.67606 2 10.8509
    endloop
  endfacet
  facet normal -0.0114926 0.994333 0.105683
    outer loop
      vertex 10.4796 2 10.9383
      vertex 7.1821 2 10.5797
      vertex 7.30652 2 10.5932
    endloop
  endfacet
  facet normal -0.00952946 -0.996107 0.0876318
    outer loop
      vertex 10.4796 2 10.9383
      vertex 7.07769 2 10.5683
      vertex 7.1821 2 10.5797
    endloop
  endfacet
  facet normal -0.0092995 0.996294 0.0855092
    outer loop
      vertex 7.07769 2 10.5683
      vertex 6.90785 2 10.5499
      vertex 6.98757 2 10.5585
    endloop
  endfacet
  facet normal -0.108106 0 0.994139
    outer loop
      vertex 6.76939 2 10.5348
      vertex 6.50301 2 10.5058
      vertex 6.76939 1.99999 10.5348
    endloop
  endfacet
  facet normal -0.100824 -0.36084 0.927162
    outer loop
      vertex 6.8358 2 10.542
      vertex 6.50301 2 10.5058
      vertex 6.76939 2 10.5348
    endloop
  endfacet
  facet normal -0.10681 -0.154462 0.982208
    outer loop
      vertex 6.90785 2 10.5499
      vertex 6.50301 2 10.5058
      vertex 6.8358 2 10.542
    endloop
  endfacet
  facet normal -0.0723482 -0.743063 0.665299
    outer loop
      vertex 7.07769 2 10.5683
      vertex 6.50301 2 10.5058
      vertex 6.90785 2 10.5499
    endloop
  endfacet
  facet normal -0.0766422 -0.705268 0.704785
    outer loop
      vertex 6.50301 2 10.5058
      vertex 7.07769 2 10.5683
      vertex 10.4796 2 10.9383
    endloop
  endfacet
  facet normal -0.108109 0 0.994139
    outer loop
      vertex 10.4796 -2 10.9383
      vertex 10.2132 2 10.9093
      vertex 10.2132 -2 10.9093
    endloop
  endfacet
  facet normal -0.108106 -1.28873e-08 0.994139
    outer loop
      vertex 6.50301 2 10.5058
      vertex 6.76939 -2 10.5348
      vertex 6.76939 1.99999 10.5348
    endloop
  endfacet
  facet normal -0.108106 0 0.994139
    outer loop
      vertex 6.76939 -2 10.5348
      vertex 6.50301 2 10.5058
      vertex 6.50301 -2 10.5058
    endloop
  endfacet
  facet normal 0.994139 -0 0.108109
    outer loop
      vertex 10.4796 -2 10.9383
      vertex 10.712 2 8.80088
      vertex 10.4796 2 10.9383
    endloop
  endfacet
  facet normal 0.994139 0 0.108109
    outer loop
      vertex 10.712 2 8.80088
      vertex 10.4796 -2 10.9383
      vertex 10.712 -2 8.80088
    endloop
  endfacet
  facet normal 0 1 0
    outer loop
      vertex 6.70301 2 8.66669
      vertex 10.4796 2 10.9383
      vertex 10.712 2 8.80088
    endloop
  endfacet
  facet normal 0 1 0
    outer loop
      vertex 10.4796 2 10.9383
      vertex 6.70301 2 8.66669
      vertex 6.50301 2 10.5058
    endloop
  endfacet
  facet normal 0 1 0
    outer loop
      vertex -6.30829 2 6.95
      vertex 6.70301 2 8.66669
      vertex 10.712 2 8.80088
    endloop
  endfacet
  facet normal 0 1 0
    outer loop
      vertex 6.70301 2 8.66669
      vertex -6.30829 2 6.95
      vertex -7.712 2 7.09912
    endloop
  endfacet
  facet normal 0 1 0
    outer loop
      vertex -7.712 2 7.09912
      vertex -6.30829 2 6.95
      vertex -7.69579 2 6.95
    endloop
  endfacet
  facet normal -0.994139 0 -0.108109
    outer loop
      vertex -7.69579 -2 6.95
      vertex -7.712 2 7.09912
      vertex -7.69579 2 6.95
    endloop
  endfacet
  facet normal -0.994139 -0 -0.108109
    outer loop
      vertex -7.712 2 7.09912
      vertex -7.69579 -2 6.95
      vertex -7.712 -2 7.09912
    endloop
  endfacet
  facet normal -0.108108 0 0.994139
    outer loop
      vertex -7.712 2 7.09912
      vertex 6.70301 -2 8.66669
      vertex 6.70301 2 8.66669
    endloop
  endfacet
  facet normal -0.108108 0 0.994139
    outer loop
      vertex 6.70301 -2 8.66669
      vertex -7.712 2 7.09912
      vertex -7.712 -2 7.09912
    endloop
  endfacet
  facet normal 0.108108 0 -0.994139
    outer loop
      vertex -6.30829 -2 6.95
      vertex 10.712 2 8.80088
      vertex 10.712 -2 8.80088
    endloop
  endfacet
  facet normal 0.108108 0 -0.994139
    outer loop
      vertex 10.712 2 8.80088
      vertex -6.30829 -2 6.95
      vertex -6.30829 2 6.95
    endloop
  endfacet
  facet normal -1 0 0
    outer loop
      vertex -0.299999 -1.65 -7.05
      vertex -0.299999 1.65 -3.05
      vertex -0.299999 1.65 -7.05
    endloop
  endfacet
  facet normal -1 -0 0
    outer loop
      vertex -0.299999 1.65 -3.05
      vertex -0.299999 -1.65 -7.05
      vertex -0.299999 -1.65 -3.05
    endloop
  endfacet
  facet normal 1 -0 0
    outer loop
      vertex 0.299999 -1.65 -3.05
      vertex 0.299999 1.65 -7.05
      vertex 0.299999 1.65 -3.05
    endloop
  endfacet
  facet normal 1 0 0
    outer loop
      vertex 0.299999 1.65 -7.05
      vertex 0.299999 -1.65 -3.05
      vertex 0.299999 -1.65 -7.05
    endloop
  endfacet
  facet normal 0 0 -1
    outer loop
      vertex -0.299999 -1.65 -7.05
      vertex 0.299999 1.65 -7.05
      vertex 0.299999 -1.65 -7.05
    endloop
  endfacet
  facet normal -0 0 -1
    outer loop
      vertex 0.299999 1.65 -7.05
      vertex -0.299999 -1.65 -7.05
      vertex -0.299999 1.65 -7.05
    endloop
  endfacet
  facet normal 0 -1 0
    outer loop
      vertex -0.299999 -1.65 -7.05
      vertex 0.299999 -1.65 -3.05
      vertex -0.299999 -1.65 -3.05
    endloop
  endfacet
  facet normal 0 -1 -0
    outer loop
      vertex 0.299999 -1.65 -3.05
      vertex -0.299999 -1.65 -7.05
      vertex 0.299999 -1.65 -7.05
    endloop
  endfacet
  facet normal 0 1 -0
    outer loop
      vertex 0.299999 1.65 -7.05
      vertex -0.299999 1.65 -3.05
      vertex 0.299999 1.65 -3.05
    endloop
  endfacet
  facet normal 0 1 0
    outer loop
      vertex -0.299999 1.65 -3.05
      vertex 0.299999 1.65 -7.05
      vertex -0.299999 1.65 -7.05
    endloop
  endfacet
  facet normal -1 0 0
    outer loop
      vertex 7.9 -1.65 -7.05
      vertex 7.9 1.65 -3.05
      vertex 7.9 1.65 -7.05
    endloop
  endfacet
  facet normal -1 -0 0
    outer loop
      vertex 7.9 1.65 -3.05
      vertex 7.9 -1.65 -7.05
      vertex 7.9 -1.65 -3.05
    endloop
  endfacet
  facet normal 1 -0 0
    outer loop
      vertex 8.5 -1.65 -3.05
      vertex 8.5 1.65 -7.05
      vertex 8.5 1.65 -3.05
    endloop
  endfacet
  facet normal 1 0 0
    outer loop
      vertex 8.5 1.65 -7.05
      vertex 8.5 -1.65 -3.05
      vertex 8.5 -1.65 -7.05
    endloop
  endfacet
  facet normal 0 1 -0
    outer loop
      vertex 8.5 1.65 -7.05
      vertex 7.9 1.65 -3.05
      vertex 8.5 1.65 -3.05
    endloop
  endfacet
  facet normal 0 1 0
    outer loop
      vertex 7.9 1.65 -3.05
      vertex 8.5 1.65 -7.05
      vertex 7.9 1.65 -7.05
    endloop
  endfacet
  facet normal 0 0 -1
    outer loop
      vertex 7.9 -1.65 -7.05
      vertex 8.5 1.65 -7.05
      vertex 8.5 -1.65 -7.05
    endloop
  endfacet
  facet normal -0 0 -1
    outer loop
      vertex 8.5 1.65 -7.05
      vertex 7.9 -1.65 -7.05
      vertex 7.9 1.65 -7.05
    endloop
  endfacet
  facet normal 0 -1 0
    outer loop
      vertex 7.9 -1.65 -7.05
      vertex 8.5 -1.65 -3.05
      vertex 7.9 -1.65 -3.05
    endloop
  endfacet
  facet normal 0 -1 -0
    outer loop
      vertex 8.5 -1.65 -3.05
      vertex 7.9 -1.65 -7.05
      vertex 8.5 -1.65 -7.05
    endloop
  endfacet
  facet normal -1 0 0
    outer loop
      vertex -8.5 -1.65 -7.05
      vertex -8.5 1.65 -3.05
      vertex -8.5 1.65 -7.05
    endloop
  endfacet
  facet normal -1 -0 0
    outer loop
      vertex -8.5 1.65 -3.05
      vertex -8.5 -1.65 -7.05
      vertex -8.5 -1.65 -3.05
    endloop
  endfacet
  facet normal 1 -0 0
    outer loop
      vertex -7.9 -1.65 -3.05
      vertex -7.9 1.65 -7.05
      vertex -7.9 1.65 -3.05
    endloop
  endfacet
  facet normal 1 0 0
    outer loop
      vertex -7.9 1.65 -7.05
      vertex -7.9 -1.65 -3.05
      vertex -7.9 -1.65 -7.05
    endloop
  endfacet
  facet normal 0 1 -0
    outer loop
      vertex -7.9 1.65 -7.05
      vertex -8.5 1.65 -3.05
      vertex -7.9 1.65 -3.05
    endloop
  endfacet
  facet normal 0 1 0
    outer loop
      vertex -8.5 1.65 -3.05
      vertex -7.9 1.65 -7.05
      vertex -8.5 1.65 -7.05
    endloop
  endfacet
  facet normal 0 0 -1
    outer loop
      vertex -8.5 -1.65 -7.05
      vertex -7.9 1.65 -7.05
      vertex -7.9 -1.65 -7.05
    endloop
  endfacet
  facet normal -0 0 -1
    outer loop
      vertex -7.9 1.65 -7.05
      vertex -8.5 -1.65 -7.05
      vertex -8.5 1.65 -7.05
    endloop
  endfacet
  facet normal 0 -1 0
    outer loop
      vertex -8.5 -1.65 -7.05
      vertex -7.9 -1.65 -3.05
      vertex -8.5 -1.65 -3.05
    endloop
  endfacet
  facet normal 0 -1 -0
    outer loop
      vertex -7.9 -1.65 -3.05
      vertex -8.5 -1.65 -7.05
      vertex -7.9 -1.65 -7.05
    endloop
  endfacet
endsolid OpenSCAD_Model
