solid OpenSCAD_Model
  facet normal -1 0 0
    outer loop
      vertex -3.1 -3.1 3.8147e-007
      vertex -3.1 3.1 3.3
      vertex -3.1 3.1 3.8147e-007
    endloop
  endfacet
  facet normal -1 -0 0
    outer loop
      vertex -3.1 3.1 3.3
      vertex -3.1 -3.1 3.8147e-007
      vertex -3.1 -3.1 3.3
    endloop
  endfacet
  facet normal 0 0 1
    outer loop
      vertex 3.1 3.1 3.3
      vertex 2.3 0 3.3
      vertex 3.1 -3.1 3.3
    endloop
  endfacet
  facet normal 0 0 1
    outer loop
      vertex 3.1 3.1 3.3
      vertex 2.26506 0.39939 3.3
      vertex 2.3 0 3.3
    endloop
  endfacet
  facet normal 0 0 1
    outer loop
      vertex 3.1 3.1 3.3
      vertex 2.16129 0.786646 3.3
      vertex 2.26506 0.39939 3.3
    endloop
  endfacet
  facet normal 0 0 1
    outer loop
      vertex 3.1 3.1 3.3
      vertex 1.99186 1.15 3.3
      vertex 2.16129 0.786646 3.3
    endloop
  endfacet
  facet normal 0 0 1
    outer loop
      vertex 3.1 3.1 3.3
      vertex 1.7619 1.47841 3.3
      vertex 1.99186 1.15 3.3
    endloop
  endfacet
  facet normal 0 0 1
    outer loop
      vertex 3.1 3.1 3.3
      vertex 1.47841 1.7619 3.3
      vertex 1.7619 1.47841 3.3
    endloop
  endfacet
  facet normal 0 0 1
    outer loop
      vertex 3.1 3.1 3.3
      vertex 1.15 1.99186 3.3
      vertex 1.47841 1.7619 3.3
    endloop
  endfacet
  facet normal 0 0 1
    outer loop
      vertex 3.1 3.1 3.3
      vertex 0.786646 2.16129 3.3
      vertex 1.15 1.99186 3.3
    endloop
  endfacet
  facet normal 0 0 1
    outer loop
      vertex 3.1 3.1 3.3
      vertex 0.39939 2.26506 3.3
      vertex 0.786646 2.16129 3.3
    endloop
  endfacet
  facet normal 0 0 1
    outer loop
      vertex 3.1 3.1 3.3
      vertex 0 2.3 3.3
      vertex 0.39939 2.26506 3.3
    endloop
  endfacet
  facet normal -0 0 1
    outer loop
      vertex -3.1 3.1 3.3
      vertex 0 2.3 3.3
      vertex 3.1 3.1 3.3
    endloop
  endfacet
  facet normal 0 0 1
    outer loop
      vertex -2.26506 0.39939 3.3
      vertex -3.1 3.1 3.3
      vertex -2.3 0 3.3
    endloop
  endfacet
  facet normal 0 0 1
    outer loop
      vertex -2.16129 0.786646 3.3
      vertex -3.1 3.1 3.3
      vertex -2.26506 0.39939 3.3
    endloop
  endfacet
  facet normal 0 0 1
    outer loop
      vertex -1.99186 1.15 3.3
      vertex -3.1 3.1 3.3
      vertex -2.16129 0.786646 3.3
    endloop
  endfacet
  facet normal 0 0 1
    outer loop
      vertex -1.7619 1.47841 3.3
      vertex -3.1 3.1 3.3
      vertex -1.99186 1.15 3.3
    endloop
  endfacet
  facet normal 0 0 1
    outer loop
      vertex -1.47841 1.7619 3.3
      vertex -3.1 3.1 3.3
      vertex -1.7619 1.47841 3.3
    endloop
  endfacet
  facet normal 0 0 1
    outer loop
      vertex -1.15 1.99186 3.3
      vertex -3.1 3.1 3.3
      vertex -1.47841 1.7619 3.3
    endloop
  endfacet
  facet normal 0 0 1
    outer loop
      vertex -0.786646 2.16129 3.3
      vertex -3.1 3.1 3.3
      vertex -1.15 1.99186 3.3
    endloop
  endfacet
  facet normal 0 0 1
    outer loop
      vertex -0.39939 2.26506 3.3
      vertex -3.1 3.1 3.3
      vertex -0.786646 2.16129 3.3
    endloop
  endfacet
  facet normal 0 0 1
    outer loop
      vertex 0 2.3 3.3
      vertex -3.1 3.1 3.3
      vertex -0.39939 2.26506 3.3
    endloop
  endfacet
  facet normal -0 0 1
    outer loop
      vertex 2.26506 -0.39939 3.3
      vertex 3.1 -3.1 3.3
      vertex 2.3 0 3.3
    endloop
  endfacet
  facet normal -0 0 1
    outer loop
      vertex 2.16129 -0.786646 3.3
      vertex 3.1 -3.1 3.3
      vertex 2.26506 -0.39939 3.3
    endloop
  endfacet
  facet normal -0 0 1
    outer loop
      vertex 1.99186 -1.15 3.3
      vertex 3.1 -3.1 3.3
      vertex 2.16129 -0.786646 3.3
    endloop
  endfacet
  facet normal -0 0 1
    outer loop
      vertex 1.7619 -1.47841 3.3
      vertex 3.1 -3.1 3.3
      vertex 1.99186 -1.15 3.3
    endloop
  endfacet
  facet normal -0 0 1
    outer loop
      vertex 1.47841 -1.7619 3.3
      vertex 3.1 -3.1 3.3
      vertex 1.7619 -1.47841 3.3
    endloop
  endfacet
  facet normal -0 0 1
    outer loop
      vertex 1.15 -1.99186 3.3
      vertex 3.1 -3.1 3.3
      vertex 1.47841 -1.7619 3.3
    endloop
  endfacet
  facet normal -0 0 1
    outer loop
      vertex 0.786646 -2.16129 3.3
      vertex 3.1 -3.1 3.3
      vertex 1.15 -1.99186 3.3
    endloop
  endfacet
  facet normal -0 0 1
    outer loop
      vertex 0.39939 -2.26506 3.3
      vertex 3.1 -3.1 3.3
      vertex 0.786646 -2.16129 3.3
    endloop
  endfacet
  facet normal -0 0 1
    outer loop
      vertex 0 -2.3 3.3
      vertex 3.1 -3.1 3.3
      vertex 0.39939 -2.26506 3.3
    endloop
  endfacet
  facet normal 0 0 1
    outer loop
      vertex -3.1 -3.1 3.3
      vertex 0 -2.3 3.3
      vertex -0.39939 -2.26506 3.3
    endloop
  endfacet
  facet normal 0 0 1
    outer loop
      vertex -3.1 -3.1 3.3
      vertex -2.3 0 3.3
      vertex -3.1 3.1 3.3
    endloop
  endfacet
  facet normal 0 0 1
    outer loop
      vertex 0 -2.3 3.3
      vertex -3.1 -3.1 3.3
      vertex 3.1 -3.1 3.3
    endloop
  endfacet
  facet normal 0 0 1
    outer loop
      vertex -0.786646 -2.16129 3.3
      vertex -3.1 -3.1 3.3
      vertex -0.39939 -2.26506 3.3
    endloop
  endfacet
  facet normal 0 0 1
    outer loop
      vertex -1.15 -1.99186 3.3
      vertex -3.1 -3.1 3.3
      vertex -0.786646 -2.16129 3.3
    endloop
  endfacet
  facet normal 0 0 1
    outer loop
      vertex -1.47841 -1.7619 3.3
      vertex -3.1 -3.1 3.3
      vertex -1.15 -1.99186 3.3
    endloop
  endfacet
  facet normal 0 0 1
    outer loop
      vertex -1.7619 -1.47841 3.3
      vertex -3.1 -3.1 3.3
      vertex -1.47841 -1.7619 3.3
    endloop
  endfacet
  facet normal 0 0 1
    outer loop
      vertex -1.99186 -1.15 3.3
      vertex -3.1 -3.1 3.3
      vertex -1.7619 -1.47841 3.3
    endloop
  endfacet
  facet normal 0 0 1
    outer loop
      vertex -2.16129 -0.786646 3.3
      vertex -3.1 -3.1 3.3
      vertex -1.99186 -1.15 3.3
    endloop
  endfacet
  facet normal 0 0 1
    outer loop
      vertex -2.26506 -0.39939 3.3
      vertex -3.1 -3.1 3.3
      vertex -2.16129 -0.786646 3.3
    endloop
  endfacet
  facet normal 0 0 1
    outer loop
      vertex -2.3 0 3.3
      vertex -3.1 -3.1 3.3
      vertex -2.26506 -0.39939 3.3
    endloop
  endfacet
  facet normal 1 -0 0
    outer loop
      vertex 3.1 -3.1 3.3
      vertex 3.1 3.1 3.8147e-007
      vertex 3.1 3.1 3.3
    endloop
  endfacet
  facet normal 1 0 0
    outer loop
      vertex 3.1 3.1 3.8147e-007
      vertex 3.1 -3.1 3.3
      vertex 3.1 -3.1 3.8147e-007
    endloop
  endfacet
  facet normal 0 0 -1
    outer loop
      vertex -3.1 -3.1 3.8147e-007
      vertex 3.1 3.1 3.8147e-007
      vertex 3.1 -3.1 3.8147e-007
    endloop
  endfacet
  facet normal -0 0 -1
    outer loop
      vertex 3.1 3.1 3.8147e-007
      vertex -3.1 -3.1 3.8147e-007
      vertex -3.1 3.1 3.8147e-007
    endloop
  endfacet
  facet normal 0 -1 0
    outer loop
      vertex -3.1 -3.1 3.8147e-007
      vertex 3.1 -3.1 3.3
      vertex -3.1 -3.1 3.3
    endloop
  endfacet
  facet normal 0 -1 -0
    outer loop
      vertex 3.1 -3.1 3.3
      vertex -3.1 -3.1 3.8147e-007
      vertex 3.1 -3.1 3.8147e-007
    endloop
  endfacet
  facet normal 0 1 -0
    outer loop
      vertex 3.1 3.1 3.8147e-007
      vertex -3.1 3.1 3.3
      vertex 3.1 3.1 3.3
    endloop
  endfacet
  facet normal 0 1 0
    outer loop
      vertex -3.1 3.1 3.3
      vertex 3.1 3.1 3.8147e-007
      vertex -3.1 3.1 3.8147e-007
    endloop
  endfacet
  facet normal 0.996195 0.0871563 0
    outer loop
      vertex 1.75 0 5.45
      vertex 1.72341 0.303884 3.8
      vertex 1.72341 0.303884 5.45
    endloop
  endfacet
  facet normal 0.996195 0.0871563 0
    outer loop
      vertex 1.72341 0.303884 3.8
      vertex 1.75 0 5.45
      vertex 1.75 0 3.8
    endloop
  endfacet
  facet normal -0.996195 0.0871563 0
    outer loop
      vertex -1.75 0 3.8
      vertex -1.72341 0.303884 5.45
      vertex -1.72341 0.303884 3.8
    endloop
  endfacet
  facet normal -0.996195 0.0871563 0
    outer loop
      vertex -1.72341 0.303884 5.45
      vertex -1.75 0 3.8
      vertex -1.75 0 5.45
    endloop
  endfacet
  facet normal 0.0871563 0.996195 -0
    outer loop
      vertex 0.303884 1.72341 3.8
      vertex 0 1.75 5.45
      vertex 0.303884 1.72341 5.45
    endloop
  endfacet
  facet normal 0.0871563 0.996195 0
    outer loop
      vertex 0 1.75 5.45
      vertex 0.303884 1.72341 3.8
      vertex 0 1.75 3.8
    endloop
  endfacet
  facet normal -0.0871563 -0.996195 0
    outer loop
      vertex -0.303884 -1.72341 3.8
      vertex 0 -1.75 5.45
      vertex -0.303884 -1.72341 5.45
    endloop
  endfacet
  facet normal -0.0871563 -0.996195 -0
    outer loop
      vertex 0 -1.75 5.45
      vertex -0.303884 -1.72341 3.8
      vertex 0 -1.75 3.8
    endloop
  endfacet
  facet normal 0.707107 0.707107 0
    outer loop
      vertex 1.34058 1.12488 5.45
      vertex 1.12488 1.34058 3.8
      vertex 1.12488 1.34058 5.45
    endloop
  endfacet
  facet normal 0.707107 0.707107 0
    outer loop
      vertex 1.12488 1.34058 3.8
      vertex 1.34058 1.12488 5.45
      vertex 1.34058 1.12488 3.8
    endloop
  endfacet
  facet normal -0.573576 0.819152 0
    outer loop
      vertex -0.874999 1.51554 3.8
      vertex -1.12488 1.34058 5.45
      vertex -0.874999 1.51554 5.45
    endloop
  endfacet
  facet normal -0.573576 0.819152 0
    outer loop
      vertex -1.12488 1.34058 5.45
      vertex -0.874999 1.51554 3.8
      vertex -1.12488 1.34058 3.8
    endloop
  endfacet
  facet normal -0.25882 0.965926 0
    outer loop
      vertex -0.303884 1.72341 3.8
      vertex -0.598535 1.64446 5.45
      vertex -0.303884 1.72341 5.45
    endloop
  endfacet
  facet normal -0.25882 0.965926 0
    outer loop
      vertex -0.598535 1.64446 5.45
      vertex -0.303884 1.72341 3.8
      vertex -0.598535 1.64446 3.8
    endloop
  endfacet
  facet normal 0.906308 0.422619 0
    outer loop
      vertex 1.64446 0.598535 5.45
      vertex 1.51554 0.874999 3.8
      vertex 1.51554 0.874999 5.45
    endloop
  endfacet
  facet normal 0.906308 0.422619 0
    outer loop
      vertex 1.51554 0.874999 3.8
      vertex 1.64446 0.598535 5.45
      vertex 1.64446 0.598535 3.8
    endloop
  endfacet
  facet normal 0.965926 0.25882 0
    outer loop
      vertex 1.72341 0.303884 5.45
      vertex 1.64446 0.598535 3.8
      vertex 1.64446 0.598535 5.45
    endloop
  endfacet
  facet normal 0.965926 0.25882 0
    outer loop
      vertex 1.64446 0.598535 3.8
      vertex 1.72341 0.303884 5.45
      vertex 1.72341 0.303884 3.8
    endloop
  endfacet
  facet normal 0.819152 0.573576 0
    outer loop
      vertex 1.51554 0.874999 5.45
      vertex 1.34058 1.12488 3.8
      vertex 1.34058 1.12488 5.45
    endloop
  endfacet
  facet normal 0.819152 0.573576 0
    outer loop
      vertex 1.34058 1.12488 3.8
      vertex 1.51554 0.874999 5.45
      vertex 1.51554 0.874999 3.8
    endloop
  endfacet
  facet normal 0.422618 0.906308 -0
    outer loop
      vertex 0.875 1.51554 3.8
      vertex 0.598535 1.64446 5.45
      vertex 0.875 1.51554 5.45
    endloop
  endfacet
  facet normal 0.422618 0.906308 0
    outer loop
      vertex 0.598535 1.64446 5.45
      vertex 0.875 1.51554 3.8
      vertex 0.598535 1.64446 3.8
    endloop
  endfacet
  facet normal 0.25882 0.965926 -0
    outer loop
      vertex 0.598535 1.64446 3.8
      vertex 0.303884 1.72341 5.45
      vertex 0.598535 1.64446 5.45
    endloop
  endfacet
  facet normal 0.25882 0.965926 0
    outer loop
      vertex 0.303884 1.72341 5.45
      vertex 0.598535 1.64446 3.8
      vertex 0.303884 1.72341 3.8
    endloop
  endfacet
  facet normal 0.573577 0.819151 -0
    outer loop
      vertex 1.12488 1.34058 3.8
      vertex 0.875 1.51554 5.45
      vertex 1.12488 1.34058 5.45
    endloop
  endfacet
  facet normal 0.573577 0.819151 0
    outer loop
      vertex 0.875 1.51554 5.45
      vertex 1.12488 1.34058 3.8
      vertex 0.875 1.51554 3.8
    endloop
  endfacet
  facet normal -0.819151 0.573577 0
    outer loop
      vertex -1.51554 0.875 3.8
      vertex -1.34058 1.12488 5.45
      vertex -1.34058 1.12488 3.8
    endloop
  endfacet
  facet normal -0.819151 0.573577 0
    outer loop
      vertex -1.34058 1.12488 5.45
      vertex -1.51554 0.875 3.8
      vertex -1.51554 0.875 5.45
    endloop
  endfacet
  facet normal -0.707107 0.707107 0
    outer loop
      vertex -1.34058 1.12488 3.8
      vertex -1.12488 1.34058 5.45
      vertex -1.12488 1.34058 3.8
    endloop
  endfacet
  facet normal -0.707107 0.707107 0
    outer loop
      vertex -1.12488 1.34058 5.45
      vertex -1.34058 1.12488 3.8
      vertex -1.34058 1.12488 5.45
    endloop
  endfacet
  facet normal 0 0 1
    outer loop
      vertex 1.72341 0.303884 5.45
      vertex 1.72341 -0.303884 5.45
      vertex 1.75 0 5.45
    endloop
  endfacet
  facet normal 0 0 1
    outer loop
      vertex 1.64446 0.598535 5.45
      vertex 1.72341 -0.303884 5.45
      vertex 1.72341 0.303884 5.45
    endloop
  endfacet
  facet normal 0 0 1
    outer loop
      vertex 1.64446 0.598535 5.45
      vertex 1.64446 -0.598535 5.45
      vertex 1.72341 -0.303884 5.45
    endloop
  endfacet
  facet normal 0 0 1
    outer loop
      vertex 1.51554 0.874999 5.45
      vertex 1.64446 -0.598535 5.45
      vertex 1.64446 0.598535 5.45
    endloop
  endfacet
  facet normal 0 0 1
    outer loop
      vertex 1.51554 0.874999 5.45
      vertex 1.51554 -0.874999 5.45
      vertex 1.64446 -0.598535 5.45
    endloop
  endfacet
  facet normal 0 0 1
    outer loop
      vertex 1.34058 1.12488 5.45
      vertex 1.51554 -0.874999 5.45
      vertex 1.51554 0.874999 5.45
    endloop
  endfacet
  facet normal 0 0 1
    outer loop
      vertex 1.34058 1.12488 5.45
      vertex 1.34058 -1.12488 5.45
      vertex 1.51554 -0.874999 5.45
    endloop
  endfacet
  facet normal 0 0 1
    outer loop
      vertex 1.12488 1.34058 5.45
      vertex 1.34058 -1.12488 5.45
      vertex 1.34058 1.12488 5.45
    endloop
  endfacet
  facet normal 0 0 1
    outer loop
      vertex 1.12488 1.34058 5.45
      vertex 1.12488 -1.34058 5.45
      vertex 1.34058 -1.12488 5.45
    endloop
  endfacet
  facet normal 0 0 1
    outer loop
      vertex 0.875 1.51554 5.45
      vertex 1.12488 -1.34058 5.45
      vertex 1.12488 1.34058 5.45
    endloop
  endfacet
  facet normal 0 0 1
    outer loop
      vertex 0.875 1.51554 5.45
      vertex 0.874999 -1.51554 5.45
      vertex 1.12488 -1.34058 5.45
    endloop
  endfacet
  facet normal 0 0 1
    outer loop
      vertex 0.598535 1.64446 5.45
      vertex 0.874999 -1.51554 5.45
      vertex 0.875 1.51554 5.45
    endloop
  endfacet
  facet normal 0 0 1
    outer loop
      vertex 0.598535 1.64446 5.45
      vertex 0.598535 -1.64446 5.45
      vertex 0.874999 -1.51554 5.45
    endloop
  endfacet
  facet normal 0 0 1
    outer loop
      vertex 0.303884 1.72341 5.45
      vertex 0.598535 -1.64446 5.45
      vertex 0.598535 1.64446 5.45
    endloop
  endfacet
  facet normal 0 0 1
    outer loop
      vertex 0.303884 1.72341 5.45
      vertex 0.303884 -1.72341 5.45
      vertex 0.598535 -1.64446 5.45
    endloop
  endfacet
  facet normal 0 0 1
    outer loop
      vertex 0 1.75 5.45
      vertex 0.303884 -1.72341 5.45
      vertex 0.303884 1.72341 5.45
    endloop
  endfacet
  facet normal 0 0 1
    outer loop
      vertex 0 1.75 5.45
      vertex 0 -1.75 5.45
      vertex 0.303884 -1.72341 5.45
    endloop
  endfacet
  facet normal -0 0 1
    outer loop
      vertex -0.303884 1.72341 5.45
      vertex 0 -1.75 5.45
      vertex 0 1.75 5.45
    endloop
  endfacet
  facet normal 0 0 1
    outer loop
      vertex -0.303884 1.72341 5.45
      vertex -0.303884 -1.72341 5.45
      vertex 0 -1.75 5.45
    endloop
  endfacet
  facet normal -0 0 1
    outer loop
      vertex -0.598535 1.64446 5.45
      vertex -0.303884 -1.72341 5.45
      vertex -0.303884 1.72341 5.45
    endloop
  endfacet
  facet normal 0 0 1
    outer loop
      vertex -0.598535 1.64446 5.45
      vertex -0.598535 -1.64446 5.45
      vertex -0.303884 -1.72341 5.45
    endloop
  endfacet
  facet normal -0 0 1
    outer loop
      vertex -0.874999 1.51554 5.45
      vertex -0.598535 -1.64446 5.45
      vertex -0.598535 1.64446 5.45
    endloop
  endfacet
  facet normal 0 0 1
    outer loop
      vertex -0.874999 1.51554 5.45
      vertex -0.875 -1.51554 5.45
      vertex -0.598535 -1.64446 5.45
    endloop
  endfacet
  facet normal -0 0 1
    outer loop
      vertex -1.12488 1.34058 5.45
      vertex -0.875 -1.51554 5.45
      vertex -0.874999 1.51554 5.45
    endloop
  endfacet
  facet normal 0 0 1
    outer loop
      vertex -1.12488 1.34058 5.45
      vertex -1.12488 -1.34058 5.45
      vertex -0.875 -1.51554 5.45
    endloop
  endfacet
  facet normal -0 0 1
    outer loop
      vertex -1.34058 1.12488 5.45
      vertex -1.12488 -1.34058 5.45
      vertex -1.12488 1.34058 5.45
    endloop
  endfacet
  facet normal 0 0 1
    outer loop
      vertex -1.34058 1.12488 5.45
      vertex -1.34058 -1.12488 5.45
      vertex -1.12488 -1.34058 5.45
    endloop
  endfacet
  facet normal -0 0 1
    outer loop
      vertex -1.51554 0.875 5.45
      vertex -1.34058 -1.12488 5.45
      vertex -1.34058 1.12488 5.45
    endloop
  endfacet
  facet normal 0 0 1
    outer loop
      vertex -1.51554 0.875 5.45
      vertex -1.51554 -0.875 5.45
      vertex -1.34058 -1.12488 5.45
    endloop
  endfacet
  facet normal -0 0 1
    outer loop
      vertex -1.64446 0.598535 5.45
      vertex -1.51554 -0.875 5.45
      vertex -1.51554 0.875 5.45
    endloop
  endfacet
  facet normal 0 0 1
    outer loop
      vertex -1.64446 0.598535 5.45
      vertex -1.64446 -0.598535 5.45
      vertex -1.51554 -0.875 5.45
    endloop
  endfacet
  facet normal -0 0 1
    outer loop
      vertex -1.72341 0.303884 5.45
      vertex -1.64446 -0.598535 5.45
      vertex -1.64446 0.598535 5.45
    endloop
  endfacet
  facet normal 0 0 1
    outer loop
      vertex -1.72341 0.303884 5.45
      vertex -1.72341 -0.303884 5.45
      vertex -1.64446 -0.598535 5.45
    endloop
  endfacet
  facet normal 0 -0 1
    outer loop
      vertex -1.72341 -0.303884 5.45
      vertex -1.72341 0.303884 5.45
      vertex -1.75 0 5.45
    endloop
  endfacet
  facet normal -0.422619 0.906308 0
    outer loop
      vertex -0.598535 1.64446 3.8
      vertex -0.874999 1.51554 5.45
      vertex -0.598535 1.64446 5.45
    endloop
  endfacet
  facet normal -0.422619 0.906308 0
    outer loop
      vertex -0.874999 1.51554 5.45
      vertex -0.598535 1.64446 3.8
      vertex -0.874999 1.51554 3.8
    endloop
  endfacet
  facet normal -0.0871563 0.996195 0
    outer loop
      vertex 0 1.75 3.8
      vertex -0.303884 1.72341 5.45
      vertex 0 1.75 5.45
    endloop
  endfacet
  facet normal -0.0871563 0.996195 0
    outer loop
      vertex -0.303884 1.72341 5.45
      vertex 0 1.75 3.8
      vertex -0.303884 1.72341 3.8
    endloop
  endfacet
  facet normal 0.996195 -0.0871563 0
    outer loop
      vertex 1.72341 -0.303884 5.45
      vertex 1.75 0 3.8
      vertex 1.75 0 5.45
    endloop
  endfacet
  facet normal 0.996195 -0.0871563 0
    outer loop
      vertex 1.75 0 3.8
      vertex 1.72341 -0.303884 5.45
      vertex 1.72341 -0.303884 3.8
    endloop
  endfacet
  facet normal 0.0871563 -0.996195 0
    outer loop
      vertex 0 -1.75 3.8
      vertex 0.303884 -1.72341 5.45
      vertex 0 -1.75 5.45
    endloop
  endfacet
  facet normal 0.0871563 -0.996195 0
    outer loop
      vertex 0.303884 -1.72341 5.45
      vertex 0 -1.75 3.8
      vertex 0.303884 -1.72341 3.8
    endloop
  endfacet
  facet normal -0.707107 -0.707107 0
    outer loop
      vertex -1.12488 -1.34058 3.8
      vertex -1.34058 -1.12488 5.45
      vertex -1.34058 -1.12488 3.8
    endloop
  endfacet
  facet normal -0.707107 -0.707107 0
    outer loop
      vertex -1.34058 -1.12488 5.45
      vertex -1.12488 -1.34058 3.8
      vertex -1.12488 -1.34058 5.45
    endloop
  endfacet
  facet normal -0.906308 -0.422618 0
    outer loop
      vertex -1.51554 -0.875 3.8
      vertex -1.64446 -0.598535 5.45
      vertex -1.64446 -0.598535 3.8
    endloop
  endfacet
  facet normal -0.906308 -0.422618 0
    outer loop
      vertex -1.64446 -0.598535 5.45
      vertex -1.51554 -0.875 3.8
      vertex -1.51554 -0.875 5.45
    endloop
  endfacet
  facet normal -0.996195 -0.0871563 0
    outer loop
      vertex -1.72341 -0.303884 3.8
      vertex -1.75 0 5.45
      vertex -1.75 0 3.8
    endloop
  endfacet
  facet normal -0.996195 -0.0871563 0
    outer loop
      vertex -1.75 0 5.45
      vertex -1.72341 -0.303884 3.8
      vertex -1.72341 -0.303884 5.45
    endloop
  endfacet
  facet normal -0.906308 0.422618 0
    outer loop
      vertex -1.64446 0.598535 3.8
      vertex -1.51554 0.875 5.45
      vertex -1.51554 0.875 3.8
    endloop
  endfacet
  facet normal -0.906308 0.422618 0
    outer loop
      vertex -1.51554 0.875 5.45
      vertex -1.64446 0.598535 3.8
      vertex -1.64446 0.598535 5.45
    endloop
  endfacet
  facet normal -0.965926 0.25882 0
    outer loop
      vertex -1.72341 0.303884 3.8
      vertex -1.64446 0.598535 5.45
      vertex -1.64446 0.598535 3.8
    endloop
  endfacet
  facet normal -0.965926 0.25882 0
    outer loop
      vertex -1.64446 0.598535 5.45
      vertex -1.72341 0.303884 3.8
      vertex -1.72341 0.303884 5.45
    endloop
  endfacet
  facet normal 0.25882 -0.965926 0
    outer loop
      vertex 0.303884 -1.72341 3.8
      vertex 0.598535 -1.64446 5.45
      vertex 0.303884 -1.72341 5.45
    endloop
  endfacet
  facet normal 0.25882 -0.965926 0
    outer loop
      vertex 0.598535 -1.64446 5.45
      vertex 0.303884 -1.72341 3.8
      vertex 0.598535 -1.64446 3.8
    endloop
  endfacet
  facet normal 0.707107 -0.707107 0
    outer loop
      vertex 1.12488 -1.34058 5.45
      vertex 1.34058 -1.12488 3.8
      vertex 1.34058 -1.12488 5.45
    endloop
  endfacet
  facet normal 0.707107 -0.707107 0
    outer loop
      vertex 1.34058 -1.12488 3.8
      vertex 1.12488 -1.34058 5.45
      vertex 1.12488 -1.34058 3.8
    endloop
  endfacet
  facet normal 0.422619 -0.906308 0
    outer loop
      vertex 0.598535 -1.64446 3.8
      vertex 0.874999 -1.51554 5.45
      vertex 0.598535 -1.64446 5.45
    endloop
  endfacet
  facet normal 0.422619 -0.906308 0
    outer loop
      vertex 0.874999 -1.51554 5.45
      vertex 0.598535 -1.64446 3.8
      vertex 0.874999 -1.51554 3.8
    endloop
  endfacet
  facet normal 0.965926 -0.25882 0
    outer loop
      vertex 1.64446 -0.598535 5.45
      vertex 1.72341 -0.303884 3.8
      vertex 1.72341 -0.303884 5.45
    endloop
  endfacet
  facet normal 0.965926 -0.25882 0
    outer loop
      vertex 1.72341 -0.303884 3.8
      vertex 1.64446 -0.598535 5.45
      vertex 1.64446 -0.598535 3.8
    endloop
  endfacet
  facet normal 0.819152 -0.573576 0
    outer loop
      vertex 1.34058 -1.12488 5.45
      vertex 1.51554 -0.874999 3.8
      vertex 1.51554 -0.874999 5.45
    endloop
  endfacet
  facet normal 0.819152 -0.573576 0
    outer loop
      vertex 1.51554 -0.874999 3.8
      vertex 1.34058 -1.12488 5.45
      vertex 1.34058 -1.12488 3.8
    endloop
  endfacet
  facet normal -0.573577 -0.819151 0
    outer loop
      vertex -1.12488 -1.34058 3.8
      vertex -0.875 -1.51554 5.45
      vertex -1.12488 -1.34058 5.45
    endloop
  endfacet
  facet normal -0.573577 -0.819151 -0
    outer loop
      vertex -0.875 -1.51554 5.45
      vertex -1.12488 -1.34058 3.8
      vertex -0.875 -1.51554 3.8
    endloop
  endfacet
  facet normal -0.422618 -0.906308 0
    outer loop
      vertex -0.875 -1.51554 3.8
      vertex -0.598535 -1.64446 5.45
      vertex -0.875 -1.51554 5.45
    endloop
  endfacet
  facet normal -0.422618 -0.906308 -0
    outer loop
      vertex -0.598535 -1.64446 5.45
      vertex -0.875 -1.51554 3.8
      vertex -0.598535 -1.64446 3.8
    endloop
  endfacet
  facet normal -0.819151 -0.573577 0
    outer loop
      vertex -1.34058 -1.12488 3.8
      vertex -1.51554 -0.875 5.45
      vertex -1.51554 -0.875 3.8
    endloop
  endfacet
  facet normal -0.819151 -0.573577 0
    outer loop
      vertex -1.51554 -0.875 5.45
      vertex -1.34058 -1.12488 3.8
      vertex -1.34058 -1.12488 5.45
    endloop
  endfacet
  facet normal -0.965926 -0.25882 0
    outer loop
      vertex -1.64446 -0.598535 3.8
      vertex -1.72341 -0.303884 5.45
      vertex -1.72341 -0.303884 3.8
    endloop
  endfacet
  facet normal -0.965926 -0.25882 0
    outer loop
      vertex -1.72341 -0.303884 5.45
      vertex -1.64446 -0.598535 3.8
      vertex -1.64446 -0.598535 5.45
    endloop
  endfacet
  facet normal 0.573576 -0.819152 0
    outer loop
      vertex 0.874999 -1.51554 3.8
      vertex 1.12488 -1.34058 5.45
      vertex 0.874999 -1.51554 5.45
    endloop
  endfacet
  facet normal 0.573576 -0.819152 0
    outer loop
      vertex 1.12488 -1.34058 5.45
      vertex 0.874999 -1.51554 3.8
      vertex 1.12488 -1.34058 3.8
    endloop
  endfacet
  facet normal 0.906308 -0.422619 0
    outer loop
      vertex 1.51554 -0.874999 5.45
      vertex 1.64446 -0.598535 3.8
      vertex 1.64446 -0.598535 5.45
    endloop
  endfacet
  facet normal 0.906308 -0.422619 0
    outer loop
      vertex 1.64446 -0.598535 3.8
      vertex 1.51554 -0.874999 5.45
      vertex 1.51554 -0.874999 3.8
    endloop
  endfacet
  facet normal -0.25882 -0.965926 0
    outer loop
      vertex -0.598535 -1.64446 3.8
      vertex -0.303884 -1.72341 5.45
      vertex -0.598535 -1.64446 5.45
    endloop
  endfacet
  facet normal -0.25882 -0.965926 -0
    outer loop
      vertex -0.303884 -1.72341 5.45
      vertex -0.598535 -1.64446 3.8
      vertex -0.303884 -1.72341 3.8
    endloop
  endfacet
  facet normal 0.996195 0.0871546 0
    outer loop
      vertex 2.3 0 3.8
      vertex 2.26506 0.39939 3.3
      vertex 2.26506 0.39939 3.8
    endloop
  endfacet
  facet normal 0.996195 0.0871546 0
    outer loop
      vertex 2.26506 0.39939 3.3
      vertex 2.3 0 3.8
      vertex 2.3 0 3.3
    endloop
  endfacet
  facet normal -0.996195 0.0871546 0
    outer loop
      vertex -2.3 0 3.3
      vertex -2.26506 0.39939 3.8
      vertex -2.26506 0.39939 3.3
    endloop
  endfacet
  facet normal -0.996195 0.0871546 0
    outer loop
      vertex -2.26506 0.39939 3.8
      vertex -2.3 0 3.3
      vertex -2.3 0 3.8
    endloop
  endfacet
  facet normal -0.0871546 0.996195 0
    outer loop
      vertex 0 2.3 3.3
      vertex -0.39939 2.26506 3.8
      vertex 0 2.3 3.8
    endloop
  endfacet
  facet normal -0.0871546 0.996195 0
    outer loop
      vertex -0.39939 2.26506 3.8
      vertex 0 2.3 3.3
      vertex -0.39939 2.26506 3.3
    endloop
  endfacet
  facet normal 0.0871546 -0.996195 0
    outer loop
      vertex 0 -2.3 3.3
      vertex 0.39939 -2.26506 3.8
      vertex 0 -2.3 3.8
    endloop
  endfacet
  facet normal 0.0871546 -0.996195 0
    outer loop
      vertex 0.39939 -2.26506 3.8
      vertex 0 -2.3 3.3
      vertex 0.39939 -2.26506 3.3
    endloop
  endfacet
  facet normal 0.707107 0.707107 0
    outer loop
      vertex 1.7619 1.47841 3.8
      vertex 1.47841 1.7619 3.3
      vertex 1.47841 1.7619 3.8
    endloop
  endfacet
  facet normal 0.707107 0.707107 0
    outer loop
      vertex 1.47841 1.7619 3.3
      vertex 1.7619 1.47841 3.8
      vertex 1.7619 1.47841 3.3
    endloop
  endfacet
  facet normal -0.707107 0.707107 0
    outer loop
      vertex -1.7619 1.47841 3.3
      vertex -1.47841 1.7619 3.8
      vertex -1.47841 1.7619 3.3
    endloop
  endfacet
  facet normal -0.707107 0.707107 0
    outer loop
      vertex -1.47841 1.7619 3.8
      vertex -1.7619 1.47841 3.3
      vertex -1.7619 1.47841 3.8
    endloop
  endfacet
  facet normal -0.422618 0.906308 0
    outer loop
      vertex -0.786646 2.16129 3.3
      vertex -1.15 1.99186 3.8
      vertex -0.786646 2.16129 3.8
    endloop
  endfacet
  facet normal -0.422618 0.906308 0
    outer loop
      vertex -1.15 1.99186 3.8
      vertex -0.786646 2.16129 3.3
      vertex -1.15 1.99186 3.3
    endloop
  endfacet
  facet normal 0.819152 -0.573576 0
    outer loop
      vertex 1.7619 -1.47841 3.8
      vertex 1.99186 -1.15 3.3
      vertex 1.99186 -1.15 3.8
    endloop
  endfacet
  facet normal 0.819152 -0.573576 0
    outer loop
      vertex 1.99186 -1.15 3.3
      vertex 1.7619 -1.47841 3.8
      vertex 1.7619 -1.47841 3.3
    endloop
  endfacet
  facet normal 0.906308 0.422618 0
    outer loop
      vertex 2.16129 0.786646 3.8
      vertex 1.99186 1.15 3.3
      vertex 1.99186 1.15 3.8
    endloop
  endfacet
  facet normal 0.906308 0.422618 0
    outer loop
      vertex 1.99186 1.15 3.3
      vertex 2.16129 0.786646 3.8
      vertex 2.16129 0.786646 3.3
    endloop
  endfacet
  facet normal 0.965925 0.258821 0
    outer loop
      vertex 2.26506 0.39939 3.8
      vertex 2.16129 0.786646 3.3
      vertex 2.16129 0.786646 3.8
    endloop
  endfacet
  facet normal 0.965925 0.258821 0
    outer loop
      vertex 2.16129 0.786646 3.3
      vertex 2.26506 0.39939 3.8
      vertex 2.26506 0.39939 3.3
    endloop
  endfacet
  facet normal 0.819152 0.573576 0
    outer loop
      vertex 1.99186 1.15 3.8
      vertex 1.7619 1.47841 3.3
      vertex 1.7619 1.47841 3.8
    endloop
  endfacet
  facet normal 0.819152 0.573576 0
    outer loop
      vertex 1.7619 1.47841 3.3
      vertex 1.99186 1.15 3.8
      vertex 1.99186 1.15 3.3
    endloop
  endfacet
  facet normal 0.258821 0.965925 -0
    outer loop
      vertex 0.786646 2.16129 3.3
      vertex 0.39939 2.26506 3.8
      vertex 0.786646 2.16129 3.8
    endloop
  endfacet
  facet normal 0.258821 0.965925 0
    outer loop
      vertex 0.39939 2.26506 3.8
      vertex 0.786646 2.16129 3.3
      vertex 0.39939 2.26506 3.3
    endloop
  endfacet
  facet normal 0.0871546 0.996195 -0
    outer loop
      vertex 0.39939 2.26506 3.3
      vertex 0 2.3 3.8
      vertex 0.39939 2.26506 3.8
    endloop
  endfacet
  facet normal 0.0871546 0.996195 0
    outer loop
      vertex 0 2.3 3.8
      vertex 0.39939 2.26506 3.3
      vertex 0 2.3 3.3
    endloop
  endfacet
  facet normal 0.573576 0.819152 -0
    outer loop
      vertex 1.47841 1.7619 3.3
      vertex 1.15 1.99186 3.8
      vertex 1.47841 1.7619 3.8
    endloop
  endfacet
  facet normal 0.573576 0.819152 0
    outer loop
      vertex 1.15 1.99186 3.8
      vertex 1.47841 1.7619 3.3
      vertex 1.15 1.99186 3.3
    endloop
  endfacet
  facet normal -0.906308 0.422618 0
    outer loop
      vertex -2.16129 0.786646 3.3
      vertex -1.99186 1.15 3.8
      vertex -1.99186 1.15 3.3
    endloop
  endfacet
  facet normal -0.906308 0.422618 0
    outer loop
      vertex -1.99186 1.15 3.8
      vertex -2.16129 0.786646 3.3
      vertex -2.16129 0.786646 3.8
    endloop
  endfacet
  facet normal -0.819152 0.573576 0
    outer loop
      vertex -1.99186 1.15 3.3
      vertex -1.7619 1.47841 3.8
      vertex -1.7619 1.47841 3.3
    endloop
  endfacet
  facet normal -0.819152 0.573576 0
    outer loop
      vertex -1.7619 1.47841 3.8
      vertex -1.99186 1.15 3.3
      vertex -1.99186 1.15 3.8
    endloop
  endfacet
  facet normal -0.965925 0.258821 0
    outer loop
      vertex -2.26506 0.39939 3.3
      vertex -2.16129 0.786646 3.8
      vertex -2.16129 0.786646 3.3
    endloop
  endfacet
  facet normal -0.965925 0.258821 0
    outer loop
      vertex -2.16129 0.786646 3.8
      vertex -2.26506 0.39939 3.3
      vertex -2.26506 0.39939 3.8
    endloop
  endfacet
  facet normal 0 0 1
    outer loop
      vertex 1.75 0 3.8
      vertex 2.3 0 3.8
      vertex 2.26506 0.39939 3.8
    endloop
  endfacet
  facet normal 0 0 1
    outer loop
      vertex 1.72341 0.303884 3.8
      vertex 2.26506 0.39939 3.8
      vertex 2.16129 0.786646 3.8
    endloop
  endfacet
  facet normal 0 0 1
    outer loop
      vertex 2.3 0 3.8
      vertex 1.75 0 3.8
      vertex 2.26506 -0.39939 3.8
    endloop
  endfacet
  facet normal 0 0 1
    outer loop
      vertex 1.64446 0.598535 3.8
      vertex 2.16129 0.786646 3.8
      vertex 1.99186 1.15 3.8
    endloop
  endfacet
  facet normal -0 0 1
    outer loop
      vertex 1.72341 -0.303884 3.8
      vertex 2.26506 -0.39939 3.8
      vertex 1.75 0 3.8
    endloop
  endfacet
  facet normal 0 0 1
    outer loop
      vertex 1.51554 0.874999 3.8
      vertex 1.99186 1.15 3.8
      vertex 1.7619 1.47841 3.8
    endloop
  endfacet
  facet normal 0 0 1
    outer loop
      vertex 2.26506 -0.39939 3.8
      vertex 1.72341 -0.303884 3.8
      vertex 2.16129 -0.786646 3.8
    endloop
  endfacet
  facet normal -0 0 1
    outer loop
      vertex 1.64446 -0.598535 3.8
      vertex 2.16129 -0.786646 3.8
      vertex 1.72341 -0.303884 3.8
    endloop
  endfacet
  facet normal 0 0 1
    outer loop
      vertex 2.26506 0.39939 3.8
      vertex 1.72341 0.303884 3.8
      vertex 1.75 0 3.8
    endloop
  endfacet
  facet normal 0 0 1
    outer loop
      vertex 2.16129 0.786646 3.8
      vertex 1.64446 0.598535 3.8
      vertex 1.72341 0.303884 3.8
    endloop
  endfacet
  facet normal 0 0 1
    outer loop
      vertex 1.99186 1.15 3.8
      vertex 1.51554 0.874999 3.8
      vertex 1.64446 0.598535 3.8
    endloop
  endfacet
  facet normal 0 0 1
    outer loop
      vertex 1.34058 1.12488 3.8
      vertex 1.7619 1.47841 3.8
      vertex 1.47841 1.7619 3.8
    endloop
  endfacet
  facet normal 0 0 1
    outer loop
      vertex 1.7619 1.47841 3.8
      vertex 1.34058 1.12488 3.8
      vertex 1.51554 0.874999 3.8
    endloop
  endfacet
  facet normal 0 0 1
    outer loop
      vertex 1.12488 1.34058 3.8
      vertex 1.47841 1.7619 3.8
      vertex 1.15 1.99186 3.8
    endloop
  endfacet
  facet normal 0 0 1
    outer loop
      vertex 1.47841 1.7619 3.8
      vertex 1.12488 1.34058 3.8
      vertex 1.34058 1.12488 3.8
    endloop
  endfacet
  facet normal 0 0 1
    outer loop
      vertex 1.15 1.99186 3.8
      vertex 0.875 1.51554 3.8
      vertex 1.12488 1.34058 3.8
    endloop
  endfacet
  facet normal 0 0 1
    outer loop
      vertex 0.786646 2.16129 3.8
      vertex 0.875 1.51554 3.8
      vertex 1.15 1.99186 3.8
    endloop
  endfacet
  facet normal 0 0 1
    outer loop
      vertex 0.786646 2.16129 3.8
      vertex 0.598535 1.64446 3.8
      vertex 0.875 1.51554 3.8
    endloop
  endfacet
  facet normal 0 0 1
    outer loop
      vertex 0.39939 2.26506 3.8
      vertex 0.598535 1.64446 3.8
      vertex 0.786646 2.16129 3.8
    endloop
  endfacet
  facet normal 0 0 1
    outer loop
      vertex 0.39939 2.26506 3.8
      vertex 0.303884 1.72341 3.8
      vertex 0.598535 1.64446 3.8
    endloop
  endfacet
  facet normal 0 0 1
    outer loop
      vertex 0 2.3 3.8
      vertex 0.303884 1.72341 3.8
      vertex 0.39939 2.26506 3.8
    endloop
  endfacet
  facet normal 0 0 1
    outer loop
      vertex 0 2.3 3.8
      vertex 0 1.75 3.8
      vertex 0.303884 1.72341 3.8
    endloop
  endfacet
  facet normal 0 0 1
    outer loop
      vertex 0 2.3 3.8
      vertex -0.303884 1.72341 3.8
      vertex 0 1.75 3.8
    endloop
  endfacet
  facet normal -0 0 1
    outer loop
      vertex -0.39939 2.26506 3.8
      vertex -0.303884 1.72341 3.8
      vertex 0 2.3 3.8
    endloop
  endfacet
  facet normal 0 0 1
    outer loop
      vertex -0.39939 2.26506 3.8
      vertex -0.598535 1.64446 3.8
      vertex -0.303884 1.72341 3.8
    endloop
  endfacet
  facet normal -0 0 1
    outer loop
      vertex -0.786646 2.16129 3.8
      vertex -0.598535 1.64446 3.8
      vertex -0.39939 2.26506 3.8
    endloop
  endfacet
  facet normal 0 0 1
    outer loop
      vertex -0.786646 2.16129 3.8
      vertex -0.874999 1.51554 3.8
      vertex -0.598535 1.64446 3.8
    endloop
  endfacet
  facet normal -0 0 1
    outer loop
      vertex -1.15 1.99186 3.8
      vertex -0.874999 1.51554 3.8
      vertex -0.786646 2.16129 3.8
    endloop
  endfacet
  facet normal 0 0 1
    outer loop
      vertex -0.874999 1.51554 3.8
      vertex -1.15 1.99186 3.8
      vertex -1.12488 1.34058 3.8
    endloop
  endfacet
  facet normal -0 0 1
    outer loop
      vertex -1.47841 1.7619 3.8
      vertex -1.12488 1.34058 3.8
      vertex -1.15 1.99186 3.8
    endloop
  endfacet
  facet normal 0 0 1
    outer loop
      vertex -1.12488 1.34058 3.8
      vertex -1.47841 1.7619 3.8
      vertex -1.34058 1.12488 3.8
    endloop
  endfacet
  facet normal -0 0 1
    outer loop
      vertex -1.7619 1.47841 3.8
      vertex -1.34058 1.12488 3.8
      vertex -1.47841 1.7619 3.8
    endloop
  endfacet
  facet normal 0 0 1
    outer loop
      vertex -1.34058 1.12488 3.8
      vertex -1.7619 1.47841 3.8
      vertex -1.51554 0.875 3.8
    endloop
  endfacet
  facet normal -0 0 1
    outer loop
      vertex -1.99186 1.15 3.8
      vertex -1.51554 0.875 3.8
      vertex -1.7619 1.47841 3.8
    endloop
  endfacet
  facet normal -0 0 1
    outer loop
      vertex -2.16129 0.786646 3.8
      vertex -1.64446 0.598535 3.8
      vertex -1.99186 1.15 3.8
    endloop
  endfacet
  facet normal 0 0 1
    outer loop
      vertex -1.51554 0.875 3.8
      vertex -1.99186 1.15 3.8
      vertex -1.64446 0.598535 3.8
    endloop
  endfacet
  facet normal 0 0 1
    outer loop
      vertex 2.16129 -0.786646 3.8
      vertex 1.64446 -0.598535 3.8
      vertex 1.99186 -1.15 3.8
    endloop
  endfacet
  facet normal -0 0 1
    outer loop
      vertex 1.51554 -0.874999 3.8
      vertex 1.99186 -1.15 3.8
      vertex 1.64446 -0.598535 3.8
    endloop
  endfacet
  facet normal 0 0 1
    outer loop
      vertex 1.99186 -1.15 3.8
      vertex 1.51554 -0.874999 3.8
      vertex 1.7619 -1.47841 3.8
    endloop
  endfacet
  facet normal -0 0 1
    outer loop
      vertex 1.34058 -1.12488 3.8
      vertex 1.7619 -1.47841 3.8
      vertex 1.51554 -0.874999 3.8
    endloop
  endfacet
  facet normal 0 0 1
    outer loop
      vertex 1.7619 -1.47841 3.8
      vertex 1.34058 -1.12488 3.8
      vertex 1.47841 -1.7619 3.8
    endloop
  endfacet
  facet normal -0 0 1
    outer loop
      vertex 1.12488 -1.34058 3.8
      vertex 1.47841 -1.7619 3.8
      vertex 1.34058 -1.12488 3.8
    endloop
  endfacet
  facet normal 0 0 1
    outer loop
      vertex 1.47841 -1.7619 3.8
      vertex 1.12488 -1.34058 3.8
      vertex 1.15 -1.99186 3.8
    endloop
  endfacet
  facet normal -0 0 1
    outer loop
      vertex 0.874999 -1.51554 3.8
      vertex 1.15 -1.99186 3.8
      vertex 1.12488 -1.34058 3.8
    endloop
  endfacet
  facet normal 0 0 1
    outer loop
      vertex 0.874999 -1.51554 3.8
      vertex 0.786646 -2.16129 3.8
      vertex 1.15 -1.99186 3.8
    endloop
  endfacet
  facet normal -0 0 1
    outer loop
      vertex 0.598535 -1.64446 3.8
      vertex 0.786646 -2.16129 3.8
      vertex 0.874999 -1.51554 3.8
    endloop
  endfacet
  facet normal 0 0 1
    outer loop
      vertex 0.598535 -1.64446 3.8
      vertex 0.39939 -2.26506 3.8
      vertex 0.786646 -2.16129 3.8
    endloop
  endfacet
  facet normal -0 0 1
    outer loop
      vertex 0.303884 -1.72341 3.8
      vertex 0.39939 -2.26506 3.8
      vertex 0.598535 -1.64446 3.8
    endloop
  endfacet
  facet normal -0 0 1
    outer loop
      vertex 0 -1.75 3.8
      vertex 0.39939 -2.26506 3.8
      vertex 0.303884 -1.72341 3.8
    endloop
  endfacet
  facet normal 0 0 1
    outer loop
      vertex 0 -1.75 3.8
      vertex 0 -2.3 3.8
      vertex 0.39939 -2.26506 3.8
    endloop
  endfacet
  facet normal 0 0 1
    outer loop
      vertex -0.303884 -1.72341 3.8
      vertex 0 -2.3 3.8
      vertex 0 -1.75 3.8
    endloop
  endfacet
  facet normal 0 0 1
    outer loop
      vertex -0.303884 -1.72341 3.8
      vertex -0.39939 -2.26506 3.8
      vertex 0 -2.3 3.8
    endloop
  endfacet
  facet normal 0 0 1
    outer loop
      vertex -0.598535 -1.64446 3.8
      vertex -0.39939 -2.26506 3.8
      vertex -0.303884 -1.72341 3.8
    endloop
  endfacet
  facet normal 0 0 1
    outer loop
      vertex -0.598535 -1.64446 3.8
      vertex -0.786646 -2.16129 3.8
      vertex -0.39939 -2.26506 3.8
    endloop
  endfacet
  facet normal 0 0 1
    outer loop
      vertex -0.875 -1.51554 3.8
      vertex -0.786646 -2.16129 3.8
      vertex -0.598535 -1.64446 3.8
    endloop
  endfacet
  facet normal 0 0 1
    outer loop
      vertex -1.15 -1.99186 3.8
      vertex -0.875 -1.51554 3.8
      vertex -1.12488 -1.34058 3.8
    endloop
  endfacet
  facet normal 0 0 1
    outer loop
      vertex -0.875 -1.51554 3.8
      vertex -1.15 -1.99186 3.8
      vertex -0.786646 -2.16129 3.8
    endloop
  endfacet
  facet normal 0 0 1
    outer loop
      vertex -1.47841 -1.7619 3.8
      vertex -1.12488 -1.34058 3.8
      vertex -1.34058 -1.12488 3.8
    endloop
  endfacet
  facet normal 0 0 1
    outer loop
      vertex -1.12488 -1.34058 3.8
      vertex -1.47841 -1.7619 3.8
      vertex -1.15 -1.99186 3.8
    endloop
  endfacet
  facet normal 0 0 1
    outer loop
      vertex -1.7619 -1.47841 3.8
      vertex -1.34058 -1.12488 3.8
      vertex -1.51554 -0.875 3.8
    endloop
  endfacet
  facet normal 0 0 1
    outer loop
      vertex -1.99186 -1.15 3.8
      vertex -1.51554 -0.875 3.8
      vertex -1.64446 -0.598535 3.8
    endloop
  endfacet
  facet normal 0 0 1
    outer loop
      vertex -2.16129 -0.786646 3.8
      vertex -1.64446 -0.598535 3.8
      vertex -1.72341 -0.303884 3.8
    endloop
  endfacet
  facet normal 0 0 1
    outer loop
      vertex -1.34058 -1.12488 3.8
      vertex -1.7619 -1.47841 3.8
      vertex -1.47841 -1.7619 3.8
    endloop
  endfacet
  facet normal 0 0 1
    outer loop
      vertex -2.26506 -0.39939 3.8
      vertex -1.72341 -0.303884 3.8
      vertex -1.75 0 3.8
    endloop
  endfacet
  facet normal 0 0 1
    outer loop
      vertex -1.64446 0.598535 3.8
      vertex -2.16129 0.786646 3.8
      vertex -1.72341 0.303884 3.8
    endloop
  endfacet
  facet normal -0 0 1
    outer loop
      vertex -2.26506 0.39939 3.8
      vertex -1.72341 0.303884 3.8
      vertex -2.16129 0.786646 3.8
    endloop
  endfacet
  facet normal 0 0 1
    outer loop
      vertex -1.51554 -0.875 3.8
      vertex -1.99186 -1.15 3.8
      vertex -1.7619 -1.47841 3.8
    endloop
  endfacet
  facet normal 0 0 1
    outer loop
      vertex -1.72341 0.303884 3.8
      vertex -2.26506 0.39939 3.8
      vertex -1.75 0 3.8
    endloop
  endfacet
  facet normal 0 0 1
    outer loop
      vertex -1.64446 -0.598535 3.8
      vertex -2.16129 -0.786646 3.8
      vertex -1.99186 -1.15 3.8
    endloop
  endfacet
  facet normal 0 0 1
    outer loop
      vertex -2.3 0 3.8
      vertex -1.75 0 3.8
      vertex -2.26506 0.39939 3.8
    endloop
  endfacet
  facet normal 0 0 1
    outer loop
      vertex -1.72341 -0.303884 3.8
      vertex -2.26506 -0.39939 3.8
      vertex -2.16129 -0.786646 3.8
    endloop
  endfacet
  facet normal 0 0 1
    outer loop
      vertex -1.75 0 3.8
      vertex -2.3 0 3.8
      vertex -2.26506 -0.39939 3.8
    endloop
  endfacet
  facet normal -0.573576 0.819152 0
    outer loop
      vertex -1.15 1.99186 3.3
      vertex -1.47841 1.7619 3.8
      vertex -1.15 1.99186 3.8
    endloop
  endfacet
  facet normal -0.573576 0.819152 0
    outer loop
      vertex -1.47841 1.7619 3.8
      vertex -1.15 1.99186 3.3
      vertex -1.47841 1.7619 3.3
    endloop
  endfacet
  facet normal -0.258821 0.965925 0
    outer loop
      vertex -0.39939 2.26506 3.3
      vertex -0.786646 2.16129 3.8
      vertex -0.39939 2.26506 3.8
    endloop
  endfacet
  facet normal -0.258821 0.965925 0
    outer loop
      vertex -0.786646 2.16129 3.8
      vertex -0.39939 2.26506 3.3
      vertex -0.786646 2.16129 3.3
    endloop
  endfacet
  facet normal 0.422618 0.906308 -0
    outer loop
      vertex 1.15 1.99186 3.3
      vertex 0.786646 2.16129 3.8
      vertex 1.15 1.99186 3.8
    endloop
  endfacet
  facet normal 0.422618 0.906308 0
    outer loop
      vertex 0.786646 2.16129 3.8
      vertex 1.15 1.99186 3.3
      vertex 0.786646 2.16129 3.3
    endloop
  endfacet
  facet normal 0.573576 -0.819152 0
    outer loop
      vertex 1.15 -1.99186 3.3
      vertex 1.47841 -1.7619 3.8
      vertex 1.15 -1.99186 3.8
    endloop
  endfacet
  facet normal 0.573576 -0.819152 0
    outer loop
      vertex 1.47841 -1.7619 3.8
      vertex 1.15 -1.99186 3.3
      vertex 1.47841 -1.7619 3.3
    endloop
  endfacet
  facet normal 0.707107 -0.707107 0
    outer loop
      vertex 1.47841 -1.7619 3.8
      vertex 1.7619 -1.47841 3.3
      vertex 1.7619 -1.47841 3.8
    endloop
  endfacet
  facet normal 0.707107 -0.707107 0
    outer loop
      vertex 1.7619 -1.47841 3.3
      vertex 1.47841 -1.7619 3.8
      vertex 1.47841 -1.7619 3.3
    endloop
  endfacet
  facet normal 0.996195 -0.0871546 0
    outer loop
      vertex 2.26506 -0.39939 3.8
      vertex 2.3 0 3.3
      vertex 2.3 0 3.8
    endloop
  endfacet
  facet normal 0.996195 -0.0871546 0
    outer loop
      vertex 2.3 0 3.3
      vertex 2.26506 -0.39939 3.8
      vertex 2.26506 -0.39939 3.3
    endloop
  endfacet
  facet normal -0.996195 -0.0871546 0
    outer loop
      vertex -2.26506 -0.39939 3.3
      vertex -2.3 0 3.8
      vertex -2.3 0 3.3
    endloop
  endfacet
  facet normal -0.996195 -0.0871546 0
    outer loop
      vertex -2.3 0 3.8
      vertex -2.26506 -0.39939 3.3
      vertex -2.26506 -0.39939 3.8
    endloop
  endfacet
  facet normal 0.258821 -0.965925 0
    outer loop
      vertex 0.39939 -2.26506 3.3
      vertex 0.786646 -2.16129 3.8
      vertex 0.39939 -2.26506 3.8
    endloop
  endfacet
  facet normal 0.258821 -0.965925 0
    outer loop
      vertex 0.786646 -2.16129 3.8
      vertex 0.39939 -2.26506 3.3
      vertex 0.786646 -2.16129 3.3
    endloop
  endfacet
  facet normal 0.906308 -0.422618 0
    outer loop
      vertex 1.99186 -1.15 3.8
      vertex 2.16129 -0.786646 3.3
      vertex 2.16129 -0.786646 3.8
    endloop
  endfacet
  facet normal 0.906308 -0.422618 0
    outer loop
      vertex 2.16129 -0.786646 3.3
      vertex 1.99186 -1.15 3.8
      vertex 1.99186 -1.15 3.3
    endloop
  endfacet
  facet normal -0.707107 -0.707107 0
    outer loop
      vertex -1.47841 -1.7619 3.3
      vertex -1.7619 -1.47841 3.8
      vertex -1.7619 -1.47841 3.3
    endloop
  endfacet
  facet normal -0.707107 -0.707107 0
    outer loop
      vertex -1.7619 -1.47841 3.8
      vertex -1.47841 -1.7619 3.3
      vertex -1.47841 -1.7619 3.8
    endloop
  endfacet
  facet normal -0.819152 -0.573576 0
    outer loop
      vertex -1.7619 -1.47841 3.3
      vertex -1.99186 -1.15 3.8
      vertex -1.99186 -1.15 3.3
    endloop
  endfacet
  facet normal -0.819152 -0.573576 0
    outer loop
      vertex -1.99186 -1.15 3.8
      vertex -1.7619 -1.47841 3.3
      vertex -1.7619 -1.47841 3.8
    endloop
  endfacet
  facet normal -0.965925 -0.258821 0
    outer loop
      vertex -2.16129 -0.786646 3.3
      vertex -2.26506 -0.39939 3.8
      vertex -2.26506 -0.39939 3.3
    endloop
  endfacet
  facet normal -0.965925 -0.258821 0
    outer loop
      vertex -2.26506 -0.39939 3.8
      vertex -2.16129 -0.786646 3.3
      vertex -2.16129 -0.786646 3.8
    endloop
  endfacet
  facet normal 0.422618 -0.906308 0
    outer loop
      vertex 0.786646 -2.16129 3.3
      vertex 1.15 -1.99186 3.8
      vertex 0.786646 -2.16129 3.8
    endloop
  endfacet
  facet normal 0.422618 -0.906308 0
    outer loop
      vertex 1.15 -1.99186 3.8
      vertex 0.786646 -2.16129 3.3
      vertex 1.15 -1.99186 3.3
    endloop
  endfacet
  facet normal 0.965925 -0.258821 0
    outer loop
      vertex 2.16129 -0.786646 3.8
      vertex 2.26506 -0.39939 3.3
      vertex 2.26506 -0.39939 3.8
    endloop
  endfacet
  facet normal 0.965925 -0.258821 0
    outer loop
      vertex 2.26506 -0.39939 3.3
      vertex 2.16129 -0.786646 3.8
      vertex 2.16129 -0.786646 3.3
    endloop
  endfacet
  facet normal -0.573576 -0.819152 0
    outer loop
      vertex -1.47841 -1.7619 3.3
      vertex -1.15 -1.99186 3.8
      vertex -1.47841 -1.7619 3.8
    endloop
  endfacet
  facet normal -0.573576 -0.819152 -0
    outer loop
      vertex -1.15 -1.99186 3.8
      vertex -1.47841 -1.7619 3.3
      vertex -1.15 -1.99186 3.3
    endloop
  endfacet
  facet normal -0.0871546 -0.996195 0
    outer loop
      vertex -0.39939 -2.26506 3.3
      vertex 0 -2.3 3.8
      vertex -0.39939 -2.26506 3.8
    endloop
  endfacet
  facet normal -0.0871546 -0.996195 -0
    outer loop
      vertex 0 -2.3 3.8
      vertex -0.39939 -2.26506 3.3
      vertex 0 -2.3 3.3
    endloop
  endfacet
  facet normal -0.906308 -0.422618 0
    outer loop
      vertex -1.99186 -1.15 3.3
      vertex -2.16129 -0.786646 3.8
      vertex -2.16129 -0.786646 3.3
    endloop
  endfacet
  facet normal -0.906308 -0.422618 0
    outer loop
      vertex -2.16129 -0.786646 3.8
      vertex -1.99186 -1.15 3.3
      vertex -1.99186 -1.15 3.8
    endloop
  endfacet
  facet normal -0.422618 -0.906308 0
    outer loop
      vertex -1.15 -1.99186 3.3
      vertex -0.786646 -2.16129 3.8
      vertex -1.15 -1.99186 3.8
    endloop
  endfacet
  facet normal -0.422618 -0.906308 -0
    outer loop
      vertex -0.786646 -2.16129 3.8
      vertex -1.15 -1.99186 3.3
      vertex -0.786646 -2.16129 3.3
    endloop
  endfacet
  facet normal -0.258821 -0.965925 0
    outer loop
      vertex -0.786646 -2.16129 3.3
      vertex -0.39939 -2.26506 3.8
      vertex -0.786646 -2.16129 3.8
    endloop
  endfacet
  facet normal -0.258821 -0.965925 -0
    outer loop
      vertex -0.39939 -2.26506 3.8
      vertex -0.786646 -2.16129 3.3
      vertex -0.39939 -2.26506 3.3
    endloop
  endfacet
endsolid OpenSCAD_Model
