solid OpenSCAD_Model
  facet normal -1 0 0
    outer loop
      vertex -2.875 -1.605 2.4
      vertex -2.875 -0.935001 5.4
      vertex -2.875 -0.935001 2.4
    endloop
  endfacet
  facet normal -1 -0 0
    outer loop
      vertex -2.875 -0.935001 5.4
      vertex -2.875 -1.605 2.4
      vertex -2.875 -1.605 5.4
    endloop
  endfacet
  facet normal -1 0 0
    outer loop
      vertex -2.875 -1.605 -5.85
      vertex -2.875 -0.935001 1.90735e-007
      vertex -2.875 -0.935001 -5.85
    endloop
  endfacet
  facet normal -1 -0 0
    outer loop
      vertex -2.875 -0.935001 1.90735e-007
      vertex -2.875 -1.605 -5.85
      vertex -2.875 -1.605 1.90735e-007
    endloop
  endfacet
  facet normal -0 0 1
    outer loop
      vertex -2.875 -0.935001 5.4
      vertex -2.205 -1.605 5.4
      vertex -2.205 -0.935001 5.4
    endloop
  endfacet
  facet normal 0 0 1
    outer loop
      vertex -2.205 -1.605 5.4
      vertex -2.875 -0.935001 5.4
      vertex -2.875 -1.605 5.4
    endloop
  endfacet
  facet normal 1 -0 0
    outer loop
      vertex -2.205 -1.605 5.4
      vertex -2.205 -0.935001 2.4
      vertex -2.205 -0.935001 5.4
    endloop
  endfacet
  facet normal 1 0 0
    outer loop
      vertex -2.205 -0.935001 2.4
      vertex -2.205 -1.605 5.4
      vertex -2.205 -1.605 2.4
    endloop
  endfacet
  facet normal 1 0 0
    outer loop
      vertex -2.205 -1.27 1.90735e-007
      vertex -2.205 -1.605 1.90735e-007
      vertex -2.205 -1.27 0
    endloop
  endfacet
  facet normal 1 -0 0
    outer loop
      vertex -2.205 -1.27 0
      vertex -2.205 -0.935001 -5.85
      vertex -2.205 -0.935001 0
    endloop
  endfacet
  facet normal 1 0 0
    outer loop
      vertex -2.205 -1.605 -5.85
      vertex -2.205 -1.27 0
      vertex -2.205 -1.605 1.90735e-007
    endloop
  endfacet
  facet normal 1 0 0
    outer loop
      vertex -2.205 -1.27 0
      vertex -2.205 -1.605 -5.85
      vertex -2.205 -0.935001 -5.85
    endloop
  endfacet
  facet normal 0 0 -1
    outer loop
      vertex -2.875 -1.605 -5.85
      vertex -2.205 -0.935001 -5.85
      vertex -2.205 -1.605 -5.85
    endloop
  endfacet
  facet normal -0 0 -1
    outer loop
      vertex -2.205 -0.935001 -5.85
      vertex -2.875 -1.605 -5.85
      vertex -2.875 -0.935001 -5.85
    endloop
  endfacet
  facet normal 0 -1 0
    outer loop
      vertex -2.875 -1.605 2.4
      vertex -2.205 -1.605 5.4
      vertex -2.875 -1.605 5.4
    endloop
  endfacet
  facet normal 0 -1 -0
    outer loop
      vertex -2.205 -1.605 5.4
      vertex -2.875 -1.605 2.4
      vertex -2.205 -1.605 2.4
    endloop
  endfacet
  facet normal 0 -1 0
    outer loop
      vertex -2.875 -1.605 -5.85
      vertex -2.205 -1.605 1.90735e-007
      vertex -2.875 -1.605 1.90735e-007
    endloop
  endfacet
  facet normal 0 -1 -0
    outer loop
      vertex -2.205 -1.605 1.90735e-007
      vertex -2.875 -1.605 -5.85
      vertex -2.205 -1.605 -5.85
    endloop
  endfacet
  facet normal 0 1 -0
    outer loop
      vertex -2.205 -0.935001 2.4
      vertex -2.875 -0.935001 5.4
      vertex -2.205 -0.935001 5.4
    endloop
  endfacet
  facet normal 0 1 0
    outer loop
      vertex -2.875 -0.935001 5.4
      vertex -2.205 -0.935001 2.4
      vertex -2.875 -0.935001 2.4
    endloop
  endfacet
  facet normal 0 1 0
    outer loop
      vertex -2.205 -0.935001 0
      vertex -2.205 -0.935001 -5.85
      vertex -2.54 -0.935001 0
    endloop
  endfacet
  facet normal 0 1 -0
    outer loop
      vertex -2.54 -0.935001 0
      vertex -2.875 -0.935001 1.90735e-007
      vertex -2.54 -0.935001 1.90735e-007
    endloop
  endfacet
  facet normal 0 1 0
    outer loop
      vertex -2.875 -0.935001 -5.85
      vertex -2.54 -0.935001 0
      vertex -2.205 -0.935001 -5.85
    endloop
  endfacet
  facet normal 0 1 0
    outer loop
      vertex -2.54 -0.935001 0
      vertex -2.875 -0.935001 -5.85
      vertex -2.875 -0.935001 1.90735e-007
    endloop
  endfacet
  facet normal -1 0 0
    outer loop
      vertex -3.72 -2.45 1.90735e-007
      vertex -3.72 -0.0900007 2.4
      vertex -3.72 -0.0900007 1.90735e-007
    endloop
  endfacet
  facet normal -1 -0 0
    outer loop
      vertex -3.72 -0.0900007 2.4
      vertex -3.72 -2.45 1.90735e-007
      vertex -3.72 -2.45 2.4
    endloop
  endfacet
  facet normal 0 0 1
    outer loop
      vertex -1.36 -0.0900007 2.4
      vertex -2.205 -0.935001 2.4
      vertex -1.36 -2.45 2.4
    endloop
  endfacet
  facet normal 0 0 1
    outer loop
      vertex -1.36 -0.0900007 2.4
      vertex -2.875 -0.935001 2.4
      vertex -2.205 -0.935001 2.4
    endloop
  endfacet
  facet normal 0 0 1
    outer loop
      vertex -2.875 -0.935001 2.4
      vertex -3.72 -0.0900007 2.4
      vertex -2.875 -1.605 2.4
    endloop
  endfacet
  facet normal -0 0 1
    outer loop
      vertex -3.72 -0.0900007 2.4
      vertex -2.875 -0.935001 2.4
      vertex -1.36 -0.0900007 2.4
    endloop
  endfacet
  facet normal -0 0 1
    outer loop
      vertex -2.205 -1.605 2.4
      vertex -1.36 -2.45 2.4
      vertex -2.205 -0.935001 2.4
    endloop
  endfacet
  facet normal -0 0 1
    outer loop
      vertex -2.875 -1.605 2.4
      vertex -1.36 -2.45 2.4
      vertex -2.205 -1.605 2.4
    endloop
  endfacet
  facet normal 0 0 1
    outer loop
      vertex -2.875 -1.605 2.4
      vertex -3.72 -2.45 2.4
      vertex -1.36 -2.45 2.4
    endloop
  endfacet
  facet normal 0 0 1
    outer loop
      vertex -3.72 -2.45 2.4
      vertex -2.875 -1.605 2.4
      vertex -3.72 -0.0900007 2.4
    endloop
  endfacet
  facet normal 1 0 0
    outer loop
      vertex -1.36 -0.0900007 2.4
      vertex -1.36 -1.27 2
      vertex -1.36 -0.0900007 2
    endloop
  endfacet
  facet normal 1 -0 0
    outer loop
      vertex -1.36 -2.45 2.4
      vertex -1.36 -1.27 2
      vertex -1.36 -0.0900007 2.4
    endloop
  endfacet
  facet normal 1 0 0
    outer loop
      vertex -1.36 -2.45 1.90735e-007
      vertex -1.36 -1.27 2
      vertex -1.36 -2.45 2.4
    endloop
  endfacet
  facet normal 1 0 0
    outer loop
      vertex -1.36 -1.27 2
      vertex -1.36 -2.45 1.90735e-007
      vertex -1.36 -1.27 1.90735e-007
    endloop
  endfacet
  facet normal 0 1 0
    outer loop
      vertex -2.54 -0.0900007 2
      vertex -1.36 -0.0900007 2.4
      vertex -1.36 -0.0900007 2
    endloop
  endfacet
  facet normal 0 1 0
    outer loop
      vertex -1.36 -0.0900007 2.4
      vertex -2.54 -0.0900007 2
      vertex -3.72 -0.0900007 2.4
    endloop
  endfacet
  facet normal 0 1 0
    outer loop
      vertex -3.72 -0.0900007 1.90735e-007
      vertex -2.54 -0.0900007 2
      vertex -2.54 -0.0900007 1.90735e-007
    endloop
  endfacet
  facet normal 0 1 0
    outer loop
      vertex -2.54 -0.0900007 2
      vertex -3.72 -0.0900007 1.90735e-007
      vertex -3.72 -0.0900007 2.4
    endloop
  endfacet
  facet normal 0 0 -1
    outer loop
      vertex -1.36 -2.45 1.90735e-007
      vertex -2.205 -1.605 1.90735e-007
      vertex -1.36 -1.27 1.90735e-007
    endloop
  endfacet
  facet normal 0 0 -1
    outer loop
      vertex -1.36 -2.45 1.90735e-007
      vertex -2.875 -1.605 1.90735e-007
      vertex -2.205 -1.605 1.90735e-007
    endloop
  endfacet
  facet normal -0 0 -1
    outer loop
      vertex -2.875 -1.605 1.90735e-007
      vertex -3.72 -2.45 1.90735e-007
      vertex -2.875 -0.935001 1.90735e-007
    endloop
  endfacet
  facet normal 0 0 -1
    outer loop
      vertex -3.72 -2.45 1.90735e-007
      vertex -2.875 -1.605 1.90735e-007
      vertex -1.36 -2.45 1.90735e-007
    endloop
  endfacet
  facet normal -0 0 -1
    outer loop
      vertex -1.36 -1.27 1.90735e-007
      vertex -2.205 -1.605 1.90735e-007
      vertex -2.205 -1.27 1.90735e-007
    endloop
  endfacet
  facet normal 0 0 -1
    outer loop
      vertex -2.875 -0.935001 1.90735e-007
      vertex -2.54 -0.0900007 1.90735e-007
      vertex -2.54 -0.935001 1.90735e-007
    endloop
  endfacet
  facet normal 0 0 -1
    outer loop
      vertex -3.72 -0.0900007 1.90735e-007
      vertex -2.875 -0.935001 1.90735e-007
      vertex -3.72 -2.45 1.90735e-007
    endloop
  endfacet
  facet normal 0 0 -1
    outer loop
      vertex -2.875 -0.935001 1.90735e-007
      vertex -3.72 -0.0900007 1.90735e-007
      vertex -2.54 -0.0900007 1.90735e-007
    endloop
  endfacet
  facet normal 0 -1 0
    outer loop
      vertex -3.72 -2.45 1.90735e-007
      vertex -1.36 -2.45 2.4
      vertex -3.72 -2.45 2.4
    endloop
  endfacet
  facet normal 0 -1 -0
    outer loop
      vertex -1.36 -2.45 2.4
      vertex -3.72 -2.45 1.90735e-007
      vertex -1.36 -2.45 1.90735e-007
    endloop
  endfacet
  facet normal -1 0 0
    outer loop
      vertex -2.875 0.935001 2.4
      vertex -2.875 1.605 5.4
      vertex -2.875 1.605 2.4
    endloop
  endfacet
  facet normal -1 -0 0
    outer loop
      vertex -2.875 1.605 5.4
      vertex -2.875 0.935001 2.4
      vertex -2.875 0.935001 5.4
    endloop
  endfacet
  facet normal -1 0 0
    outer loop
      vertex -2.875 0.935001 -5.85
      vertex -2.875 1.605 1.90735e-007
      vertex -2.875 1.605 -5.85
    endloop
  endfacet
  facet normal -1 -0 0
    outer loop
      vertex -2.875 1.605 1.90735e-007
      vertex -2.875 0.935001 -5.85
      vertex -2.875 0.935001 1.90735e-007
    endloop
  endfacet
  facet normal -0 0 1
    outer loop
      vertex -2.875 1.605 5.4
      vertex -2.205 0.935001 5.4
      vertex -2.205 1.605 5.4
    endloop
  endfacet
  facet normal 0 0 1
    outer loop
      vertex -2.205 0.935001 5.4
      vertex -2.875 1.605 5.4
      vertex -2.875 0.935001 5.4
    endloop
  endfacet
  facet normal 1 -0 0
    outer loop
      vertex -2.205 0.935001 5.4
      vertex -2.205 1.605 2.4
      vertex -2.205 1.605 5.4
    endloop
  endfacet
  facet normal 1 0 0
    outer loop
      vertex -2.205 1.605 2.4
      vertex -2.205 0.935001 5.4
      vertex -2.205 0.935001 2.4
    endloop
  endfacet
  facet normal 1 0 0
    outer loop
      vertex -2.205 1.27 0
      vertex -2.205 1.605 1.90735e-007
      vertex -2.205 1.27 1.90735e-007
    endloop
  endfacet
  facet normal 1 0 0
    outer loop
      vertex -2.205 1.605 1.90735e-007
      vertex -2.205 1.27 0
      vertex -2.205 1.605 -5.85
    endloop
  endfacet
  facet normal 1 0 0
    outer loop
      vertex -2.205 0.935001 -5.85
      vertex -2.205 1.27 0
      vertex -2.205 0.935001 0
    endloop
  endfacet
  facet normal 1 0 0
    outer loop
      vertex -2.205 1.27 0
      vertex -2.205 0.935001 -5.85
      vertex -2.205 1.605 -5.85
    endloop
  endfacet
  facet normal 0 0 -1
    outer loop
      vertex -2.875 0.935001 -5.85
      vertex -2.205 1.605 -5.85
      vertex -2.205 0.935001 -5.85
    endloop
  endfacet
  facet normal -0 0 -1
    outer loop
      vertex -2.205 1.605 -5.85
      vertex -2.875 0.935001 -5.85
      vertex -2.875 1.605 -5.85
    endloop
  endfacet
  facet normal 0 -1 0
    outer loop
      vertex -2.875 0.935001 2.4
      vertex -2.205 0.935001 5.4
      vertex -2.875 0.935001 5.4
    endloop
  endfacet
  facet normal 0 -1 -0
    outer loop
      vertex -2.205 0.935001 5.4
      vertex -2.875 0.935001 2.4
      vertex -2.205 0.935001 2.4
    endloop
  endfacet
  facet normal 0 -1 0
    outer loop
      vertex -2.875 0.935001 1.90735e-007
      vertex -2.54 0.935001 0
      vertex -2.54 0.935001 1.90735e-007
    endloop
  endfacet
  facet normal 0 -1 0
    outer loop
      vertex -2.875 0.935001 -5.85
      vertex -2.54 0.935001 0
      vertex -2.875 0.935001 1.90735e-007
    endloop
  endfacet
  facet normal 0 -1 0
    outer loop
      vertex -2.205 0.935001 -5.85
      vertex -2.54 0.935001 0
      vertex -2.875 0.935001 -5.85
    endloop
  endfacet
  facet normal 0 -1 0
    outer loop
      vertex -2.54 0.935001 0
      vertex -2.205 0.935001 -5.85
      vertex -2.205 0.935001 0
    endloop
  endfacet
  facet normal 0 1 -0
    outer loop
      vertex -2.205 1.605 2.4
      vertex -2.875 1.605 5.4
      vertex -2.205 1.605 5.4
    endloop
  endfacet
  facet normal 0 1 0
    outer loop
      vertex -2.875 1.605 5.4
      vertex -2.205 1.605 2.4
      vertex -2.875 1.605 2.4
    endloop
  endfacet
  facet normal 0 1 -0
    outer loop
      vertex -2.205 1.605 -5.85
      vertex -2.875 1.605 1.90735e-007
      vertex -2.205 1.605 1.90735e-007
    endloop
  endfacet
  facet normal 0 1 0
    outer loop
      vertex -2.875 1.605 1.90735e-007
      vertex -2.205 1.605 -5.85
      vertex -2.875 1.605 -5.85
    endloop
  endfacet
  facet normal -1 0 0
    outer loop
      vertex -3.72 0.0900007 1.90735e-007
      vertex -3.72 2.45 2.4
      vertex -3.72 2.45 1.90735e-007
    endloop
  endfacet
  facet normal -1 -0 0
    outer loop
      vertex -3.72 2.45 2.4
      vertex -3.72 0.0900007 1.90735e-007
      vertex -3.72 0.0900007 2.4
    endloop
  endfacet
  facet normal 0 0 1
    outer loop
      vertex -1.36 2.45 2.4
      vertex -2.205 1.605 2.4
      vertex -1.36 0.0900007 2.4
    endloop
  endfacet
  facet normal 0 0 1
    outer loop
      vertex -1.36 2.45 2.4
      vertex -2.875 1.605 2.4
      vertex -2.205 1.605 2.4
    endloop
  endfacet
  facet normal 0 0 1
    outer loop
      vertex -2.875 1.605 2.4
      vertex -3.72 2.45 2.4
      vertex -2.875 0.935001 2.4
    endloop
  endfacet
  facet normal -0 0 1
    outer loop
      vertex -3.72 2.45 2.4
      vertex -2.875 1.605 2.4
      vertex -1.36 2.45 2.4
    endloop
  endfacet
  facet normal -0 0 1
    outer loop
      vertex -2.205 0.935001 2.4
      vertex -1.36 0.0900007 2.4
      vertex -2.205 1.605 2.4
    endloop
  endfacet
  facet normal -0 0 1
    outer loop
      vertex -2.875 0.935001 2.4
      vertex -1.36 0.0900007 2.4
      vertex -2.205 0.935001 2.4
    endloop
  endfacet
  facet normal 0 0 1
    outer loop
      vertex -2.875 0.935001 2.4
      vertex -3.72 0.0900007 2.4
      vertex -1.36 0.0900007 2.4
    endloop
  endfacet
  facet normal 0 0 1
    outer loop
      vertex -3.72 0.0900007 2.4
      vertex -2.875 0.935001 2.4
      vertex -3.72 2.45 2.4
    endloop
  endfacet
  facet normal 1 0 0
    outer loop
      vertex -1.36 2.45 2.4
      vertex -1.36 1.27 2
      vertex -1.36 2.45 1.90735e-007
    endloop
  endfacet
  facet normal 1 -0 0
    outer loop
      vertex -1.36 0.0900007 2.4
      vertex -1.36 1.27 2
      vertex -1.36 2.45 2.4
    endloop
  endfacet
  facet normal 1 0 0
    outer loop
      vertex -1.36 1.27 2
      vertex -1.36 0.0900007 2.4
      vertex -1.36 0.0900007 2
    endloop
  endfacet
  facet normal 1 0 0
    outer loop
      vertex -1.36 2.45 1.90735e-007
      vertex -1.36 1.27 2
      vertex -1.36 1.27 1.90735e-007
    endloop
  endfacet
  facet normal 0 1 -0
    outer loop
      vertex -1.36 2.45 1.90735e-007
      vertex -3.72 2.45 2.4
      vertex -1.36 2.45 2.4
    endloop
  endfacet
  facet normal 0 1 0
    outer loop
      vertex -3.72 2.45 2.4
      vertex -1.36 2.45 1.90735e-007
      vertex -3.72 2.45 1.90735e-007
    endloop
  endfacet
  facet normal 0 0 -1
    outer loop
      vertex -2.54 0.0900007 1.90735e-007
      vertex -2.875 0.935001 1.90735e-007
      vertex -2.54 0.935001 1.90735e-007
    endloop
  endfacet
  facet normal -0 0 -1
    outer loop
      vertex -2.875 0.935001 1.90735e-007
      vertex -3.72 0.0900007 1.90735e-007
      vertex -2.875 1.605 1.90735e-007
    endloop
  endfacet
  facet normal 0 0 -1
    outer loop
      vertex -3.72 0.0900007 1.90735e-007
      vertex -2.875 0.935001 1.90735e-007
      vertex -2.54 0.0900007 1.90735e-007
    endloop
  endfacet
  facet normal 0 0 -1
    outer loop
      vertex -2.205 1.605 1.90735e-007
      vertex -1.36 1.27 1.90735e-007
      vertex -2.205 1.27 1.90735e-007
    endloop
  endfacet
  facet normal 0 0 -1
    outer loop
      vertex -1.36 1.27 1.90735e-007
      vertex -2.205 1.605 1.90735e-007
      vertex -1.36 2.45 1.90735e-007
    endloop
  endfacet
  facet normal 0 0 -1
    outer loop
      vertex -2.875 1.605 1.90735e-007
      vertex -1.36 2.45 1.90735e-007
      vertex -2.205 1.605 1.90735e-007
    endloop
  endfacet
  facet normal 0 0 -1
    outer loop
      vertex -2.875 1.605 1.90735e-007
      vertex -3.72 2.45 1.90735e-007
      vertex -1.36 2.45 1.90735e-007
    endloop
  endfacet
  facet normal 0 0 -1
    outer loop
      vertex -3.72 2.45 1.90735e-007
      vertex -2.875 1.605 1.90735e-007
      vertex -3.72 0.0900007 1.90735e-007
    endloop
  endfacet
  facet normal 0 -1 0
    outer loop
      vertex -3.72 0.0900007 2.4
      vertex -2.54 0.0900007 2
      vertex -1.36 0.0900007 2.4
    endloop
  endfacet
  facet normal 0 -1 0
    outer loop
      vertex -3.72 0.0900007 1.90735e-007
      vertex -2.54 0.0900007 2
      vertex -3.72 0.0900007 2.4
    endloop
  endfacet
  facet normal 0 -1 -0
    outer loop
      vertex -2.54 0.0900007 2
      vertex -3.72 0.0900007 1.90735e-007
      vertex -2.54 0.0900007 1.90735e-007
    endloop
  endfacet
  facet normal 0 -1 -0
    outer loop
      vertex -1.36 0.0900007 2.4
      vertex -2.54 0.0900007 2
      vertex -1.36 0.0900007 2
    endloop
  endfacet
  facet normal -1 0 0
    outer loop
      vertex -0.334999 -1.605 2.4
      vertex -0.334999 -0.935001 5.4
      vertex -0.334999 -0.935001 2.4
    endloop
  endfacet
  facet normal -1 -0 0
    outer loop
      vertex -0.334999 -0.935001 5.4
      vertex -0.334999 -1.605 2.4
      vertex -0.334999 -1.605 5.4
    endloop
  endfacet
  facet normal -1 0 0
    outer loop
      vertex -0.334999 -0.935001 -5.85
      vertex -0.334999 -1.27 0
      vertex -0.334999 -0.935001 0
    endloop
  endfacet
  facet normal -1 0 0
    outer loop
      vertex -0.334999 -1.605 -5.85
      vertex -0.334999 -1.27 0
      vertex -0.334999 -0.935001 -5.85
    endloop
  endfacet
  facet normal -1 0 0
    outer loop
      vertex -0.334999 -1.605 1.90735e-007
      vertex -0.334999 -1.27 0
      vertex -0.334999 -1.605 -5.85
    endloop
  endfacet
  facet normal -1 0 0
    outer loop
      vertex -0.334999 -1.27 0
      vertex -0.334999 -1.605 1.90735e-007
      vertex -0.334999 -1.27 1.90735e-007
    endloop
  endfacet
  facet normal -0 0 1
    outer loop
      vertex -0.334999 -0.935001 5.4
      vertex 0.334999 -1.605 5.4
      vertex 0.334999 -0.935001 5.4
    endloop
  endfacet
  facet normal 0 0 1
    outer loop
      vertex 0.334999 -1.605 5.4
      vertex -0.334999 -0.935001 5.4
      vertex -0.334999 -1.605 5.4
    endloop
  endfacet
  facet normal 1 -0 0
    outer loop
      vertex 0.334999 -1.605 5.4
      vertex 0.334999 -0.935001 2.4
      vertex 0.334999 -0.935001 5.4
    endloop
  endfacet
  facet normal 1 0 0
    outer loop
      vertex 0.334999 -0.935001 2.4
      vertex 0.334999 -1.605 5.4
      vertex 0.334999 -1.605 2.4
    endloop
  endfacet
  facet normal 1 0 0
    outer loop
      vertex 0.334999 -1.27 1.90735e-007
      vertex 0.334999 -1.605 1.90735e-007
      vertex 0.334999 -1.27 0
    endloop
  endfacet
  facet normal 1 -0 0
    outer loop
      vertex 0.334999 -1.27 0
      vertex 0.334999 -0.935001 -5.85
      vertex 0.334999 -0.935001 0
    endloop
  endfacet
  facet normal 1 0 0
    outer loop
      vertex 0.334999 -1.605 -5.85
      vertex 0.334999 -1.27 0
      vertex 0.334999 -1.605 1.90735e-007
    endloop
  endfacet
  facet normal 1 0 0
    outer loop
      vertex 0.334999 -1.27 0
      vertex 0.334999 -1.605 -5.85
      vertex 0.334999 -0.935001 -5.85
    endloop
  endfacet
  facet normal 0 0 -1
    outer loop
      vertex -0.334999 -1.605 -5.85
      vertex 0.334999 -0.935001 -5.85
      vertex 0.334999 -1.605 -5.85
    endloop
  endfacet
  facet normal -0 0 -1
    outer loop
      vertex 0.334999 -0.935001 -5.85
      vertex -0.334999 -1.605 -5.85
      vertex -0.334999 -0.935001 -5.85
    endloop
  endfacet
  facet normal 0 -1 0
    outer loop
      vertex -0.334999 -1.605 2.4
      vertex 0.334999 -1.605 5.4
      vertex -0.334999 -1.605 5.4
    endloop
  endfacet
  facet normal 0 -1 -0
    outer loop
      vertex 0.334999 -1.605 5.4
      vertex -0.334999 -1.605 2.4
      vertex 0.334999 -1.605 2.4
    endloop
  endfacet
  facet normal 0 -1 0
    outer loop
      vertex -0.334999 -1.605 -5.85
      vertex 0.334999 -1.605 1.90735e-007
      vertex -0.334999 -1.605 1.90735e-007
    endloop
  endfacet
  facet normal 0 -1 -0
    outer loop
      vertex 0.334999 -1.605 1.90735e-007
      vertex -0.334999 -1.605 -5.85
      vertex 0.334999 -1.605 -5.85
    endloop
  endfacet
  facet normal 0 1 -0
    outer loop
      vertex 0.334999 -0.935001 2.4
      vertex -0.334999 -0.935001 5.4
      vertex 0.334999 -0.935001 5.4
    endloop
  endfacet
  facet normal 0 1 0
    outer loop
      vertex -0.334999 -0.935001 5.4
      vertex 0.334999 -0.935001 2.4
      vertex -0.334999 -0.935001 2.4
    endloop
  endfacet
  facet normal 0 1 -0
    outer loop
      vertex 0.334999 -0.935001 -5.85
      vertex -0.334999 -0.935001 0
      vertex 0.334999 -0.935001 0
    endloop
  endfacet
  facet normal 0 1 0
    outer loop
      vertex -0.334999 -0.935001 0
      vertex 0.334999 -0.935001 -5.85
      vertex -0.334999 -0.935001 -5.85
    endloop
  endfacet
  facet normal -1 0 0
    outer loop
      vertex -1.18 -1.27 1.90735e-007
      vertex -1.18 -2.45 1.90735e-007
      vertex -1.18 -1.27 2
    endloop
  endfacet
  facet normal -1 0 0
    outer loop
      vertex -1.18 -1.27 2
      vertex -1.18 -0.0900007 2.4
      vertex -1.18 -0.0900007 2
    endloop
  endfacet
  facet normal -1 0 0
    outer loop
      vertex -1.18 -1.27 2
      vertex -1.18 -2.45 2.4
      vertex -1.18 -0.0900007 2.4
    endloop
  endfacet
  facet normal -1 0 0
    outer loop
      vertex -1.18 -2.45 2.4
      vertex -1.18 -1.27 2
      vertex -1.18 -2.45 1.90735e-007
    endloop
  endfacet
  facet normal 0 0 1
    outer loop
      vertex 1.18 -0.0900007 2.4
      vertex 0.334999 -0.935001 2.4
      vertex 1.18 -2.45 2.4
    endloop
  endfacet
  facet normal 0 0 1
    outer loop
      vertex 1.18 -0.0900007 2.4
      vertex -0.334999 -0.935001 2.4
      vertex 0.334999 -0.935001 2.4
    endloop
  endfacet
  facet normal 0 0 1
    outer loop
      vertex -0.334999 -0.935001 2.4
      vertex -1.18 -0.0900007 2.4
      vertex -0.334999 -1.605 2.4
    endloop
  endfacet
  facet normal -0 0 1
    outer loop
      vertex -1.18 -0.0900007 2.4
      vertex -0.334999 -0.935001 2.4
      vertex 1.18 -0.0900007 2.4
    endloop
  endfacet
  facet normal -0 0 1
    outer loop
      vertex 0.334999 -1.605 2.4
      vertex 1.18 -2.45 2.4
      vertex 0.334999 -0.935001 2.4
    endloop
  endfacet
  facet normal -0 0 1
    outer loop
      vertex -0.334999 -1.605 2.4
      vertex 1.18 -2.45 2.4
      vertex 0.334999 -1.605 2.4
    endloop
  endfacet
  facet normal 0 0 1
    outer loop
      vertex -0.334999 -1.605 2.4
      vertex -1.18 -2.45 2.4
      vertex 1.18 -2.45 2.4
    endloop
  endfacet
  facet normal 0 0 1
    outer loop
      vertex -1.18 -2.45 2.4
      vertex -0.334999 -1.605 2.4
      vertex -1.18 -0.0900007 2.4
    endloop
  endfacet
  facet normal 1 0 0
    outer loop
      vertex 1.18 -0.0900007 2.4
      vertex 1.18 -1.27 2
      vertex 1.18 -0.0900007 2
    endloop
  endfacet
  facet normal 1 -0 0
    outer loop
      vertex 1.18 -2.45 2.4
      vertex 1.18 -1.27 2
      vertex 1.18 -0.0900007 2.4
    endloop
  endfacet
  facet normal 1 0 0
    outer loop
      vertex 1.18 -2.45 1.90735e-007
      vertex 1.18 -1.27 2
      vertex 1.18 -2.45 2.4
    endloop
  endfacet
  facet normal 1 0 0
    outer loop
      vertex 1.18 -1.27 2
      vertex 1.18 -2.45 1.90735e-007
      vertex 1.18 -1.27 1.90735e-007
    endloop
  endfacet
  facet normal 0 1 -0
    outer loop
      vertex 1.18 -0.0900007 2
      vertex -1.18 -0.0900007 2.4
      vertex 1.18 -0.0900007 2.4
    endloop
  endfacet
  facet normal 0 1 0
    outer loop
      vertex -1.18 -0.0900007 2.4
      vertex 1.18 -0.0900007 2
      vertex -1.18 -0.0900007 2
    endloop
  endfacet
  facet normal 0 0 -1
    outer loop
      vertex 1.18 -2.45 1.90735e-007
      vertex 0.334999 -1.605 1.90735e-007
      vertex 1.18 -1.27 1.90735e-007
    endloop
  endfacet
  facet normal 0 0 -1
    outer loop
      vertex 1.18 -2.45 1.90735e-007
      vertex -0.334999 -1.605 1.90735e-007
      vertex 0.334999 -1.605 1.90735e-007
    endloop
  endfacet
  facet normal 0 0 -1
    outer loop
      vertex -1.18 -2.45 1.90735e-007
      vertex -0.334999 -1.605 1.90735e-007
      vertex 1.18 -2.45 1.90735e-007
    endloop
  endfacet
  facet normal 0 0 -1
    outer loop
      vertex -1.18 -1.27 1.90735e-007
      vertex -0.334999 -1.605 1.90735e-007
      vertex -1.18 -2.45 1.90735e-007
    endloop
  endfacet
  facet normal 0 0 -1
    outer loop
      vertex -0.334999 -1.605 1.90735e-007
      vertex -1.18 -1.27 1.90735e-007
      vertex -0.334999 -1.27 1.90735e-007
    endloop
  endfacet
  facet normal -0 0 -1
    outer loop
      vertex 1.18 -1.27 1.90735e-007
      vertex 0.334999 -1.605 1.90735e-007
      vertex 0.334999 -1.27 1.90735e-007
    endloop
  endfacet
  facet normal 0 -1 0
    outer loop
      vertex -1.18 -2.45 1.90735e-007
      vertex 1.18 -2.45 2.4
      vertex -1.18 -2.45 2.4
    endloop
  endfacet
  facet normal 0 -1 -0
    outer loop
      vertex 1.18 -2.45 2.4
      vertex -1.18 -2.45 1.90735e-007
      vertex 1.18 -2.45 1.90735e-007
    endloop
  endfacet
  facet normal -1 0 0
    outer loop
      vertex -0.334999 0.935001 2.4
      vertex -0.334999 1.605 5.4
      vertex -0.334999 1.605 2.4
    endloop
  endfacet
  facet normal -1 -0 0
    outer loop
      vertex -0.334999 1.605 5.4
      vertex -0.334999 0.935001 2.4
      vertex -0.334999 0.935001 5.4
    endloop
  endfacet
  facet normal -1 0 0
    outer loop
      vertex -0.334999 1.605 -5.85
      vertex -0.334999 1.27 0
      vertex -0.334999 1.605 1.90735e-007
    endloop
  endfacet
  facet normal -1 0 0
    outer loop
      vertex -0.334999 0.935001 -5.85
      vertex -0.334999 1.27 0
      vertex -0.334999 1.605 -5.85
    endloop
  endfacet
  facet normal -1 -0 0
    outer loop
      vertex -0.334999 1.27 0
      vertex -0.334999 0.935001 -5.85
      vertex -0.334999 0.935001 0
    endloop
  endfacet
  facet normal -1 -0 0
    outer loop
      vertex -0.334999 1.605 1.90735e-007
      vertex -0.334999 1.27 0
      vertex -0.334999 1.27 1.90735e-007
    endloop
  endfacet
  facet normal -0 0 1
    outer loop
      vertex -0.334999 1.605 5.4
      vertex 0.334999 0.935001 5.4
      vertex 0.334999 1.605 5.4
    endloop
  endfacet
  facet normal 0 0 1
    outer loop
      vertex 0.334999 0.935001 5.4
      vertex -0.334999 1.605 5.4
      vertex -0.334999 0.935001 5.4
    endloop
  endfacet
  facet normal 1 -0 0
    outer loop
      vertex 0.334999 0.935001 5.4
      vertex 0.334999 1.605 2.4
      vertex 0.334999 1.605 5.4
    endloop
  endfacet
  facet normal 1 0 0
    outer loop
      vertex 0.334999 1.605 2.4
      vertex 0.334999 0.935001 5.4
      vertex 0.334999 0.935001 2.4
    endloop
  endfacet
  facet normal 1 0 0
    outer loop
      vertex 0.334999 1.27 0
      vertex 0.334999 1.605 1.90735e-007
      vertex 0.334999 1.27 1.90735e-007
    endloop
  endfacet
  facet normal 1 0 0
    outer loop
      vertex 0.334999 1.605 1.90735e-007
      vertex 0.334999 1.27 0
      vertex 0.334999 1.605 -5.85
    endloop
  endfacet
  facet normal 1 0 0
    outer loop
      vertex 0.334999 0.935001 -5.85
      vertex 0.334999 1.27 0
      vertex 0.334999 0.935001 0
    endloop
  endfacet
  facet normal 1 0 0
    outer loop
      vertex 0.334999 1.27 0
      vertex 0.334999 0.935001 -5.85
      vertex 0.334999 1.605 -5.85
    endloop
  endfacet
  facet normal 0 0 -1
    outer loop
      vertex -0.334999 0.935001 -5.85
      vertex 0.334999 1.605 -5.85
      vertex 0.334999 0.935001 -5.85
    endloop
  endfacet
  facet normal -0 0 -1
    outer loop
      vertex 0.334999 1.605 -5.85
      vertex -0.334999 0.935001 -5.85
      vertex -0.334999 1.605 -5.85
    endloop
  endfacet
  facet normal 0 -1 0
    outer loop
      vertex -0.334999 0.935001 2.4
      vertex 0.334999 0.935001 5.4
      vertex -0.334999 0.935001 5.4
    endloop
  endfacet
  facet normal 0 -1 -0
    outer loop
      vertex 0.334999 0.935001 5.4
      vertex -0.334999 0.935001 2.4
      vertex 0.334999 0.935001 2.4
    endloop
  endfacet
  facet normal 0 -1 0
    outer loop
      vertex -0.334999 0.935001 -5.85
      vertex 0.334999 0.935001 0
      vertex -0.334999 0.935001 0
    endloop
  endfacet
  facet normal 0 -1 -0
    outer loop
      vertex 0.334999 0.935001 0
      vertex -0.334999 0.935001 -5.85
      vertex 0.334999 0.935001 -5.85
    endloop
  endfacet
  facet normal 0 1 -0
    outer loop
      vertex 0.334999 1.605 2.4
      vertex -0.334999 1.605 5.4
      vertex 0.334999 1.605 5.4
    endloop
  endfacet
  facet normal 0 1 0
    outer loop
      vertex -0.334999 1.605 5.4
      vertex 0.334999 1.605 2.4
      vertex -0.334999 1.605 2.4
    endloop
  endfacet
  facet normal 0 1 -0
    outer loop
      vertex 0.334999 1.605 -5.85
      vertex -0.334999 1.605 1.90735e-007
      vertex 0.334999 1.605 1.90735e-007
    endloop
  endfacet
  facet normal 0 1 0
    outer loop
      vertex -0.334999 1.605 1.90735e-007
      vertex 0.334999 1.605 -5.85
      vertex -0.334999 1.605 -5.85
    endloop
  endfacet
  facet normal -1 0 0
    outer loop
      vertex -1.18 1.27 2
      vertex -1.18 2.45 1.90735e-007
      vertex -1.18 1.27 1.90735e-007
    endloop
  endfacet
  facet normal -1 0 0
    outer loop
      vertex -1.18 2.45 1.90735e-007
      vertex -1.18 1.27 2
      vertex -1.18 2.45 2.4
    endloop
  endfacet
  facet normal -1 0 0
    outer loop
      vertex -1.18 0.0900007 2.4
      vertex -1.18 1.27 2
      vertex -1.18 0.0900007 2
    endloop
  endfacet
  facet normal -1 0 0
    outer loop
      vertex -1.18 1.27 2
      vertex -1.18 0.0900007 2.4
      vertex -1.18 2.45 2.4
    endloop
  endfacet
  facet normal 0 0 1
    outer loop
      vertex 1.18 2.45 2.4
      vertex 0.334999 1.605 2.4
      vertex 1.18 0.0900007 2.4
    endloop
  endfacet
  facet normal 0 0 1
    outer loop
      vertex 1.18 2.45 2.4
      vertex -0.334999 1.605 2.4
      vertex 0.334999 1.605 2.4
    endloop
  endfacet
  facet normal 0 0 1
    outer loop
      vertex -0.334999 1.605 2.4
      vertex -1.18 2.45 2.4
      vertex -0.334999 0.935001 2.4
    endloop
  endfacet
  facet normal -0 0 1
    outer loop
      vertex -1.18 2.45 2.4
      vertex -0.334999 1.605 2.4
      vertex 1.18 2.45 2.4
    endloop
  endfacet
  facet normal -0 0 1
    outer loop
      vertex 0.334999 0.935001 2.4
      vertex 1.18 0.0900007 2.4
      vertex 0.334999 1.605 2.4
    endloop
  endfacet
  facet normal -0 0 1
    outer loop
      vertex -0.334999 0.935001 2.4
      vertex 1.18 0.0900007 2.4
      vertex 0.334999 0.935001 2.4
    endloop
  endfacet
  facet normal 0 0 1
    outer loop
      vertex -0.334999 0.935001 2.4
      vertex -1.18 0.0900007 2.4
      vertex 1.18 0.0900007 2.4
    endloop
  endfacet
  facet normal 0 0 1
    outer loop
      vertex -1.18 0.0900007 2.4
      vertex -0.334999 0.935001 2.4
      vertex -1.18 2.45 2.4
    endloop
  endfacet
  facet normal 1 0 0
    outer loop
      vertex 1.18 2.45 2.4
      vertex 1.18 1.27 2
      vertex 1.18 2.45 1.90735e-007
    endloop
  endfacet
  facet normal 1 -0 0
    outer loop
      vertex 1.18 0.0900007 2.4
      vertex 1.18 1.27 2
      vertex 1.18 2.45 2.4
    endloop
  endfacet
  facet normal 1 0 0
    outer loop
      vertex 1.18 1.27 2
      vertex 1.18 0.0900007 2.4
      vertex 1.18 0.0900007 2
    endloop
  endfacet
  facet normal 1 0 0
    outer loop
      vertex 1.18 2.45 1.90735e-007
      vertex 1.18 1.27 2
      vertex 1.18 1.27 1.90735e-007
    endloop
  endfacet
  facet normal 0 1 -0
    outer loop
      vertex 1.18 2.45 1.90735e-007
      vertex -1.18 2.45 2.4
      vertex 1.18 2.45 2.4
    endloop
  endfacet
  facet normal 0 1 0
    outer loop
      vertex -1.18 2.45 2.4
      vertex 1.18 2.45 1.90735e-007
      vertex -1.18 2.45 1.90735e-007
    endloop
  endfacet
  facet normal 0 0 -1
    outer loop
      vertex -0.334999 1.27 1.90735e-007
      vertex -1.18 1.27 1.90735e-007
      vertex -0.334999 1.605 1.90735e-007
    endloop
  endfacet
  facet normal 0 0 -1
    outer loop
      vertex 0.334999 1.605 1.90735e-007
      vertex 1.18 1.27 1.90735e-007
      vertex 0.334999 1.27 1.90735e-007
    endloop
  endfacet
  facet normal 0 0 -1
    outer loop
      vertex 1.18 1.27 1.90735e-007
      vertex 0.334999 1.605 1.90735e-007
      vertex 1.18 2.45 1.90735e-007
    endloop
  endfacet
  facet normal 0 0 -1
    outer loop
      vertex -0.334999 1.605 1.90735e-007
      vertex 1.18 2.45 1.90735e-007
      vertex 0.334999 1.605 1.90735e-007
    endloop
  endfacet
  facet normal 0 0 -1
    outer loop
      vertex -1.18 2.45 1.90735e-007
      vertex -0.334999 1.605 1.90735e-007
      vertex -1.18 1.27 1.90735e-007
    endloop
  endfacet
  facet normal 0 0 -1
    outer loop
      vertex -0.334999 1.605 1.90735e-007
      vertex -1.18 2.45 1.90735e-007
      vertex 1.18 2.45 1.90735e-007
    endloop
  endfacet
  facet normal 0 -1 0
    outer loop
      vertex -1.18 0.0900007 2
      vertex 1.18 0.0900007 2.4
      vertex -1.18 0.0900007 2.4
    endloop
  endfacet
  facet normal 0 -1 -0
    outer loop
      vertex 1.18 0.0900007 2.4
      vertex -1.18 0.0900007 2
      vertex 1.18 0.0900007 2
    endloop
  endfacet
  facet normal -1 0 0
    outer loop
      vertex 2.205 -1.605 2.4
      vertex 2.205 -0.935001 5.4
      vertex 2.205 -0.935001 2.4
    endloop
  endfacet
  facet normal -1 -0 0
    outer loop
      vertex 2.205 -0.935001 5.4
      vertex 2.205 -1.605 2.4
      vertex 2.205 -1.605 5.4
    endloop
  endfacet
  facet normal -1 0 0
    outer loop
      vertex 2.205 -0.935001 -5.85
      vertex 2.205 -1.27 0
      vertex 2.205 -0.935001 0
    endloop
  endfacet
  facet normal -1 0 0
    outer loop
      vertex 2.205 -1.605 -5.85
      vertex 2.205 -1.27 0
      vertex 2.205 -0.935001 -5.85
    endloop
  endfacet
  facet normal -1 0 0
    outer loop
      vertex 2.205 -1.605 1.90735e-007
      vertex 2.205 -1.27 0
      vertex 2.205 -1.605 -5.85
    endloop
  endfacet
  facet normal -1 0 0
    outer loop
      vertex 2.205 -1.27 0
      vertex 2.205 -1.605 1.90735e-007
      vertex 2.205 -1.27 1.90735e-007
    endloop
  endfacet
  facet normal -0 0 1
    outer loop
      vertex 2.205 -0.935001 5.4
      vertex 2.875 -1.605 5.4
      vertex 2.875 -0.935001 5.4
    endloop
  endfacet
  facet normal 0 0 1
    outer loop
      vertex 2.875 -1.605 5.4
      vertex 2.205 -0.935001 5.4
      vertex 2.205 -1.605 5.4
    endloop
  endfacet
  facet normal 1 -0 0
    outer loop
      vertex 2.875 -1.605 5.4
      vertex 2.875 -0.935001 2.4
      vertex 2.875 -0.935001 5.4
    endloop
  endfacet
  facet normal 1 0 0
    outer loop
      vertex 2.875 -0.935001 2.4
      vertex 2.875 -1.605 5.4
      vertex 2.875 -1.605 2.4
    endloop
  endfacet
  facet normal 1 -0 0
    outer loop
      vertex 2.875 -1.605 1.90735e-007
      vertex 2.875 -0.935001 -5.85
      vertex 2.875 -0.935001 1.90735e-007
    endloop
  endfacet
  facet normal 1 0 0
    outer loop
      vertex 2.875 -0.935001 -5.85
      vertex 2.875 -1.605 1.90735e-007
      vertex 2.875 -1.605 -5.85
    endloop
  endfacet
  facet normal 0 0 -1
    outer loop
      vertex 2.205 -1.605 -5.85
      vertex 2.875 -0.935001 -5.85
      vertex 2.875 -1.605 -5.85
    endloop
  endfacet
  facet normal -0 0 -1
    outer loop
      vertex 2.875 -0.935001 -5.85
      vertex 2.205 -1.605 -5.85
      vertex 2.205 -0.935001 -5.85
    endloop
  endfacet
  facet normal 0 -1 0
    outer loop
      vertex 2.205 -1.605 2.4
      vertex 2.875 -1.605 5.4
      vertex 2.205 -1.605 5.4
    endloop
  endfacet
  facet normal 0 -1 -0
    outer loop
      vertex 2.875 -1.605 5.4
      vertex 2.205 -1.605 2.4
      vertex 2.875 -1.605 2.4
    endloop
  endfacet
  facet normal 0 -1 0
    outer loop
      vertex 2.205 -1.605 -5.85
      vertex 2.875 -1.605 1.90735e-007
      vertex 2.205 -1.605 1.90735e-007
    endloop
  endfacet
  facet normal 0 -1 -0
    outer loop
      vertex 2.875 -1.605 1.90735e-007
      vertex 2.205 -1.605 -5.85
      vertex 2.875 -1.605 -5.85
    endloop
  endfacet
  facet normal 0 1 -0
    outer loop
      vertex 2.875 -0.935001 2.4
      vertex 2.205 -0.935001 5.4
      vertex 2.875 -0.935001 5.4
    endloop
  endfacet
  facet normal 0 1 0
    outer loop
      vertex 2.205 -0.935001 5.4
      vertex 2.875 -0.935001 2.4
      vertex 2.205 -0.935001 2.4
    endloop
  endfacet
  facet normal 0 1 0
    outer loop
      vertex 2.875 -0.935001 1.90735e-007
      vertex 2.54 -0.935001 0
      vertex 2.54 -0.935001 1.90735e-007
    endloop
  endfacet
  facet normal 0 1 -0
    outer loop
      vertex 2.875 -0.935001 -5.85
      vertex 2.54 -0.935001 0
      vertex 2.875 -0.935001 1.90735e-007
    endloop
  endfacet
  facet normal 0 1 0
    outer loop
      vertex 2.205 -0.935001 -5.85
      vertex 2.54 -0.935001 0
      vertex 2.875 -0.935001 -5.85
    endloop
  endfacet
  facet normal 0 1 0
    outer loop
      vertex 2.54 -0.935001 0
      vertex 2.205 -0.935001 -5.85
      vertex 2.205 -0.935001 0
    endloop
  endfacet
  facet normal -1 0 0
    outer loop
      vertex 1.36 -1.27 1.90735e-007
      vertex 1.36 -2.45 1.90735e-007
      vertex 1.36 -1.27 2
    endloop
  endfacet
  facet normal -1 0 0
    outer loop
      vertex 1.36 -1.27 2
      vertex 1.36 -0.0900007 2.4
      vertex 1.36 -0.0900007 2
    endloop
  endfacet
  facet normal -1 0 0
    outer loop
      vertex 1.36 -1.27 2
      vertex 1.36 -2.45 2.4
      vertex 1.36 -0.0900007 2.4
    endloop
  endfacet
  facet normal -1 0 0
    outer loop
      vertex 1.36 -2.45 2.4
      vertex 1.36 -1.27 2
      vertex 1.36 -2.45 1.90735e-007
    endloop
  endfacet
  facet normal 0 0 1
    outer loop
      vertex 3.72 -0.0900007 2.4
      vertex 2.875 -0.935001 2.4
      vertex 3.72 -2.45 2.4
    endloop
  endfacet
  facet normal 0 0 1
    outer loop
      vertex 3.72 -0.0900007 2.4
      vertex 2.205 -0.935001 2.4
      vertex 2.875 -0.935001 2.4
    endloop
  endfacet
  facet normal 0 0 1
    outer loop
      vertex 2.205 -0.935001 2.4
      vertex 1.36 -0.0900007 2.4
      vertex 2.205 -1.605 2.4
    endloop
  endfacet
  facet normal -0 0 1
    outer loop
      vertex 1.36 -0.0900007 2.4
      vertex 2.205 -0.935001 2.4
      vertex 3.72 -0.0900007 2.4
    endloop
  endfacet
  facet normal -0 0 1
    outer loop
      vertex 2.875 -1.605 2.4
      vertex 3.72 -2.45 2.4
      vertex 2.875 -0.935001 2.4
    endloop
  endfacet
  facet normal -0 0 1
    outer loop
      vertex 2.205 -1.605 2.4
      vertex 3.72 -2.45 2.4
      vertex 2.875 -1.605 2.4
    endloop
  endfacet
  facet normal 0 0 1
    outer loop
      vertex 2.205 -1.605 2.4
      vertex 1.36 -2.45 2.4
      vertex 3.72 -2.45 2.4
    endloop
  endfacet
  facet normal 0 0 1
    outer loop
      vertex 1.36 -2.45 2.4
      vertex 2.205 -1.605 2.4
      vertex 1.36 -0.0900007 2.4
    endloop
  endfacet
  facet normal 1 -0 0
    outer loop
      vertex 3.72 -2.45 2.4
      vertex 3.72 -0.0900007 1.90735e-007
      vertex 3.72 -0.0900007 2.4
    endloop
  endfacet
  facet normal 1 0 0
    outer loop
      vertex 3.72 -0.0900007 1.90735e-007
      vertex 3.72 -2.45 2.4
      vertex 3.72 -2.45 1.90735e-007
    endloop
  endfacet
  facet normal 0 1 0
    outer loop
      vertex 3.72 -0.0900007 2.4
      vertex 2.54 -0.0900007 2
      vertex 1.36 -0.0900007 2.4
    endloop
  endfacet
  facet normal 0 1 -0
    outer loop
      vertex 3.72 -0.0900007 1.90735e-007
      vertex 2.54 -0.0900007 2
      vertex 3.72 -0.0900007 2.4
    endloop
  endfacet
  facet normal 0 1 0
    outer loop
      vertex 2.54 -0.0900007 2
      vertex 3.72 -0.0900007 1.90735e-007
      vertex 2.54 -0.0900007 1.90735e-007
    endloop
  endfacet
  facet normal 0 1 0
    outer loop
      vertex 1.36 -0.0900007 2.4
      vertex 2.54 -0.0900007 2
      vertex 1.36 -0.0900007 2
    endloop
  endfacet
  facet normal 0 0 -1
    outer loop
      vertex 3.72 -2.45 1.90735e-007
      vertex 2.875 -1.605 1.90735e-007
      vertex 3.72 -0.0900007 1.90735e-007
    endloop
  endfacet
  facet normal 0 0 -1
    outer loop
      vertex 3.72 -2.45 1.90735e-007
      vertex 2.205 -1.605 1.90735e-007
      vertex 2.875 -1.605 1.90735e-007
    endloop
  endfacet
  facet normal 0 0 -1
    outer loop
      vertex 1.36 -2.45 1.90735e-007
      vertex 2.205 -1.605 1.90735e-007
      vertex 3.72 -2.45 1.90735e-007
    endloop
  endfacet
  facet normal 0 0 -1
    outer loop
      vertex 1.36 -1.27 1.90735e-007
      vertex 2.205 -1.605 1.90735e-007
      vertex 1.36 -2.45 1.90735e-007
    endloop
  endfacet
  facet normal 0 0 -1
    outer loop
      vertex 2.205 -1.605 1.90735e-007
      vertex 1.36 -1.27 1.90735e-007
      vertex 2.205 -1.27 1.90735e-007
    endloop
  endfacet
  facet normal 0 0 -1
    outer loop
      vertex 2.875 -0.935001 1.90735e-007
      vertex 3.72 -0.0900007 1.90735e-007
      vertex 2.875 -1.605 1.90735e-007
    endloop
  endfacet
  facet normal 0 0 -1
    outer loop
      vertex 2.54 -0.0900007 1.90735e-007
      vertex 2.875 -0.935001 1.90735e-007
      vertex 2.54 -0.935001 1.90735e-007
    endloop
  endfacet
  facet normal 0 0 -1
    outer loop
      vertex 2.875 -0.935001 1.90735e-007
      vertex 2.54 -0.0900007 1.90735e-007
      vertex 3.72 -0.0900007 1.90735e-007
    endloop
  endfacet
  facet normal 0 -1 0
    outer loop
      vertex 1.36 -2.45 1.90735e-007
      vertex 3.72 -2.45 2.4
      vertex 1.36 -2.45 2.4
    endloop
  endfacet
  facet normal 0 -1 -0
    outer loop
      vertex 3.72 -2.45 2.4
      vertex 1.36 -2.45 1.90735e-007
      vertex 3.72 -2.45 1.90735e-007
    endloop
  endfacet
  facet normal -1 0 0
    outer loop
      vertex 2.205 0.935001 2.4
      vertex 2.205 1.605 5.4
      vertex 2.205 1.605 2.4
    endloop
  endfacet
  facet normal -1 -0 0
    outer loop
      vertex 2.205 1.605 5.4
      vertex 2.205 0.935001 2.4
      vertex 2.205 0.935001 5.4
    endloop
  endfacet
  facet normal -1 0 0
    outer loop
      vertex 2.205 1.605 -5.85
      vertex 2.205 1.27 0
      vertex 2.205 1.605 1.90735e-007
    endloop
  endfacet
  facet normal -1 0 0
    outer loop
      vertex 2.205 0.935001 -5.85
      vertex 2.205 1.27 0
      vertex 2.205 1.605 -5.85
    endloop
  endfacet
  facet normal -1 -0 0
    outer loop
      vertex 2.205 1.27 0
      vertex 2.205 0.935001 -5.85
      vertex 2.205 0.935001 0
    endloop
  endfacet
  facet normal -1 -0 0
    outer loop
      vertex 2.205 1.605 1.90735e-007
      vertex 2.205 1.27 0
      vertex 2.205 1.27 1.90735e-007
    endloop
  endfacet
  facet normal -0 0 1
    outer loop
      vertex 2.205 1.605 5.4
      vertex 2.875 0.935001 5.4
      vertex 2.875 1.605 5.4
    endloop
  endfacet
  facet normal 0 0 1
    outer loop
      vertex 2.875 0.935001 5.4
      vertex 2.205 1.605 5.4
      vertex 2.205 0.935001 5.4
    endloop
  endfacet
  facet normal 1 -0 0
    outer loop
      vertex 2.875 0.935001 5.4
      vertex 2.875 1.605 2.4
      vertex 2.875 1.605 5.4
    endloop
  endfacet
  facet normal 1 0 0
    outer loop
      vertex 2.875 1.605 2.4
      vertex 2.875 0.935001 5.4
      vertex 2.875 0.935001 2.4
    endloop
  endfacet
  facet normal 1 -0 0
    outer loop
      vertex 2.875 0.935001 1.90735e-007
      vertex 2.875 1.605 -5.85
      vertex 2.875 1.605 1.90735e-007
    endloop
  endfacet
  facet normal 1 0 0
    outer loop
      vertex 2.875 1.605 -5.85
      vertex 2.875 0.935001 1.90735e-007
      vertex 2.875 0.935001 -5.85
    endloop
  endfacet
  facet normal 0 0 -1
    outer loop
      vertex 2.205 0.935001 -5.85
      vertex 2.875 1.605 -5.85
      vertex 2.875 0.935001 -5.85
    endloop
  endfacet
  facet normal -0 0 -1
    outer loop
      vertex 2.875 1.605 -5.85
      vertex 2.205 0.935001 -5.85
      vertex 2.205 1.605 -5.85
    endloop
  endfacet
  facet normal 0 -1 0
    outer loop
      vertex 2.205 0.935001 2.4
      vertex 2.875 0.935001 5.4
      vertex 2.205 0.935001 5.4
    endloop
  endfacet
  facet normal 0 -1 -0
    outer loop
      vertex 2.875 0.935001 5.4
      vertex 2.205 0.935001 2.4
      vertex 2.875 0.935001 2.4
    endloop
  endfacet
  facet normal 0 -1 0
    outer loop
      vertex 2.205 0.935001 0
      vertex 2.205 0.935001 -5.85
      vertex 2.54 0.935001 0
    endloop
  endfacet
  facet normal 0 -1 0
    outer loop
      vertex 2.54 0.935001 0
      vertex 2.875 0.935001 1.90735e-007
      vertex 2.54 0.935001 1.90735e-007
    endloop
  endfacet
  facet normal 0 -1 0
    outer loop
      vertex 2.875 0.935001 -5.85
      vertex 2.54 0.935001 0
      vertex 2.205 0.935001 -5.85
    endloop
  endfacet
  facet normal 0 -1 0
    outer loop
      vertex 2.54 0.935001 0
      vertex 2.875 0.935001 -5.85
      vertex 2.875 0.935001 1.90735e-007
    endloop
  endfacet
  facet normal 0 1 -0
    outer loop
      vertex 2.875 1.605 2.4
      vertex 2.205 1.605 5.4
      vertex 2.875 1.605 5.4
    endloop
  endfacet
  facet normal 0 1 0
    outer loop
      vertex 2.205 1.605 5.4
      vertex 2.875 1.605 2.4
      vertex 2.205 1.605 2.4
    endloop
  endfacet
  facet normal 0 1 -0
    outer loop
      vertex 2.875 1.605 -5.85
      vertex 2.205 1.605 1.90735e-007
      vertex 2.875 1.605 1.90735e-007
    endloop
  endfacet
  facet normal 0 1 0
    outer loop
      vertex 2.205 1.605 1.90735e-007
      vertex 2.875 1.605 -5.85
      vertex 2.205 1.605 -5.85
    endloop
  endfacet
  facet normal -1 0 0
    outer loop
      vertex 1.36 1.27 2
      vertex 1.36 2.45 1.90735e-007
      vertex 1.36 1.27 1.90735e-007
    endloop
  endfacet
  facet normal -1 0 0
    outer loop
      vertex 1.36 2.45 1.90735e-007
      vertex 1.36 1.27 2
      vertex 1.36 2.45 2.4
    endloop
  endfacet
  facet normal -1 0 0
    outer loop
      vertex 1.36 0.0900007 2.4
      vertex 1.36 1.27 2
      vertex 1.36 0.0900007 2
    endloop
  endfacet
  facet normal -1 0 0
    outer loop
      vertex 1.36 1.27 2
      vertex 1.36 0.0900007 2.4
      vertex 1.36 2.45 2.4
    endloop
  endfacet
  facet normal 0 0 1
    outer loop
      vertex 3.72 2.45 2.4
      vertex 2.875 1.605 2.4
      vertex 3.72 0.0900007 2.4
    endloop
  endfacet
  facet normal 0 0 1
    outer loop
      vertex 3.72 2.45 2.4
      vertex 2.205 1.605 2.4
      vertex 2.875 1.605 2.4
    endloop
  endfacet
  facet normal 0 0 1
    outer loop
      vertex 2.205 1.605 2.4
      vertex 1.36 2.45 2.4
      vertex 2.205 0.935001 2.4
    endloop
  endfacet
  facet normal -0 0 1
    outer loop
      vertex 1.36 2.45 2.4
      vertex 2.205 1.605 2.4
      vertex 3.72 2.45 2.4
    endloop
  endfacet
  facet normal -0 0 1
    outer loop
      vertex 2.875 0.935001 2.4
      vertex 3.72 0.0900007 2.4
      vertex 2.875 1.605 2.4
    endloop
  endfacet
  facet normal -0 0 1
    outer loop
      vertex 2.205 0.935001 2.4
      vertex 3.72 0.0900007 2.4
      vertex 2.875 0.935001 2.4
    endloop
  endfacet
  facet normal 0 0 1
    outer loop
      vertex 2.205 0.935001 2.4
      vertex 1.36 0.0900007 2.4
      vertex 3.72 0.0900007 2.4
    endloop
  endfacet
  facet normal 0 0 1
    outer loop
      vertex 1.36 0.0900007 2.4
      vertex 2.205 0.935001 2.4
      vertex 1.36 2.45 2.4
    endloop
  endfacet
  facet normal 1 -0 0
    outer loop
      vertex 3.72 0.0900007 2.4
      vertex 3.72 2.45 1.90735e-007
      vertex 3.72 2.45 2.4
    endloop
  endfacet
  facet normal 1 0 0
    outer loop
      vertex 3.72 2.45 1.90735e-007
      vertex 3.72 0.0900007 2.4
      vertex 3.72 0.0900007 1.90735e-007
    endloop
  endfacet
  facet normal 0 1 -0
    outer loop
      vertex 3.72 2.45 1.90735e-007
      vertex 1.36 2.45 2.4
      vertex 3.72 2.45 2.4
    endloop
  endfacet
  facet normal 0 1 0
    outer loop
      vertex 1.36 2.45 2.4
      vertex 3.72 2.45 1.90735e-007
      vertex 1.36 2.45 1.90735e-007
    endloop
  endfacet
  facet normal 0 0 -1
    outer loop
      vertex 2.205 1.27 1.90735e-007
      vertex 1.36 1.27 1.90735e-007
      vertex 2.205 1.605 1.90735e-007
    endloop
  endfacet
  facet normal 0 0 -1
    outer loop
      vertex 3.72 0.0900007 1.90735e-007
      vertex 2.875 0.935001 1.90735e-007
      vertex 3.72 2.45 1.90735e-007
    endloop
  endfacet
  facet normal 0 0 -1
    outer loop
      vertex 2.54 0.0900007 1.90735e-007
      vertex 2.875 0.935001 1.90735e-007
      vertex 3.72 0.0900007 1.90735e-007
    endloop
  endfacet
  facet normal -0 0 -1
    outer loop
      vertex 2.875 0.935001 1.90735e-007
      vertex 2.54 0.0900007 1.90735e-007
      vertex 2.54 0.935001 1.90735e-007
    endloop
  endfacet
  facet normal 0 0 -1
    outer loop
      vertex 2.875 1.605 1.90735e-007
      vertex 3.72 2.45 1.90735e-007
      vertex 2.875 0.935001 1.90735e-007
    endloop
  endfacet
  facet normal 0 0 -1
    outer loop
      vertex 2.205 1.605 1.90735e-007
      vertex 3.72 2.45 1.90735e-007
      vertex 2.875 1.605 1.90735e-007
    endloop
  endfacet
  facet normal 0 0 -1
    outer loop
      vertex 1.36 2.45 1.90735e-007
      vertex 2.205 1.605 1.90735e-007
      vertex 1.36 1.27 1.90735e-007
    endloop
  endfacet
  facet normal 0 0 -1
    outer loop
      vertex 2.205 1.605 1.90735e-007
      vertex 1.36 2.45 1.90735e-007
      vertex 3.72 2.45 1.90735e-007
    endloop
  endfacet
  facet normal 0 -1 0
    outer loop
      vertex 2.54 0.0900007 2
      vertex 1.36 0.0900007 2.4
      vertex 1.36 0.0900007 2
    endloop
  endfacet
  facet normal 0 -1 0
    outer loop
      vertex 1.36 0.0900007 2.4
      vertex 2.54 0.0900007 2
      vertex 3.72 0.0900007 2.4
    endloop
  endfacet
  facet normal 0 -1 0
    outer loop
      vertex 3.72 0.0900007 1.90735e-007
      vertex 2.54 0.0900007 2
      vertex 2.54 0.0900007 1.90735e-007
    endloop
  endfacet
  facet normal 0 -1 0
    outer loop
      vertex 2.54 0.0900007 2
      vertex 3.72 0.0900007 1.90735e-007
      vertex 3.72 0.0900007 2.4
    endloop
  endfacet
  facet normal -1 0 0
    outer loop
      vertex -2.54 0.935001 0
      vertex -2.54 0.0900007 1.90735e-007
      vertex -2.54 0.935001 1.90735e-007
    endloop
  endfacet
  facet normal -1 0 0
    outer loop
      vertex -2.54 0.0900007 1.90735e-007
      vertex -2.54 -0.0900007 1.90735e-007
      vertex -2.54 0.0900007 2
    endloop
  endfacet
  facet normal -1 0 0
    outer loop
      vertex -2.54 0.935001 0
      vertex -2.54 -0.0900007 1.90735e-007
      vertex -2.54 0.0900007 1.90735e-007
    endloop
  endfacet
  facet normal -1 0 0
    outer loop
      vertex -2.54 -0.935001 0
      vertex -2.54 -0.0900007 1.90735e-007
      vertex -2.54 0.935001 0
    endloop
  endfacet
  facet normal -1 -0 0
    outer loop
      vertex -2.54 -0.0900007 1.90735e-007
      vertex -2.54 -0.935001 0
      vertex -2.54 -0.935001 1.90735e-007
    endloop
  endfacet
  facet normal -1 -0 0
    outer loop
      vertex -2.54 0.0900007 2
      vertex -2.54 -0.0900007 1.90735e-007
      vertex -2.54 -0.0900007 2
    endloop
  endfacet
  facet normal -0 0 1
    outer loop
      vertex -2.54 0.0900007 2
      vertex -1.36 -0.0900007 2
      vertex -1.36 0.0900007 2
    endloop
  endfacet
  facet normal 0 0 1
    outer loop
      vertex -1.36 -0.0900007 2
      vertex -2.54 0.0900007 2
      vertex -2.54 -0.0900007 2
    endloop
  endfacet
  facet normal 0 0 1
    outer loop
      vertex -1.36 0.0900007 2
      vertex -1.18 0.0900007 2
      vertex -1.18 1.27 2
    endloop
  endfacet
  facet normal 0 0 1
    outer loop
      vertex -1.18 0.0900007 2
      vertex -1.36 0.0900007 2
      vertex -1.18 -0.0900007 2
    endloop
  endfacet
  facet normal 0 0 1
    outer loop
      vertex -1.36 0.0900007 2
      vertex -1.18 1.27 2
      vertex -1.36 1.27 2
    endloop
  endfacet
  facet normal 0 0 1
    outer loop
      vertex -1.36 -0.0900007 2
      vertex -1.18 -0.0900007 2
      vertex -1.36 0.0900007 2
    endloop
  endfacet
  facet normal 0 0 1
    outer loop
      vertex -1.18 -0.0900007 2
      vertex -1.36 -0.0900007 2
      vertex -1.18 -1.27 2
    endloop
  endfacet
  facet normal 0 0 1
    outer loop
      vertex -1.18 -1.27 2
      vertex -1.36 -0.0900007 2
      vertex -1.36 -1.27 2
    endloop
  endfacet
  facet normal -0 0 1
    outer loop
      vertex -1.18 0.0900007 2
      vertex 1.18 -0.0900007 2
      vertex 1.18 0.0900007 2
    endloop
  endfacet
  facet normal 0 0 1
    outer loop
      vertex 1.18 -0.0900007 2
      vertex -1.18 0.0900007 2
      vertex -1.18 -0.0900007 2
    endloop
  endfacet
  facet normal 0 0 1
    outer loop
      vertex 1.18 0.0900007 2
      vertex 1.36 0.0900007 2
      vertex 1.36 1.27 2
    endloop
  endfacet
  facet normal 0 0 1
    outer loop
      vertex 1.36 0.0900007 2
      vertex 1.18 0.0900007 2
      vertex 1.36 -0.0900007 2
    endloop
  endfacet
  facet normal 0 0 1
    outer loop
      vertex 1.18 0.0900007 2
      vertex 1.36 1.27 2
      vertex 1.18 1.27 2
    endloop
  endfacet
  facet normal 0 0 1
    outer loop
      vertex 1.18 -0.0900007 2
      vertex 1.36 -0.0900007 2
      vertex 1.18 0.0900007 2
    endloop
  endfacet
  facet normal 0 0 1
    outer loop
      vertex 1.36 -0.0900007 2
      vertex 1.18 -0.0900007 2
      vertex 1.36 -1.27 2
    endloop
  endfacet
  facet normal 0 0 1
    outer loop
      vertex 1.36 -1.27 2
      vertex 1.18 -0.0900007 2
      vertex 1.18 -1.27 2
    endloop
  endfacet
  facet normal -0 0 1
    outer loop
      vertex 1.36 0.0900007 2
      vertex 2.54 -0.0900007 2
      vertex 2.54 0.0900007 2
    endloop
  endfacet
  facet normal 0 0 1
    outer loop
      vertex 2.54 -0.0900007 2
      vertex 1.36 0.0900007 2
      vertex 1.36 -0.0900007 2
    endloop
  endfacet
  facet normal 1 0 0
    outer loop
      vertex 2.54 0.0900007 2
      vertex 2.54 -0.0900007 2
      vertex 2.54 0.0900007 1.90735e-007
    endloop
  endfacet
  facet normal 1 -0 0
    outer loop
      vertex 2.54 0.0900007 1.90735e-007
      vertex 2.54 0.935001 0
      vertex 2.54 0.935001 1.90735e-007
    endloop
  endfacet
  facet normal 1 0 0
    outer loop
      vertex 2.54 -0.0900007 1.90735e-007
      vertex 2.54 0.0900007 1.90735e-007
      vertex 2.54 -0.0900007 2
    endloop
  endfacet
  facet normal 1 -0 0
    outer loop
      vertex 2.54 -0.0900007 1.90735e-007
      vertex 2.54 0.935001 0
      vertex 2.54 0.0900007 1.90735e-007
    endloop
  endfacet
  facet normal 1 0 0
    outer loop
      vertex 2.54 -0.935001 0
      vertex 2.54 -0.0900007 1.90735e-007
      vertex 2.54 -0.935001 1.90735e-007
    endloop
  endfacet
  facet normal 1 0 0
    outer loop
      vertex 2.54 -0.0900007 1.90735e-007
      vertex 2.54 -0.935001 0
      vertex 2.54 0.935001 0
    endloop
  endfacet
  facet normal 0 1 -0
    outer loop
      vertex -0.334999 1.27 0
      vertex -1.18 1.27 1.90735e-007
      vertex -0.334999 1.27 1.90735e-007
    endloop
  endfacet
  facet normal 0 1 0
    outer loop
      vertex -1.18 1.27 1.90735e-007
      vertex -0.334999 1.27 0
      vertex -1.36 1.27 1.90735e-007
    endloop
  endfacet
  facet normal 0 1 0
    outer loop
      vertex -2.205 1.27 0
      vertex -1.36 1.27 1.90735e-007
      vertex -0.334999 1.27 0
    endloop
  endfacet
  facet normal 0 1 0
    outer loop
      vertex -1.36 1.27 1.90735e-007
      vertex -2.205 1.27 0
      vertex -2.205 1.27 1.90735e-007
    endloop
  endfacet
  facet normal 0 1 -0
    outer loop
      vertex -1.18 1.27 1.90735e-007
      vertex -1.36 1.27 2
      vertex -1.18 1.27 2
    endloop
  endfacet
  facet normal 0 1 0
    outer loop
      vertex -1.36 1.27 2
      vertex -1.18 1.27 1.90735e-007
      vertex -1.36 1.27 1.90735e-007
    endloop
  endfacet
  facet normal 0 1 -0
    outer loop
      vertex 2.205 1.27 0
      vertex 1.36 1.27 1.90735e-007
      vertex 2.205 1.27 1.90735e-007
    endloop
  endfacet
  facet normal 0 1 0
    outer loop
      vertex 1.36 1.27 1.90735e-007
      vertex 2.205 1.27 0
      vertex 1.18 1.27 1.90735e-007
    endloop
  endfacet
  facet normal 0 1 0
    outer loop
      vertex 0.334999 1.27 0
      vertex 1.18 1.27 1.90735e-007
      vertex 2.205 1.27 0
    endloop
  endfacet
  facet normal 0 1 0
    outer loop
      vertex 1.18 1.27 1.90735e-007
      vertex 0.334999 1.27 0
      vertex 0.334999 1.27 1.90735e-007
    endloop
  endfacet
  facet normal 0 1 -0
    outer loop
      vertex 1.36 1.27 1.90735e-007
      vertex 1.18 1.27 2
      vertex 1.36 1.27 2
    endloop
  endfacet
  facet normal 0 1 0
    outer loop
      vertex 1.18 1.27 2
      vertex 1.36 1.27 1.90735e-007
      vertex 1.18 1.27 1.90735e-007
    endloop
  endfacet
  facet normal 0 0 -1
    outer loop
      vertex -2.54 -0.935001 0
      vertex -2.205 0.935001 0
      vertex -2.205 -0.935001 0
    endloop
  endfacet
  facet normal -0 0 -1
    outer loop
      vertex -2.205 0.935001 0
      vertex -2.54 -0.935001 0
      vertex -2.54 0.935001 0
    endloop
  endfacet
  facet normal 0 0 -1
    outer loop
      vertex -2.205 -0.935001 0
      vertex -0.334999 -0.935001 0
      vertex -0.334999 -1.27 0
    endloop
  endfacet
  facet normal 0 0 -1
    outer loop
      vertex -0.334999 -0.935001 0
      vertex -2.205 -0.935001 0
      vertex -0.334999 0.935001 0
    endloop
  endfacet
  facet normal 0 0 -1
    outer loop
      vertex -2.205 -0.935001 0
      vertex -0.334999 -1.27 0
      vertex -2.205 -1.27 0
    endloop
  endfacet
  facet normal 0 0 -1
    outer loop
      vertex -2.205 0.935001 0
      vertex -0.334999 0.935001 0
      vertex -2.205 -0.935001 0
    endloop
  endfacet
  facet normal 0 0 -1
    outer loop
      vertex -0.334999 0.935001 0
      vertex -2.205 0.935001 0
      vertex -0.334999 1.27 0
    endloop
  endfacet
  facet normal -0 0 -1
    outer loop
      vertex -0.334999 1.27 0
      vertex -2.205 0.935001 0
      vertex -2.205 1.27 0
    endloop
  endfacet
  facet normal 0 0 -1
    outer loop
      vertex -0.334999 -0.935001 0
      vertex 0.334999 0.935001 0
      vertex 0.334999 -0.935001 0
    endloop
  endfacet
  facet normal -0 0 -1
    outer loop
      vertex 0.334999 0.935001 0
      vertex -0.334999 -0.935001 0
      vertex -0.334999 0.935001 0
    endloop
  endfacet
  facet normal 0 0 -1
    outer loop
      vertex 0.334999 -0.935001 0
      vertex 2.205 -0.935001 0
      vertex 2.205 -1.27 0
    endloop
  endfacet
  facet normal 0 0 -1
    outer loop
      vertex 2.205 -0.935001 0
      vertex 0.334999 -0.935001 0
      vertex 2.205 0.935001 0
    endloop
  endfacet
  facet normal 0 0 -1
    outer loop
      vertex 0.334999 -0.935001 0
      vertex 2.205 -1.27 0
      vertex 0.334999 -1.27 0
    endloop
  endfacet
  facet normal 0 0 -1
    outer loop
      vertex 0.334999 0.935001 0
      vertex 2.205 0.935001 0
      vertex 0.334999 -0.935001 0
    endloop
  endfacet
  facet normal 0 0 -1
    outer loop
      vertex 2.205 0.935001 0
      vertex 0.334999 0.935001 0
      vertex 2.205 1.27 0
    endloop
  endfacet
  facet normal -0 0 -1
    outer loop
      vertex 2.205 1.27 0
      vertex 0.334999 0.935001 0
      vertex 0.334999 1.27 0
    endloop
  endfacet
  facet normal 0 0 -1
    outer loop
      vertex 2.205 -0.935001 0
      vertex 2.54 0.935001 0
      vertex 2.54 -0.935001 0
    endloop
  endfacet
  facet normal -0 0 -1
    outer loop
      vertex 2.54 0.935001 0
      vertex 2.205 -0.935001 0
      vertex 2.205 0.935001 0
    endloop
  endfacet
  facet normal 0 -1 0
    outer loop
      vertex -2.205 -1.27 0
      vertex -1.36 -1.27 1.90735e-007
      vertex -2.205 -1.27 1.90735e-007
    endloop
  endfacet
  facet normal 0 -1 -0
    outer loop
      vertex -1.36 -1.27 1.90735e-007
      vertex -2.205 -1.27 0
      vertex -1.18 -1.27 1.90735e-007
    endloop
  endfacet
  facet normal 0 -1 0
    outer loop
      vertex -0.334999 -1.27 0
      vertex -1.18 -1.27 1.90735e-007
      vertex -2.205 -1.27 0
    endloop
  endfacet
  facet normal 0 -1 0
    outer loop
      vertex -1.18 -1.27 1.90735e-007
      vertex -0.334999 -1.27 0
      vertex -0.334999 -1.27 1.90735e-007
    endloop
  endfacet
  facet normal 0 -1 0
    outer loop
      vertex -1.36 -1.27 1.90735e-007
      vertex -1.18 -1.27 2
      vertex -1.36 -1.27 2
    endloop
  endfacet
  facet normal 0 -1 -0
    outer loop
      vertex -1.18 -1.27 2
      vertex -1.36 -1.27 1.90735e-007
      vertex -1.18 -1.27 1.90735e-007
    endloop
  endfacet
  facet normal 0 -1 0
    outer loop
      vertex 0.334999 -1.27 0
      vertex 1.18 -1.27 1.90735e-007
      vertex 0.334999 -1.27 1.90735e-007
    endloop
  endfacet
  facet normal 0 -1 -0
    outer loop
      vertex 1.18 -1.27 1.90735e-007
      vertex 0.334999 -1.27 0
      vertex 1.36 -1.27 1.90735e-007
    endloop
  endfacet
  facet normal 0 -1 0
    outer loop
      vertex 2.205 -1.27 0
      vertex 1.36 -1.27 1.90735e-007
      vertex 0.334999 -1.27 0
    endloop
  endfacet
  facet normal 0 -1 0
    outer loop
      vertex 1.36 -1.27 1.90735e-007
      vertex 2.205 -1.27 0
      vertex 2.205 -1.27 1.90735e-007
    endloop
  endfacet
  facet normal 0 -1 0
    outer loop
      vertex 1.18 -1.27 1.90735e-007
      vertex 1.36 -1.27 2
      vertex 1.18 -1.27 2
    endloop
  endfacet
  facet normal 0 -1 -0
    outer loop
      vertex 1.36 -1.27 2
      vertex 1.18 -1.27 1.90735e-007
      vertex 1.36 -1.27 1.90735e-007
    endloop
  endfacet
endsolid OpenSCAD_Model
