solid OpenSCAD_Model
  facet normal -1 0 0
    outer loop
      vertex 0 4 7.34
      vertex 0 5.05 0
      vertex 0 4 2.54
    endloop
  endfacet
  facet normal -1 0 0
    outer loop
      vertex 0 0 0
      vertex 0 4 2.54
      vertex 0 5.05 0
    endloop
  endfacet
  facet normal -1 -0 0
    outer loop
      vertex 0 1 2.54
      vertex 0 0 0
      vertex 0 1 7.34
    endloop
  endfacet
  facet normal -1 -0 0
    outer loop
      vertex 0 4 2.54
      vertex 0 0 0
      vertex 0 1 2.54
    endloop
  endfacet
  facet normal -1 0 0
    outer loop
      vertex 0 5.05 0
      vertex 0 4 7.34
      vertex 0 5.05 12
    endloop
  endfacet
  facet normal -1 0 0
    outer loop
      vertex 0 0 12
      vertex 0 4 7.34
      vertex 0 1 7.34
    endloop
  endfacet
  facet normal -1 0 0
    outer loop
      vertex 0 4 7.34
      vertex 0 0 12
      vertex 0 5.05 12
    endloop
  endfacet
  facet normal -1 0 0
    outer loop
      vertex 0 0 12
      vertex 0 1 7.34
      vertex 0 0 0
    endloop
  endfacet
  facet normal -0 0 1
    outer loop
      vertex 8.6 5.05 9
      vertex 10.4 0 9
      vertex 10.4 5.05 9
    endloop
  endfacet
  facet normal 0 0 1
    outer loop
      vertex 10.4 0 9
      vertex 8.6 5.05 9
      vertex 8.6 0 9
    endloop
  endfacet
  facet normal 1 -0 0
    outer loop
      vertex 10.4 0 9
      vertex 10.4 5.05 0
      vertex 10.4 5.05 9
    endloop
  endfacet
  facet normal 1 0 0
    outer loop
      vertex 10.4 5.05 0
      vertex 10.4 0 9
      vertex 10.4 0 0
    endloop
  endfacet
  facet normal 0 0 -1
    outer loop
      vertex 0 0 0
      vertex 10.4 5.05 0
      vertex 10.4 0 0
    endloop
  endfacet
  facet normal -0 0 -1
    outer loop
      vertex 10.4 5.05 0
      vertex 0 0 0
      vertex 0 5.05 0
    endloop
  endfacet
  facet normal 0 -1 0
    outer loop
      vertex 8.6 0 9
      vertex 3.4641 0 18
      vertex 0 0 12
    endloop
  endfacet
  facet normal 0 -1 0
    outer loop
      vertex 3.4641 0 18
      vertex 8.6 0 9
      vertex 8.6 0 18
    endloop
  endfacet
  facet normal 0 -1 0
    outer loop
      vertex 0 0 0
      vertex 8.6 0 9
      vertex 0 0 12
    endloop
  endfacet
  facet normal 0 -1 0
    outer loop
      vertex 10.4 0 0
      vertex 8.6 0 9
      vertex 0 0 0
    endloop
  endfacet
  facet normal 0 -1 0
    outer loop
      vertex 8.6 0 9
      vertex 10.4 0 0
      vertex 10.4 0 9
    endloop
  endfacet
  facet normal 0 1 0
    outer loop
      vertex 10.4 5.05 9
      vertex 10.4 5.05 0
      vertex 8.6 5.05 9
    endloop
  endfacet
  facet normal 0 1 -0
    outer loop
      vertex 8.6 5.05 9
      vertex 3.4641 5.05 18
      vertex 8.6 5.05 18
    endloop
  endfacet
  facet normal 0 1 0
    outer loop
      vertex 3.4641 5.05 18
      vertex 8.6 5.05 9
      vertex 0 5.05 12
    endloop
  endfacet
  facet normal 0 1 0
    outer loop
      vertex 0 5.05 0
      vertex 8.6 5.05 9
      vertex 10.4 5.05 0
    endloop
  endfacet
  facet normal 0 1 0
    outer loop
      vertex 8.6 5.05 9
      vertex 0 5.05 0
      vertex 0 5.05 12
    endloop
  endfacet
  facet normal 0 0 1
    outer loop
      vertex 8.6 5.05 18
      vertex 7.85 2.525 18
      vertex 8.6 0 18
    endloop
  endfacet
  facet normal 0 0 1
    outer loop
      vertex 8.6 5.05 18
      vertex 7.75945 3.09668 18
      vertex 7.85 2.525 18
    endloop
  endfacet
  facet normal 0 0 1
    outer loop
      vertex 8.6 5.05 18
      vertex 7.49668 3.6124 18
      vertex 7.75945 3.09668 18
    endloop
  endfacet
  facet normal 0 0 1
    outer loop
      vertex 8.6 5.05 18
      vertex 7.0874 4.02168 18
      vertex 7.49668 3.6124 18
    endloop
  endfacet
  facet normal 0 0 1
    outer loop
      vertex 8.6 5.05 18
      vertex 6.57168 4.28445 18
      vertex 7.0874 4.02168 18
    endloop
  endfacet
  facet normal 0 0 1
    outer loop
      vertex 8.6 5.05 18
      vertex 6 4.375 18
      vertex 6.57168 4.28445 18
    endloop
  endfacet
  facet normal -0 0 1
    outer loop
      vertex 3.4641 5.05 18
      vertex 6 4.375 18
      vertex 8.6 5.05 18
    endloop
  endfacet
  facet normal 0 0 1
    outer loop
      vertex 4.24055 3.09668 18
      vertex 3.4641 5.05 18
      vertex 4.15 2.525 18
    endloop
  endfacet
  facet normal 0 0 1
    outer loop
      vertex 4.50332 3.6124 18
      vertex 3.4641 5.05 18
      vertex 4.24055 3.09668 18
    endloop
  endfacet
  facet normal 0 0 1
    outer loop
      vertex 4.9126 4.02168 18
      vertex 3.4641 5.05 18
      vertex 4.50332 3.6124 18
    endloop
  endfacet
  facet normal 0 0 1
    outer loop
      vertex 5.42832 4.28445 18
      vertex 3.4641 5.05 18
      vertex 4.9126 4.02168 18
    endloop
  endfacet
  facet normal 0 0 1
    outer loop
      vertex 6 4.375 18
      vertex 3.4641 5.05 18
      vertex 5.42832 4.28445 18
    endloop
  endfacet
  facet normal -0 0 1
    outer loop
      vertex 7.75945 1.95332 18
      vertex 8.6 0 18
      vertex 7.85 2.525 18
    endloop
  endfacet
  facet normal -0 0 1
    outer loop
      vertex 7.49668 1.4376 18
      vertex 8.6 0 18
      vertex 7.75945 1.95332 18
    endloop
  endfacet
  facet normal -0 0 1
    outer loop
      vertex 7.0874 1.02832 18
      vertex 8.6 0 18
      vertex 7.49668 1.4376 18
    endloop
  endfacet
  facet normal -0 0 1
    outer loop
      vertex 6.57168 0.765545 18
      vertex 8.6 0 18
      vertex 7.0874 1.02832 18
    endloop
  endfacet
  facet normal -0 0 1
    outer loop
      vertex 6 0.674999 18
      vertex 8.6 0 18
      vertex 6.57168 0.765545 18
    endloop
  endfacet
  facet normal 0 0 1
    outer loop
      vertex 3.4641 0 18
      vertex 6 0.674999 18
      vertex 5.42832 0.765545 18
    endloop
  endfacet
  facet normal 0 0 1
    outer loop
      vertex 3.4641 0 18
      vertex 4.15 2.525 18
      vertex 3.4641 5.05 18
    endloop
  endfacet
  facet normal 0 0 1
    outer loop
      vertex 6 0.674999 18
      vertex 3.4641 0 18
      vertex 8.6 0 18
    endloop
  endfacet
  facet normal 0 0 1
    outer loop
      vertex 4.9126 1.02832 18
      vertex 3.4641 0 18
      vertex 5.42832 0.765545 18
    endloop
  endfacet
  facet normal 0 0 1
    outer loop
      vertex 4.50332 1.4376 18
      vertex 3.4641 0 18
      vertex 4.9126 1.02832 18
    endloop
  endfacet
  facet normal 0 0 1
    outer loop
      vertex 4.24055 1.95332 18
      vertex 3.4641 0 18
      vertex 4.50332 1.4376 18
    endloop
  endfacet
  facet normal 0 0 1
    outer loop
      vertex 4.15 2.525 18
      vertex 3.4641 0 18
      vertex 4.24055 1.95332 18
    endloop
  endfacet
  facet normal 1 -0 0
    outer loop
      vertex 8.6 0 18
      vertex 8.6 5.05 9
      vertex 8.6 5.05 18
    endloop
  endfacet
  facet normal 1 0 0
    outer loop
      vertex 8.6 5.05 9
      vertex 8.6 0 18
      vertex 8.6 0 9
    endloop
  endfacet
  facet normal -0.866025 0 0.5
    outer loop
      vertex 0 0 12
      vertex 3.4641 5.05 18
      vertex 0 5.05 12
    endloop
  endfacet
  facet normal -0.866025 0 0.5
    outer loop
      vertex 3.4641 5.05 18
      vertex 0 0 12
      vertex 3.4641 0 18
    endloop
  endfacet
  facet normal -0.987688 -0.156435 0
    outer loop
      vertex 7.85 2.525 1.5
      vertex 7.75945 3.09668 18
      vertex 7.75945 3.09668 1.5
    endloop
  endfacet
  facet normal -0.987688 -0.156435 0
    outer loop
      vertex 7.75945 3.09668 18
      vertex 7.85 2.525 1.5
      vertex 7.85 2.525 18
    endloop
  endfacet
  facet normal 0.707107 0.707107 0
    outer loop
      vertex 4.50332 1.4376 18
      vertex 4.9 1.04092 7.34
      vertex 4.50332 1.4376 7.34
    endloop
  endfacet
  facet normal 0.707107 0.707107 -0
    outer loop
      vertex 4.9126 1.02832 1.5
      vertex 4.9 1.04092 7.34
      vertex 4.9126 1.02832 18
    endloop
  endfacet
  facet normal 0.707107 0.707107 0
    outer loop
      vertex 4.9126 1.02832 18
      vertex 4.9 1.04092 7.34
      vertex 4.50332 1.4376 18
    endloop
  endfacet
  facet normal 0.707107 0.707107 0
    outer loop
      vertex 4.9 1.04092 2.54
      vertex 4.50332 1.4376 1.5
      vertex 4.50332 1.4376 2.54
    endloop
  endfacet
  facet normal 0.707107 0.707107 0
    outer loop
      vertex 4.9 1.04092 2.54
      vertex 4.9126 1.02832 1.5
      vertex 4.50332 1.4376 1.5
    endloop
  endfacet
  facet normal 0.707107 0.707107 0
    outer loop
      vertex 4.9 1.04092 7.34
      vertex 4.9126 1.02832 1.5
      vertex 4.9 1.04092 2.54
    endloop
  endfacet
  facet normal 0.156435 -0.987688 0
    outer loop
      vertex 5.42832 4.28445 1.5
      vertex 6 4.375 18
      vertex 5.42832 4.28445 18
    endloop
  endfacet
  facet normal 0.156435 -0.987688 0
    outer loop
      vertex 6 4.375 18
      vertex 5.42832 4.28445 1.5
      vertex 6 4.375 1.5
    endloop
  endfacet
  facet normal 0.987688 0.156435 0
    outer loop
      vertex 4.24055 1.95332 2.54
      vertex 4.15 2.525 1.5
      vertex 4.15 2.525 2.54
    endloop
  endfacet
  facet normal 0.987688 0.156435 0
    outer loop
      vertex 4.15 2.525 1.5
      vertex 4.24055 1.95332 2.54
      vertex 4.24055 1.95332 1.5
    endloop
  endfacet
  facet normal 0.987688 0.156435 0
    outer loop
      vertex 4.24055 1.95332 18
      vertex 4.15 2.525 7.34
      vertex 4.15 2.525 18
    endloop
  endfacet
  facet normal 0.987688 0.156435 0
    outer loop
      vertex 4.15 2.525 7.34
      vertex 4.24055 1.95332 18
      vertex 4.24055 1.95332 7.34
    endloop
  endfacet
  facet normal -0.707107 -0.707107 0
    outer loop
      vertex 7.49668 3.6124 1.5
      vertex 7.0874 4.02168 18
      vertex 7.0874 4.02168 1.5
    endloop
  endfacet
  facet normal -0.707107 -0.707107 0
    outer loop
      vertex 7.0874 4.02168 18
      vertex 7.49668 3.6124 1.5
      vertex 7.49668 3.6124 18
    endloop
  endfacet
  facet normal -0.891007 -0.45399 0
    outer loop
      vertex 7.75945 3.09668 1.5
      vertex 7.49668 3.6124 18
      vertex 7.49668 3.6124 1.5
    endloop
  endfacet
  facet normal -0.891007 -0.45399 0
    outer loop
      vertex 7.49668 3.6124 18
      vertex 7.75945 3.09668 1.5
      vertex 7.75945 3.09668 18
    endloop
  endfacet
  facet normal 0.453991 -0.891006 0
    outer loop
      vertex 4.9126 4.02168 1.5
      vertex 5.42832 4.28445 18
      vertex 4.9126 4.02168 18
    endloop
  endfacet
  facet normal 0.453991 -0.891006 0
    outer loop
      vertex 5.42832 4.28445 18
      vertex 4.9126 4.02168 1.5
      vertex 5.42832 4.28445 1.5
    endloop
  endfacet
  facet normal 0.987688 -0.156435 0
    outer loop
      vertex 4.15 2.525 2.54
      vertex 4.24055 3.09668 1.5
      vertex 4.24055 3.09668 2.54
    endloop
  endfacet
  facet normal 0.987688 -0.156435 0
    outer loop
      vertex 4.24055 3.09668 1.5
      vertex 4.15 2.525 2.54
      vertex 4.15 2.525 1.5
    endloop
  endfacet
  facet normal 0.987688 -0.156435 0
    outer loop
      vertex 4.15 2.525 18
      vertex 4.24055 3.09668 7.34
      vertex 4.24055 3.09668 18
    endloop
  endfacet
  facet normal 0.987688 -0.156435 0
    outer loop
      vertex 4.24055 3.09668 7.34
      vertex 4.15 2.525 18
      vertex 4.15 2.525 7.34
    endloop
  endfacet
  facet normal 0.707107 -0.707107 0
    outer loop
      vertex 4.9126 4.02168 18
      vertex 4.89092 4 7.34
      vertex 4.9126 4.02168 1.5
    endloop
  endfacet
  facet normal 0.707107 -0.707107 0
    outer loop
      vertex 4.50332 3.6124 18
      vertex 4.89092 4 7.34
      vertex 4.9126 4.02168 18
    endloop
  endfacet
  facet normal 0.707107 -0.707107 0
    outer loop
      vertex 4.89092 4 7.34
      vertex 4.50332 3.6124 18
      vertex 4.50332 3.6124 7.34
    endloop
  endfacet
  facet normal 0.707107 -0.707107 0
    outer loop
      vertex 4.89092 4 2.54
      vertex 4.9126 4.02168 1.5
      vertex 4.89092 4 7.34
    endloop
  endfacet
  facet normal 0.707107 -0.707107 0
    outer loop
      vertex 4.50332 3.6124 1.5
      vertex 4.89092 4 2.54
      vertex 4.50332 3.6124 2.54
    endloop
  endfacet
  facet normal 0.707107 -0.707107 0
    outer loop
      vertex 4.89092 4 2.54
      vertex 4.50332 3.6124 1.5
      vertex 4.9126 4.02168 1.5
    endloop
  endfacet
  facet normal -0.453991 -0.891006 0
    outer loop
      vertex 6.57168 4.28445 1.5
      vertex 7.0874 4.02168 18
      vertex 6.57168 4.28445 18
    endloop
  endfacet
  facet normal -0.453991 -0.891006 -0
    outer loop
      vertex 7.0874 4.02168 18
      vertex 6.57168 4.28445 1.5
      vertex 7.0874 4.02168 1.5
    endloop
  endfacet
  facet normal -0.156435 -0.987688 0
    outer loop
      vertex 6 4.375 1.5
      vertex 6.57168 4.28445 18
      vertex 6 4.375 18
    endloop
  endfacet
  facet normal -0.156435 -0.987688 -0
    outer loop
      vertex 6.57168 4.28445 18
      vertex 6 4.375 1.5
      vertex 6.57168 4.28445 1.5
    endloop
  endfacet
  facet normal 0.891007 -0.45399 0
    outer loop
      vertex 4.24055 3.09668 2.54
      vertex 4.50332 3.6124 1.5
      vertex 4.50332 3.6124 2.54
    endloop
  endfacet
  facet normal 0.891007 -0.45399 0
    outer loop
      vertex 4.50332 3.6124 1.5
      vertex 4.24055 3.09668 2.54
      vertex 4.24055 3.09668 1.5
    endloop
  endfacet
  facet normal 0.891007 -0.45399 0
    outer loop
      vertex 4.24055 3.09668 18
      vertex 4.50332 3.6124 7.34
      vertex 4.50332 3.6124 18
    endloop
  endfacet
  facet normal 0.891007 -0.45399 0
    outer loop
      vertex 4.50332 3.6124 7.34
      vertex 4.24055 3.09668 18
      vertex 4.24055 3.09668 7.34
    endloop
  endfacet
  facet normal 0 0 1
    outer loop
      vertex 7.75945 3.09668 1.5
      vertex 7.75945 1.95332 1.5
      vertex 7.85 2.525 1.5
    endloop
  endfacet
  facet normal 0 0 1
    outer loop
      vertex 7.49668 3.6124 1.5
      vertex 7.75945 1.95332 1.5
      vertex 7.75945 3.09668 1.5
    endloop
  endfacet
  facet normal 0 0 1
    outer loop
      vertex 7.49668 3.6124 1.5
      vertex 7.49668 1.4376 1.5
      vertex 7.75945 1.95332 1.5
    endloop
  endfacet
  facet normal 0 0 1
    outer loop
      vertex 7.0874 4.02168 1.5
      vertex 7.49668 1.4376 1.5
      vertex 7.49668 3.6124 1.5
    endloop
  endfacet
  facet normal 0 0 1
    outer loop
      vertex 7.0874 4.02168 1.5
      vertex 7.0874 1.02832 1.5
      vertex 7.49668 1.4376 1.5
    endloop
  endfacet
  facet normal 0 0 1
    outer loop
      vertex 6.57168 4.28445 1.5
      vertex 7.0874 1.02832 1.5
      vertex 7.0874 4.02168 1.5
    endloop
  endfacet
  facet normal 0 0 1
    outer loop
      vertex 6.57168 4.28445 1.5
      vertex 6.57168 0.765545 1.5
      vertex 7.0874 1.02832 1.5
    endloop
  endfacet
  facet normal 0 0 1
    outer loop
      vertex 6 4.375 1.5
      vertex 6.57168 0.765545 1.5
      vertex 6.57168 4.28445 1.5
    endloop
  endfacet
  facet normal 0 0 1
    outer loop
      vertex 6 4.375 1.5
      vertex 6 0.674999 1.5
      vertex 6.57168 0.765545 1.5
    endloop
  endfacet
  facet normal -0 0 1
    outer loop
      vertex 5.42832 4.28445 1.5
      vertex 6 0.674999 1.5
      vertex 6 4.375 1.5
    endloop
  endfacet
  facet normal 0 0 1
    outer loop
      vertex 5.42832 4.28445 1.5
      vertex 5.42832 0.765545 1.5
      vertex 6 0.674999 1.5
    endloop
  endfacet
  facet normal -0 0 1
    outer loop
      vertex 4.9126 4.02168 1.5
      vertex 5.42832 0.765545 1.5
      vertex 5.42832 4.28445 1.5
    endloop
  endfacet
  facet normal 0 0 1
    outer loop
      vertex 4.9126 4.02168 1.5
      vertex 4.9126 1.02832 1.5
      vertex 5.42832 0.765545 1.5
    endloop
  endfacet
  facet normal -0 0 1
    outer loop
      vertex 4.50332 3.6124 1.5
      vertex 4.9126 1.02832 1.5
      vertex 4.9126 4.02168 1.5
    endloop
  endfacet
  facet normal 0 0 1
    outer loop
      vertex 4.50332 3.6124 1.5
      vertex 4.50332 1.4376 1.5
      vertex 4.9126 1.02832 1.5
    endloop
  endfacet
  facet normal -0 0 1
    outer loop
      vertex 4.24055 3.09668 1.5
      vertex 4.50332 1.4376 1.5
      vertex 4.50332 3.6124 1.5
    endloop
  endfacet
  facet normal 0 0 1
    outer loop
      vertex 4.24055 3.09668 1.5
      vertex 4.24055 1.95332 1.5
      vertex 4.50332 1.4376 1.5
    endloop
  endfacet
  facet normal 0 -0 1
    outer loop
      vertex 4.24055 1.95332 1.5
      vertex 4.24055 3.09668 1.5
      vertex 4.15 2.525 1.5
    endloop
  endfacet
  facet normal -0.891007 0.45399 0
    outer loop
      vertex 7.49668 1.4376 1.5
      vertex 7.75945 1.95332 18
      vertex 7.75945 1.95332 1.5
    endloop
  endfacet
  facet normal -0.891007 0.45399 0
    outer loop
      vertex 7.75945 1.95332 18
      vertex 7.49668 1.4376 1.5
      vertex 7.49668 1.4376 18
    endloop
  endfacet
  facet normal 0.891007 0.45399 0
    outer loop
      vertex 4.50332 1.4376 2.54
      vertex 4.24055 1.95332 1.5
      vertex 4.24055 1.95332 2.54
    endloop
  endfacet
  facet normal 0.891007 0.45399 0
    outer loop
      vertex 4.24055 1.95332 1.5
      vertex 4.50332 1.4376 2.54
      vertex 4.50332 1.4376 1.5
    endloop
  endfacet
  facet normal 0.891007 0.45399 0
    outer loop
      vertex 4.50332 1.4376 18
      vertex 4.24055 1.95332 7.34
      vertex 4.24055 1.95332 18
    endloop
  endfacet
  facet normal 0.891007 0.45399 0
    outer loop
      vertex 4.24055 1.95332 7.34
      vertex 4.50332 1.4376 18
      vertex 4.50332 1.4376 7.34
    endloop
  endfacet
  facet normal -0.453991 0.891006 0
    outer loop
      vertex 7.0874 1.02832 1.5
      vertex 6.57168 0.765545 18
      vertex 7.0874 1.02832 18
    endloop
  endfacet
  facet normal -0.453991 0.891006 0
    outer loop
      vertex 6.57168 0.765545 18
      vertex 7.0874 1.02832 1.5
      vertex 6.57168 0.765545 1.5
    endloop
  endfacet
  facet normal -0.707107 0.707107 0
    outer loop
      vertex 7.0874 1.02832 1.5
      vertex 7.49668 1.4376 18
      vertex 7.49668 1.4376 1.5
    endloop
  endfacet
  facet normal -0.707107 0.707107 0
    outer loop
      vertex 7.49668 1.4376 18
      vertex 7.0874 1.02832 1.5
      vertex 7.0874 1.02832 18
    endloop
  endfacet
  facet normal -0.987688 0.156435 0
    outer loop
      vertex 7.75945 1.95332 1.5
      vertex 7.85 2.525 18
      vertex 7.85 2.525 1.5
    endloop
  endfacet
  facet normal -0.987688 0.156435 0
    outer loop
      vertex 7.85 2.525 18
      vertex 7.75945 1.95332 1.5
      vertex 7.75945 1.95332 18
    endloop
  endfacet
  facet normal -0.156435 0.987688 0
    outer loop
      vertex 6.57168 0.765545 1.5
      vertex 6 0.674999 18
      vertex 6.57168 0.765545 18
    endloop
  endfacet
  facet normal -0.156435 0.987688 0
    outer loop
      vertex 6 0.674999 18
      vertex 6.57168 0.765545 1.5
      vertex 6 0.674999 1.5
    endloop
  endfacet
  facet normal 0.156435 0.987688 -0
    outer loop
      vertex 6 0.674999 1.5
      vertex 5.42832 0.765545 18
      vertex 6 0.674999 18
    endloop
  endfacet
  facet normal 0.156435 0.987688 0
    outer loop
      vertex 5.42832 0.765545 18
      vertex 6 0.674999 1.5
      vertex 5.42832 0.765545 1.5
    endloop
  endfacet
  facet normal 0.453991 0.891006 -0
    outer loop
      vertex 5.42832 0.765545 1.5
      vertex 4.9126 1.02832 18
      vertex 5.42832 0.765545 18
    endloop
  endfacet
  facet normal 0.453991 0.891006 0
    outer loop
      vertex 4.9126 1.02832 18
      vertex 5.42832 0.765545 1.5
      vertex 4.9126 1.02832 1.5
    endloop
  endfacet
  facet normal 0 0 -1
    outer loop
      vertex 4.9 1 7.34
      vertex 4.50332 1.4376 7.34
      vertex 4.9 1.04092 7.34
    endloop
  endfacet
  facet normal -0 0 -1
    outer loop
      vertex 4.24055 1.95332 7.34
      vertex 0 1 7.34
      vertex 4.15 2.525 7.34
    endloop
  endfacet
  facet normal -0 0 -1
    outer loop
      vertex 4.50332 1.4376 7.34
      vertex 0 1 7.34
      vertex 4.24055 1.95332 7.34
    endloop
  endfacet
  facet normal 0 0 -1
    outer loop
      vertex 0 1 7.34
      vertex 4.50332 1.4376 7.34
      vertex 4.9 1 7.34
    endloop
  endfacet
  facet normal 0 0 -1
    outer loop
      vertex 0 4 7.34
      vertex 4.15 2.525 7.34
      vertex 0 1 7.34
    endloop
  endfacet
  facet normal 0 0 -1
    outer loop
      vertex 4.15 2.525 7.34
      vertex 0 4 7.34
      vertex 4.24055 3.09668 7.34
    endloop
  endfacet
  facet normal 0 0 -1
    outer loop
      vertex 4.24055 3.09668 7.34
      vertex 0 4 7.34
      vertex 4.50332 3.6124 7.34
    endloop
  endfacet
  facet normal 0 0 -1
    outer loop
      vertex 4.50332 3.6124 7.34
      vertex 0 4 7.34
      vertex 4.89092 4 7.34
    endloop
  endfacet
  facet normal -1 0 0
    outer loop
      vertex 4.9 1 2.54
      vertex 4.9 1.04092 7.34
      vertex 4.9 1.04092 2.54
    endloop
  endfacet
  facet normal -1 -0 0
    outer loop
      vertex 4.9 1.04092 7.34
      vertex 4.9 1 2.54
      vertex 4.9 1 7.34
    endloop
  endfacet
  facet normal 0 0 1
    outer loop
      vertex 4.24055 3.09668 2.54
      vertex 0 4 2.54
      vertex 4.15 2.525 2.54
    endloop
  endfacet
  facet normal 0 0 1
    outer loop
      vertex 4.50332 3.6124 2.54
      vertex 0 4 2.54
      vertex 4.24055 3.09668 2.54
    endloop
  endfacet
  facet normal -0 0 1
    outer loop
      vertex 0 4 2.54
      vertex 4.50332 3.6124 2.54
      vertex 4.89092 4 2.54
    endloop
  endfacet
  facet normal 0 0 1
    outer loop
      vertex 4.50332 1.4376 2.54
      vertex 4.9 1 2.54
      vertex 4.9 1.04092 2.54
    endloop
  endfacet
  facet normal 0 0 1
    outer loop
      vertex 0 1 2.54
      vertex 4.15 2.525 2.54
      vertex 0 4 2.54
    endloop
  endfacet
  facet normal 0 0 1
    outer loop
      vertex 4.15 2.525 2.54
      vertex 0 1 2.54
      vertex 4.24055 1.95332 2.54
    endloop
  endfacet
  facet normal 0 0 1
    outer loop
      vertex 4.24055 1.95332 2.54
      vertex 0 1 2.54
      vertex 4.50332 1.4376 2.54
    endloop
  endfacet
  facet normal 0 0 1
    outer loop
      vertex 4.50332 1.4376 2.54
      vertex 0 1 2.54
      vertex 4.9 1 2.54
    endloop
  endfacet
  facet normal 0 1 -0
    outer loop
      vertex 4.9 1 2.54
      vertex 0 1 7.34
      vertex 4.9 1 7.34
    endloop
  endfacet
  facet normal 0 1 0
    outer loop
      vertex 0 1 7.34
      vertex 4.9 1 2.54
      vertex 0 1 2.54
    endloop
  endfacet
  facet normal 0 -1 0
    outer loop
      vertex 0 4 2.54
      vertex 4.89092 4 7.34
      vertex 0 4 7.34
    endloop
  endfacet
  facet normal 0 -1 -0
    outer loop
      vertex 4.89092 4 7.34
      vertex 0 4 2.54
      vertex 4.89092 4 2.54
    endloop
  endfacet
  facet normal -1 0 0
    outer loop
      vertex 0 9.05 7.34
      vertex 0 10.1 0
      vertex 0 9.05 2.54
    endloop
  endfacet
  facet normal -1 0 0
    outer loop
      vertex 0 5.05 0
      vertex 0 9.05 2.54
      vertex 0 10.1 0
    endloop
  endfacet
  facet normal -1 -0 0
    outer loop
      vertex 0 6.05 2.54
      vertex 0 5.05 0
      vertex 0 6.05 7.34
    endloop
  endfacet
  facet normal -1 -0 0
    outer loop
      vertex 0 9.05 2.54
      vertex 0 5.05 0
      vertex 0 6.05 2.54
    endloop
  endfacet
  facet normal -1 0 0
    outer loop
      vertex 0 10.1 0
      vertex 0 9.05 7.34
      vertex 0 10.1 12
    endloop
  endfacet
  facet normal -1 0 0
    outer loop
      vertex 0 5.05 12
      vertex 0 9.05 7.34
      vertex 0 6.05 7.34
    endloop
  endfacet
  facet normal -1 0 0
    outer loop
      vertex 0 9.05 7.34
      vertex 0 5.05 12
      vertex 0 10.1 12
    endloop
  endfacet
  facet normal -1 0 0
    outer loop
      vertex 0 5.05 12
      vertex 0 6.05 7.34
      vertex 0 5.05 0
    endloop
  endfacet
  facet normal -0 0 1
    outer loop
      vertex 8.6 10.1 9
      vertex 10.4 5.05 9
      vertex 10.4 10.1 9
    endloop
  endfacet
  facet normal 0 0 1
    outer loop
      vertex 10.4 5.05 9
      vertex 8.6 10.1 9
      vertex 8.6 5.05 9
    endloop
  endfacet
  facet normal 1 -0 0
    outer loop
      vertex 10.4 5.05 9
      vertex 10.4 10.1 0
      vertex 10.4 10.1 9
    endloop
  endfacet
  facet normal 1 0 0
    outer loop
      vertex 10.4 10.1 0
      vertex 10.4 5.05 9
      vertex 10.4 5.05 0
    endloop
  endfacet
  facet normal 0 0 -1
    outer loop
      vertex 0 5.05 0
      vertex 10.4 10.1 0
      vertex 10.4 5.05 0
    endloop
  endfacet
  facet normal -0 0 -1
    outer loop
      vertex 10.4 10.1 0
      vertex 0 5.05 0
      vertex 0 10.1 0
    endloop
  endfacet
  facet normal 0 -1 0
    outer loop
      vertex 8.6 5.05 9
      vertex 3.4641 5.05 18
      vertex 0 5.05 12
    endloop
  endfacet
  facet normal 0 -1 0
    outer loop
      vertex 3.4641 5.05 18
      vertex 8.6 5.05 9
      vertex 8.6 5.05 18
    endloop
  endfacet
  facet normal 0 -1 0
    outer loop
      vertex 0 5.05 0
      vertex 8.6 5.05 9
      vertex 0 5.05 12
    endloop
  endfacet
  facet normal 0 -1 0
    outer loop
      vertex 10.4 5.05 0
      vertex 8.6 5.05 9
      vertex 0 5.05 0
    endloop
  endfacet
  facet normal 0 -1 0
    outer loop
      vertex 8.6 5.05 9
      vertex 10.4 5.05 0
      vertex 10.4 5.05 9
    endloop
  endfacet
  facet normal 0 1 0
    outer loop
      vertex 10.4 10.1 9
      vertex 10.4 10.1 0
      vertex 8.6 10.1 9
    endloop
  endfacet
  facet normal 0 1 -0
    outer loop
      vertex 8.6 10.1 9
      vertex 3.4641 10.1 18
      vertex 8.6 10.1 18
    endloop
  endfacet
  facet normal 0 1 0
    outer loop
      vertex 3.4641 10.1 18
      vertex 8.6 10.1 9
      vertex 0 10.1 12
    endloop
  endfacet
  facet normal 0 1 0
    outer loop
      vertex 0 10.1 0
      vertex 8.6 10.1 9
      vertex 10.4 10.1 0
    endloop
  endfacet
  facet normal 0 1 0
    outer loop
      vertex 8.6 10.1 9
      vertex 0 10.1 0
      vertex 0 10.1 12
    endloop
  endfacet
  facet normal 0 0 1
    outer loop
      vertex 8.6 10.1 18
      vertex 7.85 7.575 18
      vertex 8.6 5.05 18
    endloop
  endfacet
  facet normal 0 0 1
    outer loop
      vertex 8.6 10.1 18
      vertex 7.75945 8.14668 18
      vertex 7.85 7.575 18
    endloop
  endfacet
  facet normal 0 0 1
    outer loop
      vertex 8.6 10.1 18
      vertex 7.49668 8.6624 18
      vertex 7.75945 8.14668 18
    endloop
  endfacet
  facet normal 0 0 1
    outer loop
      vertex 8.6 10.1 18
      vertex 7.0874 9.07168 18
      vertex 7.49668 8.6624 18
    endloop
  endfacet
  facet normal 0 0 1
    outer loop
      vertex 8.6 10.1 18
      vertex 6.57168 9.33445 18
      vertex 7.0874 9.07168 18
    endloop
  endfacet
  facet normal 0 0 1
    outer loop
      vertex 8.6 10.1 18
      vertex 6 9.425 18
      vertex 6.57168 9.33445 18
    endloop
  endfacet
  facet normal -0 0 1
    outer loop
      vertex 3.4641 10.1 18
      vertex 6 9.425 18
      vertex 8.6 10.1 18
    endloop
  endfacet
  facet normal 0 0 1
    outer loop
      vertex 4.24055 8.14668 18
      vertex 3.4641 10.1 18
      vertex 4.15 7.575 18
    endloop
  endfacet
  facet normal 0 0 1
    outer loop
      vertex 4.50332 8.6624 18
      vertex 3.4641 10.1 18
      vertex 4.24055 8.14668 18
    endloop
  endfacet
  facet normal 0 0 1
    outer loop
      vertex 4.9126 9.07168 18
      vertex 3.4641 10.1 18
      vertex 4.50332 8.6624 18
    endloop
  endfacet
  facet normal 0 0 1
    outer loop
      vertex 5.42832 9.33445 18
      vertex 3.4641 10.1 18
      vertex 4.9126 9.07168 18
    endloop
  endfacet
  facet normal 0 0 1
    outer loop
      vertex 6 9.425 18
      vertex 3.4641 10.1 18
      vertex 5.42832 9.33445 18
    endloop
  endfacet
  facet normal -0 0 1
    outer loop
      vertex 7.75945 7.00332 18
      vertex 8.6 5.05 18
      vertex 7.85 7.575 18
    endloop
  endfacet
  facet normal -0 0 1
    outer loop
      vertex 7.49668 6.4876 18
      vertex 8.6 5.05 18
      vertex 7.75945 7.00332 18
    endloop
  endfacet
  facet normal -0 0 1
    outer loop
      vertex 7.0874 6.07832 18
      vertex 8.6 5.05 18
      vertex 7.49668 6.4876 18
    endloop
  endfacet
  facet normal -0 0 1
    outer loop
      vertex 6.57168 5.81555 18
      vertex 8.6 5.05 18
      vertex 7.0874 6.07832 18
    endloop
  endfacet
  facet normal -0 0 1
    outer loop
      vertex 6 5.725 18
      vertex 8.6 5.05 18
      vertex 6.57168 5.81555 18
    endloop
  endfacet
  facet normal 0 0 1
    outer loop
      vertex 3.4641 5.05 18
      vertex 6 5.725 18
      vertex 5.42832 5.81555 18
    endloop
  endfacet
  facet normal 0 0 1
    outer loop
      vertex 3.4641 5.05 18
      vertex 4.15 7.575 18
      vertex 3.4641 10.1 18
    endloop
  endfacet
  facet normal 0 0 1
    outer loop
      vertex 6 5.725 18
      vertex 3.4641 5.05 18
      vertex 8.6 5.05 18
    endloop
  endfacet
  facet normal 0 0 1
    outer loop
      vertex 4.9126 6.07832 18
      vertex 3.4641 5.05 18
      vertex 5.42832 5.81555 18
    endloop
  endfacet
  facet normal 0 0 1
    outer loop
      vertex 4.50332 6.4876 18
      vertex 3.4641 5.05 18
      vertex 4.9126 6.07832 18
    endloop
  endfacet
  facet normal 0 0 1
    outer loop
      vertex 4.24055 7.00332 18
      vertex 3.4641 5.05 18
      vertex 4.50332 6.4876 18
    endloop
  endfacet
  facet normal 0 0 1
    outer loop
      vertex 4.15 7.575 18
      vertex 3.4641 5.05 18
      vertex 4.24055 7.00332 18
    endloop
  endfacet
  facet normal 1 -0 0
    outer loop
      vertex 8.6 5.05 18
      vertex 8.6 10.1 9
      vertex 8.6 10.1 18
    endloop
  endfacet
  facet normal 1 0 0
    outer loop
      vertex 8.6 10.1 9
      vertex 8.6 5.05 18
      vertex 8.6 5.05 9
    endloop
  endfacet
  facet normal -0.866025 0 0.5
    outer loop
      vertex 0 5.05 12
      vertex 3.4641 10.1 18
      vertex 0 10.1 12
    endloop
  endfacet
  facet normal -0.866025 0 0.5
    outer loop
      vertex 3.4641 10.1 18
      vertex 0 5.05 12
      vertex 3.4641 5.05 18
    endloop
  endfacet
  facet normal -0.987688 -0.156435 0
    outer loop
      vertex 7.85 7.575 1.5
      vertex 7.75945 8.14668 18
      vertex 7.75945 8.14668 1.5
    endloop
  endfacet
  facet normal -0.987688 -0.156435 0
    outer loop
      vertex 7.75945 8.14668 18
      vertex 7.85 7.575 1.5
      vertex 7.85 7.575 18
    endloop
  endfacet
  facet normal 0.707107 0.707107 0
    outer loop
      vertex 4.50332 6.4876 18
      vertex 4.9 6.09092 7.34
      vertex 4.50332 6.4876 7.34
    endloop
  endfacet
  facet normal 0.707107 0.707107 -0
    outer loop
      vertex 4.9126 6.07832 1.5
      vertex 4.9 6.09092 7.34
      vertex 4.9126 6.07832 18
    endloop
  endfacet
  facet normal 0.707107 0.707107 0
    outer loop
      vertex 4.9126 6.07832 18
      vertex 4.9 6.09092 7.34
      vertex 4.50332 6.4876 18
    endloop
  endfacet
  facet normal 0.707107 0.707107 0
    outer loop
      vertex 4.9 6.09092 2.54
      vertex 4.50332 6.4876 1.5
      vertex 4.50332 6.4876 2.54
    endloop
  endfacet
  facet normal 0.707107 0.707107 0
    outer loop
      vertex 4.9 6.09092 2.54
      vertex 4.9126 6.07832 1.5
      vertex 4.50332 6.4876 1.5
    endloop
  endfacet
  facet normal 0.707107 0.707107 0
    outer loop
      vertex 4.9 6.09092 7.34
      vertex 4.9126 6.07832 1.5
      vertex 4.9 6.09092 2.54
    endloop
  endfacet
  facet normal 0.156435 -0.987688 0
    outer loop
      vertex 5.42832 9.33445 1.5
      vertex 6 9.425 18
      vertex 5.42832 9.33445 18
    endloop
  endfacet
  facet normal 0.156435 -0.987688 0
    outer loop
      vertex 6 9.425 18
      vertex 5.42832 9.33445 1.5
      vertex 6 9.425 1.5
    endloop
  endfacet
  facet normal 0.987688 0.156435 0
    outer loop
      vertex 4.24055 7.00332 2.54
      vertex 4.15 7.575 1.5
      vertex 4.15 7.575 2.54
    endloop
  endfacet
  facet normal 0.987688 0.156435 0
    outer loop
      vertex 4.15 7.575 1.5
      vertex 4.24055 7.00332 2.54
      vertex 4.24055 7.00332 1.5
    endloop
  endfacet
  facet normal 0.987688 0.156435 0
    outer loop
      vertex 4.24055 7.00332 18
      vertex 4.15 7.575 7.34
      vertex 4.15 7.575 18
    endloop
  endfacet
  facet normal 0.987688 0.156435 0
    outer loop
      vertex 4.15 7.575 7.34
      vertex 4.24055 7.00332 18
      vertex 4.24055 7.00332 7.34
    endloop
  endfacet
  facet normal -0.707107 -0.707107 0
    outer loop
      vertex 7.49668 8.6624 1.5
      vertex 7.0874 9.07168 18
      vertex 7.0874 9.07168 1.5
    endloop
  endfacet
  facet normal -0.707107 -0.707107 0
    outer loop
      vertex 7.0874 9.07168 18
      vertex 7.49668 8.6624 1.5
      vertex 7.49668 8.6624 18
    endloop
  endfacet
  facet normal -0.891007 -0.45399 0
    outer loop
      vertex 7.75945 8.14668 1.5
      vertex 7.49668 8.6624 18
      vertex 7.49668 8.6624 1.5
    endloop
  endfacet
  facet normal -0.891007 -0.45399 0
    outer loop
      vertex 7.49668 8.6624 18
      vertex 7.75945 8.14668 1.5
      vertex 7.75945 8.14668 18
    endloop
  endfacet
  facet normal 0.453991 -0.891006 0
    outer loop
      vertex 4.9126 9.07168 1.5
      vertex 5.42832 9.33445 18
      vertex 4.9126 9.07168 18
    endloop
  endfacet
  facet normal 0.453991 -0.891006 0
    outer loop
      vertex 5.42832 9.33445 18
      vertex 4.9126 9.07168 1.5
      vertex 5.42832 9.33445 1.5
    endloop
  endfacet
  facet normal 0.987688 -0.156435 0
    outer loop
      vertex 4.15 7.575 2.54
      vertex 4.24055 8.14668 1.5
      vertex 4.24055 8.14668 2.54
    endloop
  endfacet
  facet normal 0.987688 -0.156435 0
    outer loop
      vertex 4.24055 8.14668 1.5
      vertex 4.15 7.575 2.54
      vertex 4.15 7.575 1.5
    endloop
  endfacet
  facet normal 0.987688 -0.156435 0
    outer loop
      vertex 4.15 7.575 18
      vertex 4.24055 8.14668 7.34
      vertex 4.24055 8.14668 18
    endloop
  endfacet
  facet normal 0.987688 -0.156435 0
    outer loop
      vertex 4.24055 8.14668 7.34
      vertex 4.15 7.575 18
      vertex 4.15 7.575 7.34
    endloop
  endfacet
  facet normal 0.707107 -0.707107 0
    outer loop
      vertex 4.9126 9.07168 18
      vertex 4.89092 9.05 7.34
      vertex 4.9126 9.07168 1.5
    endloop
  endfacet
  facet normal 0.707107 -0.707107 0
    outer loop
      vertex 4.50332 8.6624 18
      vertex 4.89092 9.05 7.34
      vertex 4.9126 9.07168 18
    endloop
  endfacet
  facet normal 0.707107 -0.707107 0
    outer loop
      vertex 4.89092 9.05 7.34
      vertex 4.50332 8.6624 18
      vertex 4.50332 8.6624 7.34
    endloop
  endfacet
  facet normal 0.707107 -0.707107 0
    outer loop
      vertex 4.89092 9.05 2.54
      vertex 4.9126 9.07168 1.5
      vertex 4.89092 9.05 7.34
    endloop
  endfacet
  facet normal 0.707107 -0.707107 0
    outer loop
      vertex 4.50332 8.6624 1.5
      vertex 4.89092 9.05 2.54
      vertex 4.50332 8.6624 2.54
    endloop
  endfacet
  facet normal 0.707107 -0.707107 0
    outer loop
      vertex 4.89092 9.05 2.54
      vertex 4.50332 8.6624 1.5
      vertex 4.9126 9.07168 1.5
    endloop
  endfacet
  facet normal -0.453991 -0.891006 0
    outer loop
      vertex 6.57168 9.33445 1.5
      vertex 7.0874 9.07168 18
      vertex 6.57168 9.33445 18
    endloop
  endfacet
  facet normal -0.453991 -0.891006 -0
    outer loop
      vertex 7.0874 9.07168 18
      vertex 6.57168 9.33445 1.5
      vertex 7.0874 9.07168 1.5
    endloop
  endfacet
  facet normal -0.156435 -0.987688 0
    outer loop
      vertex 6 9.425 1.5
      vertex 6.57168 9.33445 18
      vertex 6 9.425 18
    endloop
  endfacet
  facet normal -0.156435 -0.987688 -0
    outer loop
      vertex 6.57168 9.33445 18
      vertex 6 9.425 1.5
      vertex 6.57168 9.33445 1.5
    endloop
  endfacet
  facet normal 0.891007 -0.45399 0
    outer loop
      vertex 4.24055 8.14668 2.54
      vertex 4.50332 8.6624 1.5
      vertex 4.50332 8.6624 2.54
    endloop
  endfacet
  facet normal 0.891007 -0.45399 0
    outer loop
      vertex 4.50332 8.6624 1.5
      vertex 4.24055 8.14668 2.54
      vertex 4.24055 8.14668 1.5
    endloop
  endfacet
  facet normal 0.891007 -0.45399 0
    outer loop
      vertex 4.24055 8.14668 18
      vertex 4.50332 8.6624 7.34
      vertex 4.50332 8.6624 18
    endloop
  endfacet
  facet normal 0.891007 -0.45399 0
    outer loop
      vertex 4.50332 8.6624 7.34
      vertex 4.24055 8.14668 18
      vertex 4.24055 8.14668 7.34
    endloop
  endfacet
  facet normal 0 0 1
    outer loop
      vertex 7.75945 8.14668 1.5
      vertex 7.75945 7.00332 1.5
      vertex 7.85 7.575 1.5
    endloop
  endfacet
  facet normal 0 0 1
    outer loop
      vertex 7.49668 8.6624 1.5
      vertex 7.75945 7.00332 1.5
      vertex 7.75945 8.14668 1.5
    endloop
  endfacet
  facet normal 0 0 1
    outer loop
      vertex 7.49668 8.6624 1.5
      vertex 7.49668 6.4876 1.5
      vertex 7.75945 7.00332 1.5
    endloop
  endfacet
  facet normal 0 0 1
    outer loop
      vertex 7.0874 9.07168 1.5
      vertex 7.49668 6.4876 1.5
      vertex 7.49668 8.6624 1.5
    endloop
  endfacet
  facet normal 0 0 1
    outer loop
      vertex 7.0874 9.07168 1.5
      vertex 7.0874 6.07832 1.5
      vertex 7.49668 6.4876 1.5
    endloop
  endfacet
  facet normal 0 0 1
    outer loop
      vertex 6.57168 9.33445 1.5
      vertex 7.0874 6.07832 1.5
      vertex 7.0874 9.07168 1.5
    endloop
  endfacet
  facet normal 0 0 1
    outer loop
      vertex 6.57168 9.33445 1.5
      vertex 6.57168 5.81555 1.5
      vertex 7.0874 6.07832 1.5
    endloop
  endfacet
  facet normal 0 0 1
    outer loop
      vertex 6 9.425 1.5
      vertex 6.57168 5.81555 1.5
      vertex 6.57168 9.33445 1.5
    endloop
  endfacet
  facet normal 0 0 1
    outer loop
      vertex 6 9.425 1.5
      vertex 6 5.725 1.5
      vertex 6.57168 5.81555 1.5
    endloop
  endfacet
  facet normal -0 0 1
    outer loop
      vertex 5.42832 9.33445 1.5
      vertex 6 5.725 1.5
      vertex 6 9.425 1.5
    endloop
  endfacet
  facet normal 0 0 1
    outer loop
      vertex 5.42832 9.33445 1.5
      vertex 5.42832 5.81555 1.5
      vertex 6 5.725 1.5
    endloop
  endfacet
  facet normal -0 0 1
    outer loop
      vertex 4.9126 9.07168 1.5
      vertex 5.42832 5.81555 1.5
      vertex 5.42832 9.33445 1.5
    endloop
  endfacet
  facet normal 0 0 1
    outer loop
      vertex 4.9126 9.07168 1.5
      vertex 4.9126 6.07832 1.5
      vertex 5.42832 5.81555 1.5
    endloop
  endfacet
  facet normal -0 0 1
    outer loop
      vertex 4.50332 8.6624 1.5
      vertex 4.9126 6.07832 1.5
      vertex 4.9126 9.07168 1.5
    endloop
  endfacet
  facet normal 0 0 1
    outer loop
      vertex 4.50332 8.6624 1.5
      vertex 4.50332 6.4876 1.5
      vertex 4.9126 6.07832 1.5
    endloop
  endfacet
  facet normal -0 0 1
    outer loop
      vertex 4.24055 8.14668 1.5
      vertex 4.50332 6.4876 1.5
      vertex 4.50332 8.6624 1.5
    endloop
  endfacet
  facet normal 0 0 1
    outer loop
      vertex 4.24055 8.14668 1.5
      vertex 4.24055 7.00332 1.5
      vertex 4.50332 6.4876 1.5
    endloop
  endfacet
  facet normal 0 -0 1
    outer loop
      vertex 4.24055 7.00332 1.5
      vertex 4.24055 8.14668 1.5
      vertex 4.15 7.575 1.5
    endloop
  endfacet
  facet normal -0.891007 0.45399 0
    outer loop
      vertex 7.49668 6.4876 1.5
      vertex 7.75945 7.00332 18
      vertex 7.75945 7.00332 1.5
    endloop
  endfacet
  facet normal -0.891007 0.45399 0
    outer loop
      vertex 7.75945 7.00332 18
      vertex 7.49668 6.4876 1.5
      vertex 7.49668 6.4876 18
    endloop
  endfacet
  facet normal 0.891007 0.45399 0
    outer loop
      vertex 4.50332 6.4876 2.54
      vertex 4.24055 7.00332 1.5
      vertex 4.24055 7.00332 2.54
    endloop
  endfacet
  facet normal 0.891007 0.45399 0
    outer loop
      vertex 4.24055 7.00332 1.5
      vertex 4.50332 6.4876 2.54
      vertex 4.50332 6.4876 1.5
    endloop
  endfacet
  facet normal 0.891007 0.45399 0
    outer loop
      vertex 4.50332 6.4876 18
      vertex 4.24055 7.00332 7.34
      vertex 4.24055 7.00332 18
    endloop
  endfacet
  facet normal 0.891007 0.45399 0
    outer loop
      vertex 4.24055 7.00332 7.34
      vertex 4.50332 6.4876 18
      vertex 4.50332 6.4876 7.34
    endloop
  endfacet
  facet normal -0.453991 0.891006 0
    outer loop
      vertex 7.0874 6.07832 1.5
      vertex 6.57168 5.81555 18
      vertex 7.0874 6.07832 18
    endloop
  endfacet
  facet normal -0.453991 0.891006 0
    outer loop
      vertex 6.57168 5.81555 18
      vertex 7.0874 6.07832 1.5
      vertex 6.57168 5.81555 1.5
    endloop
  endfacet
  facet normal -0.707107 0.707107 0
    outer loop
      vertex 7.0874 6.07832 1.5
      vertex 7.49668 6.4876 18
      vertex 7.49668 6.4876 1.5
    endloop
  endfacet
  facet normal -0.707107 0.707107 0
    outer loop
      vertex 7.49668 6.4876 18
      vertex 7.0874 6.07832 1.5
      vertex 7.0874 6.07832 18
    endloop
  endfacet
  facet normal -0.987688 0.156435 0
    outer loop
      vertex 7.75945 7.00332 1.5
      vertex 7.85 7.575 18
      vertex 7.85 7.575 1.5
    endloop
  endfacet
  facet normal -0.987688 0.156435 0
    outer loop
      vertex 7.85 7.575 18
      vertex 7.75945 7.00332 1.5
      vertex 7.75945 7.00332 18
    endloop
  endfacet
  facet normal -0.156435 0.987688 0
    outer loop
      vertex 6.57168 5.81555 1.5
      vertex 6 5.725 18
      vertex 6.57168 5.81555 18
    endloop
  endfacet
  facet normal -0.156435 0.987688 0
    outer loop
      vertex 6 5.725 18
      vertex 6.57168 5.81555 1.5
      vertex 6 5.725 1.5
    endloop
  endfacet
  facet normal 0.156435 0.987688 -0
    outer loop
      vertex 6 5.725 1.5
      vertex 5.42832 5.81555 18
      vertex 6 5.725 18
    endloop
  endfacet
  facet normal 0.156435 0.987688 0
    outer loop
      vertex 5.42832 5.81555 18
      vertex 6 5.725 1.5
      vertex 5.42832 5.81555 1.5
    endloop
  endfacet
  facet normal 0.453991 0.891006 -0
    outer loop
      vertex 5.42832 5.81555 1.5
      vertex 4.9126 6.07832 18
      vertex 5.42832 5.81555 18
    endloop
  endfacet
  facet normal 0.453991 0.891006 0
    outer loop
      vertex 4.9126 6.07832 18
      vertex 5.42832 5.81555 1.5
      vertex 4.9126 6.07832 1.5
    endloop
  endfacet
  facet normal 0 0 -1
    outer loop
      vertex 4.9 6.05 7.34
      vertex 4.50332 6.4876 7.34
      vertex 4.9 6.09092 7.34
    endloop
  endfacet
  facet normal -0 0 -1
    outer loop
      vertex 4.24055 7.00332 7.34
      vertex 0 6.05 7.34
      vertex 4.15 7.575 7.34
    endloop
  endfacet
  facet normal -0 0 -1
    outer loop
      vertex 4.50332 6.4876 7.34
      vertex 0 6.05 7.34
      vertex 4.24055 7.00332 7.34
    endloop
  endfacet
  facet normal 0 0 -1
    outer loop
      vertex 0 6.05 7.34
      vertex 4.50332 6.4876 7.34
      vertex 4.9 6.05 7.34
    endloop
  endfacet
  facet normal 0 0 -1
    outer loop
      vertex 0 9.05 7.34
      vertex 4.15 7.575 7.34
      vertex 0 6.05 7.34
    endloop
  endfacet
  facet normal 0 0 -1
    outer loop
      vertex 4.15 7.575 7.34
      vertex 0 9.05 7.34
      vertex 4.24055 8.14668 7.34
    endloop
  endfacet
  facet normal 0 0 -1
    outer loop
      vertex 4.24055 8.14668 7.34
      vertex 0 9.05 7.34
      vertex 4.50332 8.6624 7.34
    endloop
  endfacet
  facet normal 0 0 -1
    outer loop
      vertex 4.50332 8.6624 7.34
      vertex 0 9.05 7.34
      vertex 4.89092 9.05 7.34
    endloop
  endfacet
  facet normal -1 0 0
    outer loop
      vertex 4.9 6.05 2.54
      vertex 4.9 6.09092 7.34
      vertex 4.9 6.09092 2.54
    endloop
  endfacet
  facet normal -1 -0 0
    outer loop
      vertex 4.9 6.09092 7.34
      vertex 4.9 6.05 2.54
      vertex 4.9 6.05 7.34
    endloop
  endfacet
  facet normal 0 0 1
    outer loop
      vertex 4.24055 8.14668 2.54
      vertex 0 9.05 2.54
      vertex 4.15 7.575 2.54
    endloop
  endfacet
  facet normal 0 0 1
    outer loop
      vertex 4.50332 8.6624 2.54
      vertex 0 9.05 2.54
      vertex 4.24055 8.14668 2.54
    endloop
  endfacet
  facet normal -0 0 1
    outer loop
      vertex 0 9.05 2.54
      vertex 4.50332 8.6624 2.54
      vertex 4.89092 9.05 2.54
    endloop
  endfacet
  facet normal 0 0 1
    outer loop
      vertex 4.50332 6.4876 2.54
      vertex 4.9 6.05 2.54
      vertex 4.9 6.09092 2.54
    endloop
  endfacet
  facet normal 0 0 1
    outer loop
      vertex 0 6.05 2.54
      vertex 4.15 7.575 2.54
      vertex 0 9.05 2.54
    endloop
  endfacet
  facet normal 0 0 1
    outer loop
      vertex 4.15 7.575 2.54
      vertex 0 6.05 2.54
      vertex 4.24055 7.00332 2.54
    endloop
  endfacet
  facet normal 0 0 1
    outer loop
      vertex 4.24055 7.00332 2.54
      vertex 0 6.05 2.54
      vertex 4.50332 6.4876 2.54
    endloop
  endfacet
  facet normal 0 0 1
    outer loop
      vertex 4.50332 6.4876 2.54
      vertex 0 6.05 2.54
      vertex 4.9 6.05 2.54
    endloop
  endfacet
  facet normal 0 1 -0
    outer loop
      vertex 4.9 6.05 2.54
      vertex 0 6.05 7.34
      vertex 4.9 6.05 7.34
    endloop
  endfacet
  facet normal 0 1 0
    outer loop
      vertex 0 6.05 7.34
      vertex 4.9 6.05 2.54
      vertex 0 6.05 2.54
    endloop
  endfacet
  facet normal 0 -1 0
    outer loop
      vertex 0 9.05 2.54
      vertex 4.89092 9.05 7.34
      vertex 0 9.05 7.34
    endloop
  endfacet
  facet normal 0 -1 -0
    outer loop
      vertex 4.89092 9.05 7.34
      vertex 0 9.05 2.54
      vertex 4.89092 9.05 2.54
    endloop
  endfacet
endsolid OpenSCAD_Model
